<svg width="1271" height="789" viewBox="0 0 1271 789" xmlns="http://www.w3.org/2000/svg"><title>gradient-sand-tint-poly</title><desc>Created with Sketch.</desc><defs><linearGradient x1="0%" y1="48.749%" y2="51.251%" id="a"><stop stop-color="#F9E4BF" offset="0%"/><stop stop-color="#F8E4BE" offset="100%"/></linearGradient><linearGradient x1="50%" y1="0%" x2="50%" y2="100%" id="b"><stop stop-color="#DFD0C2" offset="0%"/><stop stop-color="#E8D9C7" offset="100%"/></linearGradient><linearGradient x1="0%" y1="42.706%" y2="57.294%" id="c"><stop stop-color="#D7C6B7" offset="0%"/><stop stop-color="#DAC9BB" offset="100%"/></linearGradient><linearGradient x1="20.414%" y1="0%" x2="79.586%" y2="100%" id="d"><stop stop-color="#EEE2D3" offset="0%"/><stop stop-color="#F1E5D5" offset="100%"/></linearGradient><linearGradient x1="0%" y1="32.338%" y2="67.662%" id="e"><stop stop-color="#E7DBD0" offset="0%"/><stop stop-color="#EADED2" offset="100%"/></linearGradient><linearGradient x1="48.264%" y1="0%" x2="51.736%" y2="100%" id="f"><stop stop-color="#DFD0C3" offset="0%"/><stop stop-color="#E9DED2" offset="100%"/></linearGradient><linearGradient x1="40.816%" y1="0%" x2="59.184%" y2="100%" id="g"><stop stop-color="#DFD0C4" offset="0%"/><stop stop-color="#E3D5CA" offset="100%"/></linearGradient><linearGradient x1="0%" y1="20.414%" y2="79.586%" id="h"><stop stop-color="#E6D9CE" offset="0%"/><stop stop-color="#E6D9CE" offset="100%"/></linearGradient><linearGradient x1="0%" y1="26.681%" y2="73.319%" id="i"><stop stop-color="#DBCABD" offset="0%"/><stop stop-color="#DFCFC3" offset="100%"/></linearGradient><linearGradient x1="26.202%" y1="0%" x2="73.798%" y2="100%" id="j"><stop stop-color="#DDCDC0" offset="0%"/><stop stop-color="#E5D7CB" offset="100%"/></linearGradient><linearGradient x1="0%" y1="31.531%" y2="68.469%" id="k"><stop stop-color="#F9E7C6" offset="0%"/><stop stop-color="#F8EAD0" offset="100%"/></linearGradient><linearGradient x1="27.01%" y1="0%" x2="72.99%" y2="100%" id="l"><stop stop-color="#F4E8D5" offset="0%"/><stop stop-color="#F7E8CE" offset="100%"/></linearGradient><linearGradient x1="0%" y1="7.336%" y2="92.664%" id="m"><stop stop-color="#F2E7D4" offset="0%"/><stop stop-color="#F4E6CE" offset="100%"/></linearGradient><linearGradient x1="17.339%" y1="0%" x2="82.661%" y2="100%" id="n"><stop stop-color="#F4E7D2" offset="0%"/><stop stop-color="#F8E5C4" offset="100%"/></linearGradient><linearGradient x1="0%" y1="41.772%" y2="58.228%" id="o"><stop stop-color="#EBDFD4" offset="0%"/><stop stop-color="#ECE1D6" offset="100%"/></linearGradient><linearGradient x1="8.164%" y1="0%" x2="91.836%" y2="100%" id="p"><stop stop-color="#EBE0D5" offset="0%"/><stop stop-color="#EDE3D7" offset="100%"/></linearGradient><linearGradient x1="0%" y1="19.822%" y2="80.178%" id="q"><stop stop-color="#EDE2D5" offset="0%"/><stop stop-color="#EFE5D8" offset="100%"/></linearGradient><linearGradient x1="32.107%" y1="0%" x2="67.893%" y2="100%" id="r"><stop stop-color="#EEE5D8" offset="0%"/><stop stop-color="#F0E7DA" offset="100%"/></linearGradient><linearGradient x1="0%" y1="7.954%" y2="92.046%" id="s"><stop stop-color="#EFE5DA" offset="0%"/><stop stop-color="#F2E7DA" offset="100%"/></linearGradient><linearGradient x1="3.161%" y1="0%" x2="96.839%" y2="100%" id="t"><stop stop-color="#F3E9D9" offset="0%"/><stop stop-color="#F5EBDA" offset="100%"/></linearGradient><linearGradient x1="49.955%" y1="0%" x2="50.045%" y2="100%" id="u"><stop stop-color="#E5D7C9" offset="0%"/><stop stop-color="#F4E8D6" offset="100%"/></linearGradient><linearGradient x1="49.787%" y1="0%" x2="50.213%" y2="100%" id="v"><stop stop-color="#E1D2C6" offset="0%"/><stop stop-color="#EEE3D7" offset="100%"/></linearGradient><linearGradient x1="42.458%" y1="0%" x2="57.542%" y2="100%" id="w"><stop stop-color="#F7EBD7" offset="0%"/><stop stop-color="#F6EAD5" offset="100%"/></linearGradient><linearGradient x1="8.883%" y1="0%" x2="91.117%" y2="100%" id="x"><stop stop-color="#EEE2D3" offset="0%"/><stop stop-color="#F1E5D4" offset="100%"/></linearGradient><linearGradient x1="38.563%" y1="0%" x2="61.437%" y2="100%" id="y"><stop stop-color="#EDE2D3" offset="0%"/><stop stop-color="#F0E5D4" offset="100%"/></linearGradient><linearGradient x1="42.304%" y1="0%" x2="57.696%" y2="100%" id="z"><stop stop-color="#F4E6D2" offset="0%"/><stop stop-color="#F5E6CC" offset="100%"/></linearGradient><linearGradient x1="30.54%" y1="0%" x2="69.46%" y2="100%" id="A"><stop stop-color="#F3E7D3" offset="0%"/><stop stop-color="#F5E6CC" offset="100%"/></linearGradient><linearGradient x1="0%" y1="45.705%" y2="54.295%" id="B"><stop stop-color="#F8DDAB" offset="0%"/><stop stop-color="#F8DEAC" offset="100%"/></linearGradient><linearGradient x1="0%" y1="48.329%" y2="51.671%" id="C"><stop stop-color="#F8DDAA" offset="0%"/><stop stop-color="#F8DCA8" offset="100%"/></linearGradient><linearGradient x1="0%" y1="49.971%" y2="50.029%" id="D"><stop stop-color="#F8E0B4" offset="0%"/><stop stop-color="#F8E2BA" offset="100%"/></linearGradient><linearGradient x1="0%" y1="14.111%" y2="85.889%" id="E"><stop stop-color="#F8DEAC" offset="0%"/><stop stop-color="#F8DDAA" offset="100%"/></linearGradient><linearGradient x1="14.37%" y1="0%" x2="85.63%" y2="100%" id="F"><stop stop-color="#F8DDAA" offset="0%"/><stop stop-color="#F8DCA6" offset="100%"/></linearGradient><linearGradient x1="49.871%" y1="0%" x2="50.129%" y2="100%" id="G"><stop stop-color="#F8DEAA" offset="0%"/><stop stop-color="#F8DBA4" offset="100%"/></linearGradient><linearGradient x1="21.437%" y1="0%" x2="78.563%" y2="100%" id="H"><stop stop-color="#F8DCA5" offset="0%"/><stop stop-color="#F8DAA1" offset="100%"/></linearGradient><linearGradient x1="0%" y1="49.993%" y2="50.007%" id="I"><stop stop-color="#F8DFAF" offset="0%"/><stop stop-color="#F8E1B4" offset="100%"/></linearGradient><linearGradient x1="0%" y1="49.838%" y2="50.162%" id="J"><stop stop-color="#F8DBA4" offset="0%"/><stop stop-color="#F8DBA4" offset="100%"/></linearGradient><linearGradient x1="34.386%" y1="0%" x2="65.614%" y2="100%" id="K"><stop stop-color="#F8DDAA" offset="0%"/><stop stop-color="#F8DCA7" offset="100%"/></linearGradient><linearGradient x1="0%" y1="34.914%" y2="65.086%" id="L"><stop stop-color="#F8DCAA" offset="0%"/><stop stop-color="#F8DCA8" offset="100%"/></linearGradient><linearGradient x1="0%" y1="4.676%" y2="95.324%" id="M"><stop stop-color="#F8E4BE" offset="0%"/><stop stop-color="#F9E3BA" offset="100%"/></linearGradient><linearGradient x1="0%" y1="33.309%" y2="66.691%" id="N"><stop stop-color="#F9E3BA" offset="0%"/><stop stop-color="#F8E0B3" offset="100%"/></linearGradient><linearGradient x1="0%" y1="18.992%" y2="81.008%" id="O"><stop stop-color="#F8DEAC" offset="0%"/><stop stop-color="#F8DEAF" offset="100%"/></linearGradient><linearGradient x1="15.673%" y1="0%" x2="84.327%" y2="100%" id="P"><stop stop-color="#F8DEAD" offset="0%"/><stop stop-color="#F8DFB1" offset="100%"/></linearGradient><linearGradient x1="45.835%" y1="0%" x2="54.165%" y2="100%" id="Q"><stop stop-color="#F7E5C3" offset="0%"/><stop stop-color="#F5E2C1" offset="100%"/></linearGradient><linearGradient x1="49.835%" y1="0%" x2="50.165%" y2="100%" id="R"><stop stop-color="#E7D8C7" offset="0%"/><stop stop-color="#F3E2C4" offset="100%"/></linearGradient><linearGradient x1="47.011%" y1="0%" x2="52.989%" y2="100%" id="S"><stop stop-color="#E2D3C5" offset="0%"/><stop stop-color="#E8DBCC" offset="100%"/></linearGradient><linearGradient x1="0%" y1="38.789%" y2="61.211%" id="T"><stop stop-color="#EEE2D3" offset="0%"/><stop stop-color="#F0E4D3" offset="100%"/></linearGradient><linearGradient x1="43.54%" y1="0%" x2="56.46%" y2="100%" id="U"><stop stop-color="#F3E6D1" offset="0%"/><stop stop-color="#F4E5CB" offset="100%"/></linearGradient><linearGradient x1="0%" y1="24.89%" y2="75.11%" id="V"><stop stop-color="#E4D7CA" offset="0%"/><stop stop-color="#E7DACD" offset="100%"/></linearGradient><linearGradient x1="43.462%" y1="0%" x2="56.538%" y2="100%" id="W"><stop stop-color="#E6D9CC" offset="0%"/><stop stop-color="#EBDFD0" offset="100%"/></linearGradient><linearGradient x1="0%" y1="0%" y2="100%" id="X"><stop stop-color="#E7DACF" offset="0%"/><stop stop-color="#EADDD1" offset="100%"/></linearGradient><linearGradient x1="0%" y1="23.224%" y2="76.776%" id="Y"><stop stop-color="#ECE0D3" offset="0%"/><stop stop-color="#ECE0D1" offset="100%"/></linearGradient><linearGradient x1="0%" y1="19.726%" y2="80.274%" id="Z"><stop stop-color="#DFCFC3" offset="0%"/><stop stop-color="#E2D4C7" offset="100%"/></linearGradient><linearGradient x1="0%" y1="1.949%" y2="98.051%" id="aa"><stop stop-color="#E3D5C8" offset="0%"/><stop stop-color="#E2D5C8" offset="100%"/></linearGradient><linearGradient x1="4.165%" y1="0%" x2="95.835%" y2="100%" id="ab"><stop stop-color="#DECEC1" offset="0%"/><stop stop-color="#E0D2C4" offset="100%"/></linearGradient><linearGradient x1="0%" y1="46.132%" y2="53.868%" id="ac"><stop stop-color="#DDCEC1" offset="0%"/><stop stop-color="#DBCBBD" offset="100%"/></linearGradient><linearGradient x1="0%" y1="47.536%" y2="52.464%" id="ad"><stop stop-color="#DDCCBE" offset="0%"/><stop stop-color="#DCCCBE" offset="100%"/></linearGradient><linearGradient x1="0%" y1="49.95%" y2="50.05%" id="ae"><stop stop-color="#DBCABC" offset="0%"/><stop stop-color="#D8C6B8" offset="100%"/></linearGradient><linearGradient x1="0%" y1="44.237%" y2="55.763%" id="af"><stop stop-color="#D7C6B7" offset="0%"/><stop stop-color="#DAC9BC" offset="100%"/></linearGradient><linearGradient x1="0%" y1="25.455%" y2="74.545%" id="ag"><stop stop-color="#F8E3BC" offset="0%"/><stop stop-color="#F8E0B3" offset="100%"/></linearGradient><linearGradient x1="30.222%" y1="0%" x2="69.778%" y2="100%" id="ah"><stop stop-color="#F8E3BD" offset="0%"/><stop stop-color="#F8E1B6" offset="100%"/></linearGradient><linearGradient x1="0%" y1="10.605%" y2="89.395%" id="ai"><stop stop-color="#F8DFAF" offset="0%"/><stop stop-color="#F8DFB0" offset="100%"/></linearGradient><linearGradient x1="7.133%" y1="0%" x2="92.867%" y2="100%" id="aj"><stop stop-color="#F9E0B3" offset="0%"/><stop stop-color="#F8DFB0" offset="100%"/></linearGradient><linearGradient x1="44.132%" y1="0%" x2="55.868%" y2="100%" id="ak"><stop stop-color="#F8DFAD" offset="0%"/><stop stop-color="#F8DFAF" offset="100%"/></linearGradient></defs><g fill="none" fill-rule="evenodd"><g fill-opacity=".57"><path d="M1174 324l78-124 15 588-93-464z" id="triangle36" fill="url(#a)"/><path d="M4 789l1263-1-1196-2-67 3z" id="triangle36" fill="url(#b)"/><path d="M4 789l67-3 43-285L4 789z" id="triangle36" fill="url(#c)"/><path d="M541 367l155-6 40 150-195-144z" id="triangle36" fill="url(#d)"/><path d="M352 399l189-32-54 318-135-286z" id="triangle36" fill="url(#e)"/><path d="M71 786l542-50-126-51L71 786z" id="triangle36" fill="url(#f)"/><path d="M114 501l238-102-85 100-153 2z" id="triangle36" fill="url(#g)"/><path d="M352 399l135 286-220-186 85-100z" id="triangle36" fill="url(#h)"/><path d="M71 786l43-285 153-2L71 786z" id="triangle36" fill="url(#i)"/><path d="M71 786l416-101-220-186L71 786z" id="triangle36" fill="url(#j)"/><path d="M1174 324l93 464-282-167 189-297z" id="triangle36" fill="url(#k)"/><path d="M736 511l438-187-189 297-249-110z" id="triangle36" fill="url(#l)"/><path d="M696 361l40 150 287-354-327 204z" id="triangle36" fill="url(#m)"/><path d="M736 511l438-187-151-167-287 354z" id="triangle36" fill="url(#n)"/><path d="M487 685l54-318 75 251-129 67z" id="triangle36" fill="url(#o)"/><path d="M487 685l126 51 3-118-129 67z" id="triangle36" fill="url(#p)"/><path d="M541 367l195 144-120 107-75-251z" id="triangle36" fill="url(#q)"/><path d="M613 736l3-118 221 134-224-16z" id="triangle36" fill="url(#r)"/><path d="M616 618l120-107 101 241-221-134z" id="triangle36" fill="url(#s)"/><path d="M736 511l249 110-148 131-101-241z" id="triangle36" fill="url(#t)"/><path d="M71 786l1196 2-430-36-766 34z" id="triangle36" fill="url(#u)"/><path d="M71 786l542-50 224 16-766 34z" id="triangle36" fill="url(#v)"/><path d="M985 621l282 167-430-36 148-131z" id="triangle36" fill="url(#w)"/><path d="M541 367l143-146 18 69-161 77z" id="triangle36" fill="url(#x)"/><path d="M541 367l155-6 6-71-161 77z" id="triangle36" fill="url(#y)"/><path d="M684 221l339-64-321 133-18-69z" id="triangle36" fill="url(#z)"/><path d="M696 361l327-204-321 133-6 71z" id="triangle36" fill="url(#A)"/><path d="M1245 142l7 58 10-36-17-22z" id="triangle36" fill="url(#B)"/><path d="M1245 142l17-71v93l-17-22z" id="triangle36" fill="url(#C)"/><path d="M1252 200l15 588-5-624-10 36z" id="triangle36" fill="url(#D)"/><path d="M1133 0l61 72-9-65-52-7z" id="triangle36" fill="url(#E)"/><path d="M1194 72l68-1-77-64 9 65z" id="triangle36" fill="url(#F)"/><path d="M1133 0l52 7 86-1-138-6z" id="triangle36" fill="url(#G)"/><path d="M1185 7l77 64 9-65-86 1z" id="triangle36" fill="url(#H)"/><path d="M1262 164l5 624 4-782-9 158z" id="triangle36" fill="url(#I)"/><path d="M1262 71v93l9-158-9 65z" id="triangle36" fill="url(#J)"/><path d="M1194 72l68-1-39 38-29-37z" id="triangle36" fill="url(#K)"/><path d="M1245 142l17-71-39 38 22 33z" id="triangle36" fill="url(#L)"/><path d="M1023 157l151 167 8-135-159-32z" id="triangle36" fill="url(#M)"/><path d="M1174 324l78-124-70-11-8 135z" id="triangle36" fill="url(#N)"/><path d="M1223 109l22 33-63 47 41-80z" id="triangle36" fill="url(#O)"/><path d="M1245 142l7 58-70-11 63-47z" id="triangle36" fill="url(#P)"/><path d="M1023 157L1133 0 589 65l434 92z" id="triangle36" fill="url(#Q)"/><path d="M0 1l1133-1-544 65L0 1z" id="triangle36" fill="url(#R)"/><path d="M0 1l188 144 401-80L0 1z" id="triangle36" fill="url(#S)"/><path d="M541 367l143-146-95-156-48 302z" id="triangle36" fill="url(#T)"/><path d="M684 221l339-64-434-92 95 156z" id="triangle36" fill="url(#U)"/><path d="M188 145l164 254 16-189-180-65z" id="triangle36" fill="url(#V)"/><path d="M188 145l401-80-221 145-180-65z" id="triangle36" fill="url(#W)"/><path d="M352 399l189-32-173-157-16 189z" id="triangle36" fill="url(#X)"/><path d="M541 367l48-302-221 145 173 157z" id="triangle36" fill="url(#Y)"/><path d="M114 501l238-102-249-218 11 320z" id="triangle36" fill="url(#Z)"/><path d="M188 145l164 254-249-218 85-36z" id="triangle36" fill="url(#aa)"/><path d="M0 1l188 144-85 36L0 1z" id="triangle36" fill="url(#ab)"/><path d="M103 181l11 320-89-36 78-284z" id="triangle36" fill="url(#ac)"/><path d="M0 1l103 180-78 284L0 1z" id="triangle36" fill="url(#ad)"/><path d="M0 1l4 788 21-324L0 1z" id="triangle36" fill="url(#ae)"/><path d="M4 789l110-288-89-36L4 789z" id="triangle36" fill="url(#af)"/><path d="M1023 157L1133 0l-18 89-92 68z" id="triangle36" fill="url(#ag)"/><path d="M1023 157l159 32-67-100-92 68z" id="triangle36" fill="url(#ah)"/><path d="M1133 0l61 72-79 17 18-89z" id="triangle36" fill="url(#ai)"/><path d="M1182 189l41-80-108-20 67 100z" id="triangle36" fill="url(#aj)"/><path d="M1194 72l29 37-108-20 79-17z" fill="url(#ak)"/></g></g></svg>