<svg width="1278" height="798" viewBox="0 0 1278 798" xmlns="http://www.w3.org/2000/svg"><title>gradient-grey-tint-poly</title><desc>Created with Sketch.</desc><defs><linearGradient x1="0%" y1="25.827%" y2="74.173%" id="a"><stop stop-color="#DFDEDA" offset="0%"/><stop stop-color="#E7E4DE" offset="100%"/></linearGradient><linearGradient x1="16.598%" y1="0%" x2="83.402%" y2="100%" id="b"><stop stop-color="#E0DFDB" offset="0%"/><stop stop-color="#E7E6E1" offset="100%"/></linearGradient><linearGradient x1="48.325%" y1="0%" x2="51.675%" y2="100%" id="c"><stop stop-color="#DDDCDA" offset="0%"/><stop stop-color="#E0DFDE" offset="100%"/></linearGradient><linearGradient x1="18.506%" y1="0%" x2="81.494%" y2="100%" id="d"><stop stop-color="#E6E2D9" offset="0%"/><stop stop-color="#E3E0D9" offset="100%"/></linearGradient><linearGradient x1="0%" y1="46.191%" y2="53.809%" id="e"><stop stop-color="#E1DED8" offset="0%"/><stop stop-color="#E2E0D9" offset="100%"/></linearGradient><linearGradient x1="0%" y1="19.074%" y2="80.926%" id="f"><stop stop-color="#E1DED9" offset="0%"/><stop stop-color="#E0DFDA" offset="100%"/></linearGradient><linearGradient x1="0%" y1="15.278%" y2="84.722%" id="g"><stop stop-color="#EDE9E2" offset="0%"/><stop stop-color="#E9E6DF" offset="100%"/></linearGradient><linearGradient x1="30.49%" y1="0%" x2="69.51%" y2="100%" id="h"><stop stop-color="#E8E3DA" offset="0%"/><stop stop-color="#E7E3DA" offset="100%"/></linearGradient><linearGradient x1="0%" y1="27.014%" y2="72.986%" id="i"><stop stop-color="#DDDCD8" offset="0%"/><stop stop-color="#D0CFCE" offset="100%"/></linearGradient><linearGradient x1="49.145%" y1="0%" x2="50.855%" y2="100%" id="j"><stop stop-color="#D8D7D6" offset="0%"/><stop stop-color="#D2D1D0" offset="100%"/></linearGradient><linearGradient x1="49.999%" y1="0%" x2="50.001%" y2="100%" id="k"><stop stop-color="#C8C8C7" offset="0%"/><stop stop-color="#CFCECE" offset="100%"/></linearGradient><linearGradient x1="49.211%" y1="0%" x2="50.789%" y2="100%" id="l"><stop stop-color="#DADAD9" offset="0%"/><stop stop-color="#D2D2D1" offset="100%"/></linearGradient><linearGradient x1="0%" y1="46.875%" y2="53.125%" id="m"><stop stop-color="#DFDCD5" offset="0%"/><stop stop-color="#E2DFD7" offset="100%"/></linearGradient><linearGradient x1="0%" y1="2.693%" y2="97.307%" id="n"><stop stop-color="#ECE8DF" offset="0%"/><stop stop-color="#E9E5DA" offset="100%"/></linearGradient><linearGradient x1="14.733%" y1="0%" x2="85.267%" y2="100%" id="o"><stop stop-color="#EAE5DA" offset="0%"/><stop stop-color="#E8E3DA" offset="100%"/></linearGradient><linearGradient x1="28.976%" y1="0%" x2="71.024%" y2="100%" id="p"><stop stop-color="#E1DED6" offset="0%"/><stop stop-color="#E6E2D9" offset="100%"/></linearGradient><linearGradient x1="0%" y1="41.424%" y2="58.576%" id="q"><stop stop-color="#DDDBD8" offset="0%"/><stop stop-color="#DCDAD7" offset="100%"/></linearGradient><linearGradient x1="29.736%" y1="0%" x2="70.264%" y2="100%" id="r"><stop stop-color="#DADAD8" offset="0%"/><stop stop-color="#D1D0CF" offset="100%"/></linearGradient><linearGradient x1="24.9%" y1="0%" x2="75.1%" y2="100%" id="s"><stop stop-color="#DFDFDC" offset="0%"/><stop stop-color="#E0DFDC" offset="100%"/></linearGradient><linearGradient x1="19.107%" y1="0%" x2="80.893%" y2="100%" id="t"><stop stop-color="#E3E2DE" offset="0%"/><stop stop-color="#E0DFDB" offset="100%"/></linearGradient><linearGradient x1="21.755%" y1="0%" x2="78.245%" y2="100%" id="u"><stop stop-color="#E2E0DB" offset="0%"/><stop stop-color="#DDDCD8" offset="100%"/></linearGradient><linearGradient x1="0%" y1="7.852%" y2="92.148%" id="v"><stop stop-color="#E8E6E2" offset="0%"/><stop stop-color="#EAE7DF" offset="100%"/></linearGradient><linearGradient x1="17.283%" y1="0%" x2="82.717%" y2="100%" id="w"><stop stop-color="#E5E4E2" offset="0%"/><stop stop-color="#E4E3DF" offset="100%"/></linearGradient><linearGradient x1="40.15%" y1="0%" x2="59.85%" y2="100%" id="x"><stop stop-color="#E9E5DB" offset="0%"/><stop stop-color="#E7E4DE" offset="100%"/></linearGradient><linearGradient x1="8.559%" y1="0%" x2="91.441%" y2="100%" id="y"><stop stop-color="#E1E0DE" offset="0%"/><stop stop-color="#E4E3DF" offset="100%"/></linearGradient><linearGradient x1="0%" y1="33.955%" y2="66.045%" id="z"><stop stop-color="#E1E1DE" offset="0%"/><stop stop-color="#E6E4E0" offset="100%"/></linearGradient><linearGradient x1="0%" y1="7.396%" y2="92.604%" id="A"><stop stop-color="#E5E4E0" offset="0%"/><stop stop-color="#E6E4DF" offset="100%"/></linearGradient><linearGradient x1="19.528%" y1="0%" x2="80.472%" y2="100%" id="B"><stop stop-color="#DEDBD4" offset="0%"/><stop stop-color="#DEDBD4" offset="100%"/></linearGradient><linearGradient x1="18.363%" y1="0%" x2="81.637%" y2="100%" id="C"><stop stop-color="#E4E0D8" offset="0%"/><stop stop-color="#DCD9D3" offset="100%"/></linearGradient><linearGradient x1="38.015%" y1="0%" x2="61.985%" y2="100%" id="D"><stop stop-color="#DAD7D2" offset="0%"/><stop stop-color="#CDCCC9" offset="100%"/></linearGradient><linearGradient x1="0%" y1="27.097%" y2="72.903%" id="E"><stop stop-color="#E6E3DD" offset="0%"/><stop stop-color="#E8E4DD" offset="100%"/></linearGradient><linearGradient x1="1.587%" y1="0%" x2="98.413%" y2="100%" id="F"><stop stop-color="#E4E0D9" offset="0%"/><stop stop-color="#E4E0D8" offset="100%"/></linearGradient><linearGradient x1="0%" y1="28.351%" y2="71.649%" id="G"><stop stop-color="#E6E2DA" offset="0%"/><stop stop-color="#E9E5DD" offset="100%"/></linearGradient><linearGradient x1="35.255%" y1="0%" x2="64.745%" y2="100%" id="H"><stop stop-color="#E3DFD7" offset="0%"/><stop stop-color="#E6E2D9" offset="100%"/></linearGradient><linearGradient x1="0%" y1="43.456%" y2="56.544%" id="I"><stop stop-color="#EBE7DE" offset="0%"/><stop stop-color="#E7E3DA" offset="100%"/></linearGradient><linearGradient x1="5.158%" y1="0%" x2="94.842%" y2="100%" id="J"><stop stop-color="#E0DCD5" offset="0%"/><stop stop-color="#DEDBD4" offset="100%"/></linearGradient><linearGradient x1="39.429%" y1="0%" x2="60.571%" y2="100%" id="K"><stop stop-color="#E3DFD7" offset="0%"/><stop stop-color="#DCD9D2" offset="100%"/></linearGradient><linearGradient x1="49.738%" y1="0%" x2="50.262%" y2="100%" id="L"><stop stop-color="#DDDAD3" offset="0%"/><stop stop-color="#DAD8D2" offset="100%"/></linearGradient><linearGradient x1="49.79%" y1="0%" x2="50.21%" y2="100%" id="M"><stop stop-color="#DCD9D3" offset="0%"/><stop stop-color="#D7D5CF" offset="100%"/></linearGradient><linearGradient x1="32.945%" y1="0%" x2="67.055%" y2="100%" id="N"><stop stop-color="#DBD8D2" offset="0%"/><stop stop-color="#D1CFCB" offset="100%"/></linearGradient><linearGradient x1="49.997%" y1="0%" x2="50.003%" y2="100%" id="O"><stop stop-color="#CAC9C7" offset="0%"/><stop stop-color="#CFCECA" offset="100%"/></linearGradient><linearGradient x1="49.968%" y1="0%" x2="50.032%" y2="100%" id="P"><stop stop-color="#D7D5CF" offset="0%"/><stop stop-color="#D1CFCB" offset="100%"/></linearGradient><linearGradient x1="0%" y1="38.157%" y2="61.843%" id="Q"><stop stop-color="#E3E1DB" offset="0%"/><stop stop-color="#E2DFD9" offset="100%"/></linearGradient><linearGradient x1="0%" y1="49.841%" y2="50.159%" id="R"><stop stop-color="#CECDCB" offset="0%"/><stop stop-color="#D3D2CF" offset="100%"/></linearGradient><linearGradient x1="0%" y1="48.98%" y2="51.02%" id="S"><stop stop-color="#C7C7C6" offset="0%"/><stop stop-color="#CFCECC" offset="100%"/></linearGradient><linearGradient x1="0%" y1="39.417%" y2="60.583%" id="T"><stop stop-color="#CECCCB" offset="0%"/><stop stop-color="#DEDCD8" offset="100%"/></linearGradient><linearGradient x1="0%" y1="47.94%" y2="52.06%" id="U"><stop stop-color="#DDDBD7" offset="0%"/><stop stop-color="#DBD9D5" offset="100%"/></linearGradient><linearGradient x1="21.822%" y1="0%" x2="78.178%" y2="100%" id="V"><stop stop-color="#DBD8D3" offset="0%"/><stop stop-color="#D0CECC" offset="100%"/></linearGradient><linearGradient x1="43.762%" y1="0%" x2="56.238%" y2="100%" id="W"><stop stop-color="#E0DCD6" offset="0%"/><stop stop-color="#DEDBD6" offset="100%"/></linearGradient><linearGradient x1="0%" y1="19.888%" y2="80.112%" id="X"><stop stop-color="#DFDDD7" offset="0%"/><stop stop-color="#DCDAD6" offset="100%"/></linearGradient><linearGradient x1="16.045%" y1="0%" x2="83.955%" y2="100%" id="Y"><stop stop-color="#DBDAD7" offset="0%"/><stop stop-color="#D9D8D5" offset="100%"/></linearGradient><linearGradient x1="0%" y1="38.639%" y2="61.361%" id="Z"><stop stop-color="#D8D7D5" offset="0%"/><stop stop-color="#CECECC" offset="100%"/></linearGradient><linearGradient x1="0%" y1="40.43%" y2="59.57%" id="aa"><stop stop-color="#DAD8D4" offset="0%"/><stop stop-color="#D9D8D4" offset="100%"/></linearGradient><linearGradient x1="0%" y1="46.189%" y2="53.811%" id="ab"><stop stop-color="#D7D6D2" offset="0%"/><stop stop-color="#CECECB" offset="100%"/></linearGradient><linearGradient x1="0%" y1="49.89%" y2="50.11%" id="ac"><stop stop-color="#CBCAC9" offset="0%"/><stop stop-color="#CECECC" offset="100%"/></linearGradient><linearGradient x1="18.514%" y1="0%" x2="81.486%" y2="100%" id="ad"><stop stop-color="#E2DED7" offset="0%"/><stop stop-color="#DFDCD5" offset="100%"/></linearGradient><linearGradient x1="0%" y1="47.942%" y2="52.058%" id="ae"><stop stop-color="#CDCCC9" offset="0%"/><stop stop-color="#DCDAD4" offset="100%"/></linearGradient><linearGradient x1="0%" y1="39.514%" y2="60.486%" id="af"><stop stop-color="#C7C6C4" offset="0%"/><stop stop-color="#D0CECB" offset="100%"/></linearGradient><linearGradient x1="0%" y1="38.679%" y2="61.321%" id="ag"><stop stop-color="#E0DDD7" offset="0%"/><stop stop-color="#E1DDD7" offset="100%"/></linearGradient><linearGradient x1="0%" y1="10.063%" y2="89.937%" id="ah"><stop stop-color="#CFCECA" offset="0%"/><stop stop-color="#DCD9D3" offset="100%"/></linearGradient></defs><g fill="none" fill-rule="evenodd"><path d="M182 715l143-256-178 73 35 183z" id="triangle36" fill="url(#a)"/><path d="M182 715l143-256 180 264-323-8z" id="triangle36" fill="url(#b)"/><path d="M182 715l323 8 125 74-448-82z" id="triangle36" fill="url(#c)"/><path d="M660 212l264-22 51 250-315-228z" id="triangle36" fill="url(#d)"/><path d="M924 190l69 77-18 173-51-250z" id="triangle36" fill="url(#e)"/><path d="M993 267l133 192-151-19 18-173z" id="triangle36" fill="url(#f)"/><path d="M325 459l180 264 105-342-285 78z" id="triangle36" fill="url(#g)"/><path d="M660 212l315 228-365-59 50-169z" id="triangle36" fill="url(#h)"/><path d="M147 532l35 183L3 796l144-264z" id="triangle36" fill="url(#i)"/><path d="M182 715l448 82-627-1 179-81z" id="triangle36" fill="url(#j)"/><path d="M0 798l630-1-627-1-3 2z" id="triangle36" fill="url(#k)"/><path d="M630 797l645-6-366-75-279 81z" id="triangle36" fill="url(#l)"/><path d="M624 40l36 172-43-166 7-6z" id="triangle36" fill="url(#m)"/><path d="M325 459l285-78-206-215-79 293z" id="triangle36" fill="url(#n)"/><path d="M610 381l50-169-256-46 206 215z" id="triangle36" fill="url(#o)"/><path d="M617 46l43 166-256-46L617 46z" id="triangle36" fill="url(#p)"/><path d="M1126 459l41 10-35 89-6-99z" id="triangle36" fill="url(#q)"/><path d="M909 716l366 75-143-233-223 158z" id="triangle36" fill="url(#r)"/><path d="M909 716l8-107 215-51-223 158z" id="triangle36" fill="url(#s)"/><path d="M917 609l58-169 157 118-215 51z" id="triangle36" fill="url(#t)"/><path d="M975 440l151 19 6 99-157-118z" id="triangle36" fill="url(#u)"/><path d="M505 723l105-342 209 162-314 180z" id="triangle36" fill="url(#v)"/><path d="M505 723l125 74 189-254-314 180z" id="triangle36" fill="url(#w)"/><path d="M610 381l365 59-156 103-209-162z" id="triangle36" fill="url(#x)"/><path d="M630 797l279-81-90-173-189 254z" id="triangle36" fill="url(#y)"/><path d="M909 716l8-107-98-66 90 173z" id="triangle36" fill="url(#z)"/><path d="M917 609l58-169-156 103 98 66z" id="triangle36" fill="url(#A)"/><path d="M624 40l36 172L892.92.063 624 40z" id="triangle36" fill="url(#B)"/><path d="M660 212l264-22L892.987.02 660 212z" id="triangle36" fill="url(#C)"/><path d="M923.97 189.956L1277.622 0H893l30.97 189.956z" id="triangle36" fill="url(#D)"/><path d="M147 532l178-73-152-190-26 263z" id="triangle36" fill="url(#E)"/><path d="M173 269l80-123 45 82-125 41z" id="triangle36" fill="url(#F)"/><path d="M173 269l152 190-27-231-125 41z" id="triangle36" fill="url(#G)"/><path d="M253 146l151 20-106 62-45-82z" id="triangle36" fill="url(#H)"/><path d="M325 459l79-293-106 62 27 231z" id="triangle36" fill="url(#I)"/><path d="M253 146l151 20-98-143-53 123z" id="triangle36" fill="url(#J)"/><path d="M404 166L617 46 306 23l98 143z" id="triangle36" fill="url(#K)"/><path d="M617 46l7-6-318-17 311 23z" id="triangle36" fill="url(#L)"/><path d="M624 40L892.915.055 306 23l318 17z" id="triangle36" fill="url(#M)"/><path d="M253 146l53-123L68 7l185 139z" id="triangle36" fill="url(#N)"/><path d="M0 0h892.952L68 7 0 0z" id="triangle36" fill="url(#O)"/><path d="M306 23L893.02.043 68 7l238 16z" id="triangle36" fill="url(#P)"/><path d="M147 532l26-263L45 483l102 49z" id="triangle36" fill="url(#Q)"/><path d="M0 798V0l45 483L0 798z" id="triangle36" fill="url(#R)"/><path d="M0 798l3-2 42-313L0 798z" id="triangle36" fill="url(#S)"/><path d="M3 796l144-264-102-49L3 796z" id="triangle36" fill="url(#T)"/><path d="M1126 459l41 10-25-202-16 192z" id="triangle36" fill="url(#U)"/><path d="M924.058 189.95L1277.623 0 1141.88 266.936 924.06 189.95z" id="triangle36" fill="url(#V)"/><path d="M924 190l69 77h149l-218-77z" id="triangle36" fill="url(#W)"/><path d="M993 267l133 192 16-192H993z" id="triangle36" fill="url(#X)"/><path d="M1132 558l35-89 73 22-108 67z" id="triangle36" fill="url(#Y)"/><path d="M1132 558l143 233-35-300-108 67z" id="triangle36" fill="url(#Z)"/><path d="M1142 267l25 202 73 22-98-224z" id="triangle36" fill="url(#aa)"/><path d="M1141.793 267.1L1277.623 0l-37.06 490.24-98.77-223.14z" id="triangle36" fill="url(#ab)"/><path d="M1275.62 791l2.003-791-37.06 490.24L1275.62 791z" id="triangle36" fill="url(#ac)"/><path d="M173 269l80-123-155 68 75 55z" id="triangle36" fill="url(#ad)"/><path d="M0 0l45 483 53-269L0 0z" id="triangle36" fill="url(#ae)"/><path d="M0 0l68 7 30 207L0 0z" id="triangle36" fill="url(#af)"/><path d="M45 483l128-214-75-55-53 269z" fill="url(#ag)"/><path d="M68 7l185 139-155 68L68 7z" fill="url(#ah)"/></g></svg>