<?xml version="1.0" encoding="UTF-8" standalone="no"?>
<svg width="1275px" height="790px" viewBox="0 0 1275 790" version="1.1" xmlns="http://www.w3.org/2000/svg" xmlns:xlink="http://www.w3.org/1999/xlink" xmlns:sketch="http://www.bohemiancoding.com/sketch/ns">
    <!-- Generator: Sketch 3.0.4 (8054) - http://www.bohemiancoding.com/sketch -->
    <title>Slice 1</title>
    <desc>Created with Sketch.</desc>
    <defs>
        <linearGradient x1="39.8308343%" y1="0%" x2="60.1691657%" y2="100%" id="linearGradient-1">
            <stop stop-color="#F2EDE9" offset="0%"></stop>
            <stop stop-color="#F3EEE8" offset="100%"></stop>
        </linearGradient>
        <linearGradient x1="32.3730469%" y1="0%" x2="67.6269531%" y2="100%" id="linearGradient-2">
            <stop stop-color="#F2EEE8" offset="0%"></stop>
            <stop stop-color="#F3EEE4" offset="100%"></stop>
        </linearGradient>
        <linearGradient x1="33.0210652%" y1="0%" x2="66.9789348%" y2="100%" id="linearGradient-3">
            <stop stop-color="#F2EEEA" offset="0%"></stop>
            <stop stop-color="#F2EDE7" offset="100%"></stop>
        </linearGradient>
        <linearGradient x1="42.8609929%" y1="0%" x2="57.1390071%" y2="100%" id="linearGradient-4">
            <stop stop-color="#F3ECE6" offset="0%"></stop>
            <stop stop-color="#F3EAE3" offset="100%"></stop>
        </linearGradient>
        <linearGradient x1="0%" y1="30.9642372%" x2="100%" y2="69.0357628%" id="linearGradient-5">
            <stop stop-color="#F3EAE7" offset="0%"></stop>
            <stop stop-color="#F3EBE8" offset="100%"></stop>
        </linearGradient>
        <linearGradient x1="0%" y1="49.5611434%" x2="100%" y2="50.4388566%" id="linearGradient-6">
            <stop stop-color="#F8CDF7" offset="0%"></stop>
            <stop stop-color="#F7D5F3" offset="100%"></stop>
        </linearGradient>
        <linearGradient x1="46.9157162%" y1="0%" x2="53.0842838%" y2="100%" id="linearGradient-7">
            <stop stop-color="#F4ECE8" offset="0%"></stop>
            <stop stop-color="#F3ECE5" offset="100%"></stop>
        </linearGradient>
        <linearGradient x1="19.242599%" y1="0%" x2="80.757401%" y2="100%" id="linearGradient-8">
            <stop stop-color="#F5EDE9" offset="0%"></stop>
            <stop stop-color="#F3EDE6" offset="100%"></stop>
        </linearGradient>
        <linearGradient x1="27.4497789%" y1="0%" x2="72.5502211%" y2="100%" id="linearGradient-9">
            <stop stop-color="#F3ECE5" offset="0%"></stop>
            <stop stop-color="#F3EBE0" offset="100%"></stop>
        </linearGradient>
        <linearGradient x1="15.1777858%" y1="0%" x2="84.8222142%" y2="100%" id="linearGradient-10">
            <stop stop-color="#F2EEE7" offset="0%"></stop>
            <stop stop-color="#F3EEE4" offset="100%"></stop>
        </linearGradient>
        <linearGradient x1="0%" y1="46.3078922%" x2="100%" y2="53.6921078%" id="linearGradient-11">
            <stop stop-color="#F3EDEA" offset="0%"></stop>
            <stop stop-color="#F2EEEA" offset="100%"></stop>
        </linearGradient>
        <linearGradient x1="35.5187635%" y1="0%" x2="64.4812365%" y2="100%" id="linearGradient-12">
            <stop stop-color="#F3E9E3" offset="0%"></stop>
            <stop stop-color="#F2E7DE" offset="100%"></stop>
        </linearGradient>
        <linearGradient x1="48.988113%" y1="0%" x2="51.011887%" y2="100%" id="linearGradient-13">
            <stop stop-color="#F4E8DA" offset="0%"></stop>
            <stop stop-color="#F7E9D8" offset="100%"></stop>
        </linearGradient>
        <linearGradient x1="6.74281574%" y1="0%" x2="93.2571843%" y2="100%" id="linearGradient-14">
            <stop stop-color="#F5DDF2" offset="0%"></stop>
            <stop stop-color="#F5DFF0" offset="100%"></stop>
        </linearGradient>
        <linearGradient x1="24.0376298%" y1="0%" x2="75.9623702%" y2="100%" id="linearGradient-15">
            <stop stop-color="#F4ECE9" offset="0%"></stop>
            <stop stop-color="#F3EBE7" offset="100%"></stop>
        </linearGradient>
        <linearGradient x1="38.4313411%" y1="0%" x2="61.5686589%" y2="100%" id="linearGradient-16">
            <stop stop-color="#F2E7EA" offset="0%"></stop>
            <stop stop-color="#F3E9E9" offset="100%"></stop>
        </linearGradient>
        <linearGradient x1="46.2157472%" y1="0%" x2="53.7842528%" y2="100%" id="linearGradient-17">
            <stop stop-color="#F6DCF1" offset="0%"></stop>
            <stop stop-color="#F5E1F0" offset="100%"></stop>
        </linearGradient>
        <linearGradient x1="38.2460973%" y1="0%" x2="61.7539027%" y2="100%" id="linearGradient-18">
            <stop stop-color="#F3E5EE" offset="0%"></stop>
            <stop stop-color="#F4E4EC" offset="100%"></stop>
        </linearGradient>
        <linearGradient x1="25.9189585%" y1="0%" x2="74.0810415%" y2="100%" id="linearGradient-19">
            <stop stop-color="#F3E8E7" offset="0%"></stop>
            <stop stop-color="#F3E3E8" offset="100%"></stop>
        </linearGradient>
        <linearGradient x1="42.9901378%" y1="0%" x2="57.0098622%" y2="100%" id="linearGradient-20">
            <stop stop-color="#F3EDE2" offset="0%"></stop>
            <stop stop-color="#F3EDE0" offset="100%"></stop>
        </linearGradient>
        <linearGradient x1="28.0811493%" y1="0%" x2="71.9188507%" y2="100%" id="linearGradient-21">
            <stop stop-color="#F3ECDF" offset="0%"></stop>
            <stop stop-color="#F3EBDC" offset="100%"></stop>
        </linearGradient>
        <linearGradient x1="49.9986738%" y1="0%" x2="50.0013262%" y2="100%" id="linearGradient-22">
            <stop stop-color="#F5E4E0" offset="0%"></stop>
            <stop stop-color="#F7DAE8" offset="100%"></stop>
        </linearGradient>
        <linearGradient x1="33.4173709%" y1="0%" x2="66.5826291%" y2="100%" id="linearGradient-23">
            <stop stop-color="#F3EEE3" offset="0%"></stop>
            <stop stop-color="#F5EEE1" offset="100%"></stop>
        </linearGradient>
        <linearGradient x1="44.5432079%" y1="0%" x2="55.4567921%" y2="100%" id="linearGradient-24">
            <stop stop-color="#F3EEE1" offset="0%"></stop>
            <stop stop-color="#F4EDDD" offset="100%"></stop>
        </linearGradient>
        <linearGradient x1="9.31096875%" y1="0%" x2="90.6890312%" y2="100%" id="linearGradient-25">
            <stop stop-color="#F4EDE2" offset="0%"></stop>
            <stop stop-color="#F4EEDF" offset="100%"></stop>
        </linearGradient>
        <linearGradient x1="43.52%" y1="0%" x2="56.48%" y2="100%" id="linearGradient-26">
            <stop stop-color="#F2E9E9" offset="0%"></stop>
            <stop stop-color="#F3E9E8" offset="100%"></stop>
        </linearGradient>
        <linearGradient x1="0%" y1="11.0406188%" x2="100%" y2="88.9593812%" id="linearGradient-27">
            <stop stop-color="#F3EAE9" offset="0%"></stop>
            <stop stop-color="#F3ECE7" offset="100%"></stop>
        </linearGradient>
        <linearGradient x1="17.6179138%" y1="0%" x2="82.3820862%" y2="100%" id="linearGradient-28">
            <stop stop-color="#F5EEE5" offset="0%"></stop>
            <stop stop-color="#F3ECE4" offset="100%"></stop>
        </linearGradient>
        <linearGradient x1="36.5254263%" y1="0%" x2="63.4745737%" y2="100%" id="linearGradient-29">
            <stop stop-color="#F3ECEB" offset="0%"></stop>
            <stop stop-color="#F3EAEC" offset="100%"></stop>
        </linearGradient>
        <linearGradient x1="34.6239669%" y1="0%" x2="65.3760331%" y2="100%" id="linearGradient-30">
            <stop stop-color="#F5D9F0" offset="0%"></stop>
            <stop stop-color="#F5DAF1" offset="100%"></stop>
        </linearGradient>
        <linearGradient x1="24.551978%" y1="0%" x2="75.448022%" y2="100%" id="linearGradient-31">
            <stop stop-color="#F6D8F1" offset="0%"></stop>
            <stop stop-color="#F5DAF1" offset="100%"></stop>
        </linearGradient>
        <linearGradient x1="0%" y1="44.1595898%" x2="100%" y2="55.8404102%" id="linearGradient-32">
            <stop stop-color="#F8D7F3" offset="0%"></stop>
            <stop stop-color="#F6D7F3" offset="100%"></stop>
        </linearGradient>
        <linearGradient x1="28.8233812%" y1="0%" x2="71.1766188%" y2="100%" id="linearGradient-33">
            <stop stop-color="#F6D7F2" offset="0%"></stop>
            <stop stop-color="#F6D8F2" offset="100%"></stop>
        </linearGradient>
        <linearGradient x1="24.6677218%" y1="0%" x2="75.3322782%" y2="100%" id="linearGradient-34">
            <stop stop-color="#F3E8EF" offset="0%"></stop>
            <stop stop-color="#F3E7ED" offset="100%"></stop>
        </linearGradient>
        <linearGradient x1="49.9465829%" y1="0%" x2="50.0534171%" y2="100%" id="linearGradient-35">
            <stop stop-color="#F7D3F4" offset="0%"></stop>
            <stop stop-color="#F5DFE7" offset="100%"></stop>
        </linearGradient>
        <linearGradient x1="23.9746878%" y1="0%" x2="76.0253122%" y2="100%" id="linearGradient-36">
            <stop stop-color="#F1E5EB" offset="0%"></stop>
            <stop stop-color="#F3E3EC" offset="100%"></stop>
        </linearGradient>
        <linearGradient x1="26.9258844%" y1="0%" x2="73.0741156%" y2="100%" id="linearGradient-37">
            <stop stop-color="#F3E8EB" offset="0%"></stop>
            <stop stop-color="#F3E4EC" offset="100%"></stop>
        </linearGradient>
        <linearGradient x1="49.3485583%" y1="0%" x2="50.6514417%" y2="100%" id="linearGradient-38">
            <stop stop-color="#F9CCF7" offset="0%"></stop>
            <stop stop-color="#F8D3F4" offset="100%"></stop>
        </linearGradient>
        <linearGradient x1="0%" y1="32.1702118%" x2="100%" y2="67.8297882%" id="linearGradient-39">
            <stop stop-color="#F3DEF0" offset="0%"></stop>
            <stop stop-color="#F3E4EF" offset="100%"></stop>
        </linearGradient>
        <linearGradient x1="0%" y1="23.1633733%" x2="100%" y2="76.8366267%" id="linearGradient-40">
            <stop stop-color="#F3DEF0" offset="0%"></stop>
            <stop stop-color="#F3E2EF" offset="100%"></stop>
        </linearGradient>
        <linearGradient x1="0%" y1="45.3544568%" x2="100%" y2="54.6455432%" id="linearGradient-41">
            <stop stop-color="#F2E3EF" offset="0%"></stop>
            <stop stop-color="#F2E6EE" offset="100%"></stop>
        </linearGradient>
        <linearGradient x1="43.7591882%" y1="0%" x2="56.2408118%" y2="100%" id="linearGradient-42">
            <stop stop-color="#F3EAED" offset="0%"></stop>
            <stop stop-color="#F2EDEA" offset="100%"></stop>
        </linearGradient>
        <linearGradient x1="47.2318339%" y1="0%" x2="52.7681661%" y2="100%" id="linearGradient-43">
            <stop stop-color="#F3E9EC" offset="0%"></stop>
            <stop stop-color="#F2ECEA" offset="100%"></stop>
        </linearGradient>
        <linearGradient x1="0%" y1="37.0726803%" x2="100%" y2="62.9273197%" id="linearGradient-44">
            <stop stop-color="#F2EDE9" offset="0%"></stop>
            <stop stop-color="#F2EEEA" offset="100%"></stop>
        </linearGradient>
        <linearGradient x1="0%" y1="17.1292915%" x2="100%" y2="82.8707085%" id="linearGradient-45">
            <stop stop-color="#F2EDEA" offset="0%"></stop>
            <stop stop-color="#F2EEEA" offset="100%"></stop>
        </linearGradient>
        <linearGradient x1="38.3850804%" y1="0%" x2="61.6149196%" y2="100%" id="linearGradient-46">
            <stop stop-color="#F4DEEC" offset="0%"></stop>
            <stop stop-color="#F5DFE7" offset="100%"></stop>
        </linearGradient>
        <linearGradient x1="0%" y1="29.1555583%" x2="100%" y2="70.8444417%" id="linearGradient-47">
            <stop stop-color="#F6D8F0" offset="0%"></stop>
            <stop stop-color="#F5DAEE" offset="100%"></stop>
        </linearGradient>
        <linearGradient x1="25.9749483%" y1="0%" x2="74.0250517%" y2="100%" id="linearGradient-48">
            <stop stop-color="#F4EDDD" offset="0%"></stop>
            <stop stop-color="#F6EDDB" offset="100%"></stop>
        </linearGradient>
        <linearGradient x1="0%" y1="7.36021449%" x2="100%" y2="92.6397855%" id="linearGradient-49">
            <stop stop-color="#F3E1EF" offset="0%"></stop>
            <stop stop-color="#F3E0EE" offset="100%"></stop>
        </linearGradient>
        <linearGradient x1="37.1703438%" y1="0%" x2="62.8296562%" y2="100%" id="linearGradient-50">
            <stop stop-color="#F3E4EF" offset="0%"></stop>
            <stop stop-color="#F2E8ED" offset="100%"></stop>
        </linearGradient>
        <linearGradient x1="0%" y1="5.25931337%" x2="100%" y2="94.7406866%" id="linearGradient-51">
            <stop stop-color="#F5E0EF" offset="0%"></stop>
            <stop stop-color="#F2E5ED" offset="100%"></stop>
        </linearGradient>
        <linearGradient x1="27.3124035%" y1="0%" x2="72.6875965%" y2="100%" id="linearGradient-52">
            <stop stop-color="#F3E7EF" offset="0%"></stop>
            <stop stop-color="#F3E8ED" offset="100%"></stop>
        </linearGradient>
        <linearGradient x1="6.64175135%" y1="0%" x2="93.3582486%" y2="100%" id="linearGradient-53">
            <stop stop-color="#F3E7ED" offset="0%"></stop>
            <stop stop-color="#F3E9E9" offset="100%"></stop>
        </linearGradient>
        <linearGradient x1="0%" y1="20.4630831%" x2="100%" y2="79.5369169%" id="linearGradient-54">
            <stop stop-color="#F2E6ED" offset="0%"></stop>
            <stop stop-color="#F2E8EC" offset="100%"></stop>
        </linearGradient>
        <linearGradient x1="23.7512998%" y1="0%" x2="76.2487002%" y2="100%" id="linearGradient-55">
            <stop stop-color="#F3E9EC" offset="0%"></stop>
            <stop stop-color="#F2EBEA" offset="100%"></stop>
        </linearGradient>
        <linearGradient x1="0%" y1="25.9576962%" x2="100%" y2="74.0423038%" id="linearGradient-56">
            <stop stop-color="#F3EAE7" offset="0%"></stop>
            <stop stop-color="#F3EAE9" offset="100%"></stop>
        </linearGradient>
        <linearGradient x1="8.04440301%" y1="0%" x2="91.955597%" y2="100%" id="linearGradient-57">
            <stop stop-color="#F4ECE9" offset="0%"></stop>
            <stop stop-color="#F3EBE9" offset="100%"></stop>
        </linearGradient>
        <linearGradient x1="0%" y1="5.55102041%" x2="100%" y2="94.4489796%" id="linearGradient-58">
            <stop stop-color="#F6E4DA" offset="0%"></stop>
            <stop stop-color="#F6E4DA" offset="100%"></stop>
        </linearGradient>
        <linearGradient x1="47.8177544%" y1="0%" x2="52.1822456%" y2="100%" id="linearGradient-59">
            <stop stop-color="#F9D2F8" offset="0%"></stop>
            <stop stop-color="#F7D7F3" offset="100%"></stop>
        </linearGradient>
        <linearGradient x1="17.7508121%" y1="0%" x2="82.2491879%" y2="100%" id="linearGradient-60">
            <stop stop-color="#F4DAF2" offset="0%"></stop>
            <stop stop-color="#F5DAF2" offset="100%"></stop>
        </linearGradient>
        <linearGradient x1="28.0770636%" y1="0%" x2="71.9229364%" y2="100%" id="linearGradient-61">
            <stop stop-color="#F4DFF1" offset="0%"></stop>
            <stop stop-color="#F6D9F2" offset="100%"></stop>
        </linearGradient>
        <linearGradient x1="37.3084319%" y1="0%" x2="62.6915681%" y2="100%" id="linearGradient-62">
            <stop stop-color="#F7CBF6" offset="0%"></stop>
            <stop stop-color="#F8CFF6" offset="100%"></stop>
        </linearGradient>
        <linearGradient x1="0%" y1="25.2134527%" x2="100%" y2="74.7865473%" id="linearGradient-63">
            <stop stop-color="#F7ECD8" offset="0%"></stop>
            <stop stop-color="#F8EAD5" offset="100%"></stop>
        </linearGradient>
        <linearGradient x1="0%" y1="40.6111111%" x2="100%" y2="59.3888889%" id="linearGradient-64">
            <stop stop-color="#FAEAD2" offset="0%"></stop>
            <stop stop-color="#F9E9D4" offset="100%"></stop>
        </linearGradient>
        <linearGradient x1="29.104173%" y1="0%" x2="70.895827%" y2="100%" id="linearGradient-65">
            <stop stop-color="#F4EADA" offset="0%"></stop>
            <stop stop-color="#F6EBD9" offset="100%"></stop>
        </linearGradient>
        <linearGradient x1="10.4938272%" y1="0%" x2="89.5061728%" y2="100%" id="linearGradient-66">
            <stop stop-color="#F6EDDB" offset="0%"></stop>
            <stop stop-color="#F8EBD8" offset="100%"></stop>
        </linearGradient>
        <linearGradient x1="0%" y1="41.4387634%" x2="100%" y2="58.5612366%" id="linearGradient-67">
            <stop stop-color="#F1E6EC" offset="0%"></stop>
            <stop stop-color="#F2E8EA" offset="100%"></stop>
        </linearGradient>
        <linearGradient x1="22.4765869%" y1="0%" x2="77.5234131%" y2="100%" id="linearGradient-68">
            <stop stop-color="#F1E5ED" offset="0%"></stop>
            <stop stop-color="#F1E6EB" offset="100%"></stop>
        </linearGradient>
        <linearGradient x1="0%" y1="16.5289256%" x2="100%" y2="83.4710744%" id="linearGradient-69">
            <stop stop-color="#F3EBEA" offset="0%"></stop>
            <stop stop-color="#F2E8EA" offset="100%"></stop>
        </linearGradient>
        <linearGradient x1="29.5910494%" y1="0%" x2="70.4089506%" y2="100%" id="linearGradient-70">
            <stop stop-color="#F1E7EB" offset="0%"></stop>
            <stop stop-color="#F1E7EA" offset="100%"></stop>
        </linearGradient>
        <linearGradient x1="43.7318285%" y1="0%" x2="56.2681715%" y2="100%" id="linearGradient-71">
            <stop stop-color="#F9EAD5" offset="0%"></stop>
            <stop stop-color="#F8E9D4" offset="100%"></stop>
        </linearGradient>
        <linearGradient x1="46.2157472%" y1="0%" x2="53.7842528%" y2="100%" id="linearGradient-72">
            <stop stop-color="#F5E9D9" offset="0%"></stop>
            <stop stop-color="#F8EAD4" offset="100%"></stop>
        </linearGradient>
        <linearGradient x1="21.1836298%" y1="0%" x2="78.8163702%" y2="100%" id="linearGradient-73">
            <stop stop-color="#F3E9DB" offset="0%"></stop>
            <stop stop-color="#F4EAD9" offset="100%"></stop>
        </linearGradient>
        <linearGradient x1="31.9393429%" y1="0%" x2="68.0606571%" y2="100%" id="linearGradient-74">
            <stop stop-color="#F5ECDA" offset="0%"></stop>
            <stop stop-color="#F7EAD7" offset="100%"></stop>
        </linearGradient>
        <linearGradient x1="0%" y1="0.904958678%" x2="100%" y2="99.0950413%" id="linearGradient-75">
            <stop stop-color="#F6D9F3" offset="0%"></stop>
            <stop stop-color="#F7D6F4" offset="100%"></stop>
        </linearGradient>
        <linearGradient x1="24.7232977%" y1="0%" x2="75.2767023%" y2="100%" id="linearGradient-76">
            <stop stop-color="#F8D4F5" offset="0%"></stop>
            <stop stop-color="#F7D5F4" offset="100%"></stop>
        </linearGradient>
        <linearGradient x1="0%" y1="45.768595%" x2="100%" y2="54.231405%" id="linearGradient-77">
            <stop stop-color="#F7D5F4" offset="0%"></stop>
            <stop stop-color="#F7D4F4" offset="100%"></stop>
        </linearGradient>
        <linearGradient x1="0%" y1="49.20461%" x2="100%" y2="50.79539%" id="linearGradient-78">
            <stop stop-color="#F9CCF8" offset="0%"></stop>
            <stop stop-color="#F8D1F4" offset="100%"></stop>
        </linearGradient>
        <linearGradient x1="0%" y1="41.4387634%" x2="100%" y2="58.5612366%" id="linearGradient-79">
            <stop stop-color="#F9C9F9" offset="0%"></stop>
            <stop stop-color="#F9CBF7" offset="100%"></stop>
        </linearGradient>
        <linearGradient x1="0%" y1="6.6587396%" x2="100%" y2="93.3412604%" id="linearGradient-80">
            <stop stop-color="#F8CBF7" offset="0%"></stop>
            <stop stop-color="#F8D0F6" offset="100%"></stop>
        </linearGradient>
        <linearGradient x1="47.3679279%" y1="0%" x2="52.6320721%" y2="100%" id="linearGradient-81">
            <stop stop-color="#F7E9D5" offset="0%"></stop>
            <stop stop-color="#FAEAD1" offset="100%"></stop>
        </linearGradient>
        <linearGradient x1="38.8650423%" y1="0%" x2="61.1349577%" y2="100%" id="linearGradient-82">
            <stop stop-color="#F7E9D4" offset="0%"></stop>
            <stop stop-color="#FAEBD0" offset="100%"></stop>
        </linearGradient>
        <linearGradient x1="36.3378099%" y1="0%" x2="63.6621901%" y2="100%" id="linearGradient-83">
            <stop stop-color="#F9C8F9" offset="0%"></stop>
            <stop stop-color="#F9C9F9" offset="100%"></stop>
        </linearGradient>
        <linearGradient x1="0%" y1="22.4519077%" x2="100%" y2="77.5480923%" id="linearGradient-84">
            <stop stop-color="#F9C8F9" offset="0%"></stop>
            <stop stop-color="#F9C7F8" offset="100%"></stop>
        </linearGradient>
        <linearGradient x1="37.5%" y1="0%" x2="62.5%" y2="100%" id="linearGradient-85">
            <stop stop-color="#F9C8F8" offset="0%"></stop>
            <stop stop-color="#FACAF9" offset="100%"></stop>
        </linearGradient>
        <linearGradient x1="47.2580516%" y1="0%" x2="52.7419484%" y2="100%" id="linearGradient-86">
            <stop stop-color="#F6E4DB" offset="0%"></stop>
            <stop stop-color="#F5E4DC" offset="100%"></stop>
        </linearGradient>
        <linearGradient x1="49.8711992%" y1="0%" x2="50.1288008%" y2="100%" id="linearGradient-87">
            <stop stop-color="#F4E0E9" offset="0%"></stop>
            <stop stop-color="#F4E4DE" offset="100%"></stop>
        </linearGradient>
        <linearGradient x1="46.1998909%" y1="0%" x2="53.8001091%" y2="100%" id="linearGradient-88">
            <stop stop-color="#F4E1EC" offset="0%"></stop>
            <stop stop-color="#F3E7E5" offset="100%"></stop>
        </linearGradient>
        <linearGradient x1="6.40857411%" y1="0%" x2="93.5914259%" y2="100%" id="linearGradient-89">
            <stop stop-color="#F3EBE6" offset="0%"></stop>
            <stop stop-color="#F4EAE1" offset="100%"></stop>
        </linearGradient>
        <linearGradient x1="40.2271468%" y1="0%" x2="59.7728532%" y2="100%" id="linearGradient-90">
            <stop stop-color="#FAC5FA" offset="0%"></stop>
            <stop stop-color="#FAC4FA" offset="100%"></stop>
        </linearGradient>
        <linearGradient x1="0%" y1="43.0024326%" x2="100%" y2="56.9975674%" id="linearGradient-91">
            <stop stop-color="#FAC6FA" offset="0%"></stop>
            <stop stop-color="#FBC4FB" offset="100%"></stop>
        </linearGradient>
        <linearGradient x1="0%" y1="11.5687746%" x2="100%" y2="88.4312254%" id="linearGradient-92">
            <stop stop-color="#FBECD0" offset="0%"></stop>
            <stop stop-color="#FAEBCE" offset="100%"></stop>
        </linearGradient>
        <linearGradient x1="0%" y1="48.5040175%" x2="100%" y2="51.4959825%" id="linearGradient-93">
            <stop stop-color="#FAEBD0" offset="0%"></stop>
            <stop stop-color="#F9E9D0" offset="100%"></stop>
        </linearGradient>
        <linearGradient x1="42.1264802%" y1="0%" x2="57.8735198%" y2="100%" id="linearGradient-94">
            <stop stop-color="#F6E6DE" offset="0%"></stop>
            <stop stop-color="#F6E6DA" offset="100%"></stop>
        </linearGradient>
        <linearGradient x1="0%" y1="46.0289256%" x2="100%" y2="53.9710744%" id="linearGradient-95">
            <stop stop-color="#F7E5DA" offset="0%"></stop>
            <stop stop-color="#F7E5D8" offset="100%"></stop>
        </linearGradient>
        <linearGradient x1="0%" y1="2.05106177%" x2="100%" y2="97.9489382%" id="linearGradient-96">
            <stop stop-color="#F6E6DD" offset="0%"></stop>
            <stop stop-color="#F7E7D8" offset="100%"></stop>
        </linearGradient>
        <linearGradient x1="0%" y1="28.5473198%" x2="100%" y2="71.4526802%" id="linearGradient-97">
            <stop stop-color="#F7EBD9" offset="0%"></stop>
            <stop stop-color="#F7E8D6" offset="100%"></stop>
        </linearGradient>
        <linearGradient x1="0%" y1="49.9766253%" x2="100%" y2="50.0233747%" id="linearGradient-98">
            <stop stop-color="#F8E9D3" offset="0%"></stop>
            <stop stop-color="#F8E8D1" offset="100%"></stop>
        </linearGradient>
        <linearGradient x1="0.61161504%" y1="0%" x2="99.388385%" y2="100%" id="linearGradient-99">
            <stop stop-color="#F4ECDF" offset="0%"></stop>
            <stop stop-color="#F5E7DC" offset="100%"></stop>
        </linearGradient>
        <linearGradient x1="25.3279198%" y1="0%" x2="74.6720802%" y2="100%" id="linearGradient-100">
            <stop stop-color="#F4ECDD" offset="0%"></stop>
            <stop stop-color="#F6EAD9" offset="100%"></stop>
        </linearGradient>
    </defs>
    <g id="Page-1" stroke="none" stroke-width="1" fill="none" fill-rule="evenodd" sketch:type="MSPage">
        <g id="dr2IL2iX" sketch:type="MSLayerGroup" transform="translate(-5.000000, -5.000000)" stroke-opacity="0.0357506793" stroke="#FFFFFF">
            <path d="M630.971787,494 L643.009404,402 L835.611285,435 L630.971787,494 Z" id="triangle36" fill="url(#linearGradient-1)" sketch:type="MSShapeGroup"></path>
            <path d="M643.009404,402 L835.611285,435 L754.357367,321 L643.009404,402 Z" id="triangle36" fill="url(#linearGradient-2)" sketch:type="MSShapeGroup"></path>
            <path d="M643.009404,402 L754.357367,321 L614.92163,355 L643.009404,402 Z" id="triangle36" fill="url(#linearGradient-3)" sketch:type="MSShapeGroup"></path>
            <path d="M586.833856,201 L791.473354,102 L528.652038,141 L586.833856,201 Z" id="triangle36" fill="url(#linearGradient-4)" sketch:type="MSShapeGroup"></path>
            <path d="M528.652038,141 L586.833856,201 L578.808777,235 L528.652038,141 Z" id="triangle36" fill="url(#linearGradient-5)" sketch:type="MSShapeGroup"></path>
            <path d="M4.14420063,656 L46.1442006,323 L0.144200627,165 L4.14420063,656 Z" id="triangle36" fill="url(#linearGradient-6)" sketch:type="MSShapeGroup"></path>
            <path d="M578.808777,235 L586.833856,201 L732.288401,239 L578.808777,235 Z" id="triangle36" fill="url(#linearGradient-7)" sketch:type="MSShapeGroup"></path>
            <path d="M578.808777,235 L614.92163,355 L732.288401,239 L578.808777,235 Z" id="triangle36" fill="url(#linearGradient-8)" sketch:type="MSShapeGroup"></path>
            <path d="M586.833856,201 L791.473354,102 L732.288401,239 L586.833856,201 Z" id="triangle36" fill="url(#linearGradient-9)" sketch:type="MSShapeGroup"></path>
            <path d="M614.92163,355 L754.357367,321 L732.288401,239 L614.92163,355 Z" id="triangle36" fill="url(#linearGradient-10)" sketch:type="MSShapeGroup"></path>
            <path d="M630.971787,494 L643.009404,402 L617.931034,439 L630.971787,494 Z" id="triangle36" fill="url(#linearGradient-11)" sketch:type="MSShapeGroup"></path>
            <path d="M528.652038,141 L791.473354,102 L531.661442,0 L528.652038,141 Z" id="triangle36" fill="url(#linearGradient-12)" sketch:type="MSShapeGroup"></path>
            <path d="M791.473354,102 L1250.90909,2 L531.661442,0 L791.473354,102 Z" id="triangle36" fill="url(#linearGradient-13)" sketch:type="MSShapeGroup"></path>
            <path d="M263.824451,528 L339.059561,317 L109.341693,315 L263.824451,528 Z" id="triangle36" fill="url(#linearGradient-14)" sketch:type="MSShapeGroup"></path>
            <path d="M630.971787,494 L835.611285,435 L692.163009,582 L630.971787,494 Z" id="triangle36" fill="url(#linearGradient-15)" sketch:type="MSShapeGroup"></path>
            <path d="M645.015674,620 L724.263323,600 L692.163009,582 L645.015674,620 Z" id="triangle36" fill="url(#linearGradient-16)" sketch:type="MSShapeGroup"></path>
            <path d="M109.341693,315 L339.059561,317 L164.514107,254 L109.341693,315 Z" id="triangle36" fill="url(#linearGradient-17)" sketch:type="MSShapeGroup"></path>
            <path d="M339.059561,317 L528.652038,141 L164.514107,254 L339.059561,317 Z" id="triangle36" fill="url(#linearGradient-18)" sketch:type="MSShapeGroup"></path>
            <path d="M528.652038,141 L531.661442,0 L164.514107,254 L528.652038,141 Z" id="triangle36" fill="url(#linearGradient-19)" sketch:type="MSShapeGroup"></path>
            <path d="M732.288401,239 L754.357367,321 L951.974922,247 L732.288401,239 Z" id="triangle36" fill="url(#linearGradient-20)" sketch:type="MSShapeGroup"></path>
            <path d="M732.288401,239 L791.473354,102 L951.974922,247 L732.288401,239 Z" id="triangle36" fill="url(#linearGradient-21)" sketch:type="MSShapeGroup"></path>
            <path d="M1235.86207,789 L1268.96552,792 L100.31348,795 L1235.86207,789 Z" id="triangle36" fill="url(#linearGradient-22)" sketch:type="MSShapeGroup"></path>
            <path d="M754.357367,321 L835.611285,435 L979.059561,306 L754.357367,321 Z" id="triangle36" fill="url(#linearGradient-23)" sketch:type="MSShapeGroup"></path>
            <path d="M754.357367,321 L951.974922,247 L979.059561,306 L754.357367,321 Z" id="triangle36" fill="url(#linearGradient-24)" sketch:type="MSShapeGroup"></path>
            <path d="M835.611285,435 L952.978056,428 L979.059561,306 L835.611285,435 Z" id="triangle36" fill="url(#linearGradient-25)" sketch:type="MSShapeGroup"></path>
            <path d="M692.163009,582 L724.263323,600 L742.319749,597 L692.163009,582 Z" id="triangle36" fill="url(#linearGradient-26)" sketch:type="MSShapeGroup"></path>
            <path d="M692.163009,582 L835.611285,435 L742.319749,597 L692.163009,582 Z" id="triangle36" fill="url(#linearGradient-27)" sketch:type="MSShapeGroup"></path>
            <path d="M835.611285,435 L952.978056,428 L742.319749,597 L835.611285,435 Z" id="triangle36" fill="url(#linearGradient-28)" sketch:type="MSShapeGroup"></path>
            <path d="M617.931034,439 L630.971787,494 L447.398119,399 L617.931034,439 Z" id="triangle36" fill="url(#linearGradient-29)" sketch:type="MSShapeGroup"></path>
            <path d="M109.341693,315 L164.514107,254 L54.169279,282 L109.341693,315 Z" id="triangle36" fill="url(#linearGradient-30)" sketch:type="MSShapeGroup"></path>
            <path d="M0,165 L164.514107,254 L54.169279,282 L0,165 Z" id="triangle36" fill="url(#linearGradient-31)" sketch:type="MSShapeGroup"></path>
            <path d="M0,165 L46.1442006,323 L54.169279,282 L0,165 Z" id="triangle36" fill="url(#linearGradient-32)" sketch:type="MSShapeGroup"></path>
            <path d="M46.1442006,323 L109.341693,315 L54.169279,282 L46.1442006,323 Z" id="triangle36" fill="url(#linearGradient-33)" sketch:type="MSShapeGroup"></path>
            <path d="M447.398119,399 L630.971787,494 L401.253918,562 L447.398119,399 Z" id="triangle36" fill="url(#linearGradient-34)" sketch:type="MSShapeGroup"></path>
            <path d="M100.31348,795 L1235.86207,789 L504.576803,758 L100.31348,795 Z" id="triangle36" fill="url(#linearGradient-35)" sketch:type="MSShapeGroup"></path>
            <path d="M645.015674,620 L724.263323,600 L504.576803,758 L645.015674,620 Z" id="triangle36" fill="url(#linearGradient-36)" sketch:type="MSShapeGroup"></path>
            <path d="M724.263323,600 L742.319749,597 L504.576803,758 L724.263323,600 Z" id="triangle36" fill="url(#linearGradient-37)" sketch:type="MSShapeGroup"></path>
            <path d="M100.31348,795 L504.576803,758 L144.451411,749 L100.31348,795 Z" id="triangle36" fill="url(#linearGradient-38)" sketch:type="MSShapeGroup"></path>
            <path d="M263.824451,528 L339.059561,317 L390.219436,375 L263.824451,528 Z" id="triangle36" fill="url(#linearGradient-39)" sketch:type="MSShapeGroup"></path>
            <path d="M263.824451,528 L401.253918,562 L390.219436,375 L263.824451,528 Z" id="triangle36" fill="url(#linearGradient-40)" sketch:type="MSShapeGroup"></path>
            <path d="M401.253918,562 L447.398119,399 L390.219436,375 L401.253918,562 Z" id="triangle36" fill="url(#linearGradient-41)" sketch:type="MSShapeGroup"></path>
            <path d="M447.398119,399 L614.92163,355 L612.915361,414 L447.398119,399 Z" id="triangle36" fill="url(#linearGradient-42)" sketch:type="MSShapeGroup"></path>
            <path d="M447.398119,399 L617.931034,439 L612.915361,414 L447.398119,399 Z" id="triangle36" fill="url(#linearGradient-43)" sketch:type="MSShapeGroup"></path>
            <path d="M614.92163,355 L643.009404,402 L612.915361,414 L614.92163,355 Z" id="triangle36" fill="url(#linearGradient-44)" sketch:type="MSShapeGroup"></path>
            <path d="M617.931034,439 L643.009404,402 L612.915361,414 L617.931034,439 Z" id="triangle36" fill="url(#linearGradient-45)" sketch:type="MSShapeGroup"></path>
            <path d="M164.514107,254 L531.661442,0 L3.00940439,0 L164.514107,254 Z" id="triangle36" fill="url(#linearGradient-46)" sketch:type="MSShapeGroup"></path>
            <path d="M4.09167884,167.746826 L164.514775,254 L4.09167884,1.56316757 L4.09167884,167.746826 Z" id="triangle36" fill="url(#linearGradient-47)" sketch:type="MSShapeGroup"></path>
            <path d="M952.978056,428 L979.059561,306 L1129.52978,330 L952.978056,428 Z" id="triangle36" fill="url(#linearGradient-48)" sketch:type="MSShapeGroup"></path>
            <path d="M401.253918,562 L504.576803,758 L582.821317,610 L401.253918,562 Z" id="triangle36" fill="url(#linearGradient-49)" sketch:type="MSShapeGroup"></path>
            <path d="M401.253918,562 L630.971787,494 L582.821317,610 L401.253918,562 Z" id="triangle36" fill="url(#linearGradient-50)" sketch:type="MSShapeGroup"></path>
            <path d="M504.576803,758 L645.015674,620 L582.821317,610 L504.576803,758 Z" id="triangle36" fill="url(#linearGradient-51)" sketch:type="MSShapeGroup"></path>
            <path d="M339.059561,317 L390.219436,375 L483.510972,278 L339.059561,317 Z" id="triangle36" fill="url(#linearGradient-52)" sketch:type="MSShapeGroup"></path>
            <path d="M339.059561,317 L528.652038,141 L483.510972,278 L339.059561,317 Z" id="triangle36" fill="url(#linearGradient-53)" sketch:type="MSShapeGroup"></path>
            <path d="M390.219436,375 L447.398119,399 L483.510972,278 L390.219436,375 Z" id="triangle36" fill="url(#linearGradient-54)" sketch:type="MSShapeGroup"></path>
            <path d="M447.398119,399 L614.92163,355 L483.510972,278 L447.398119,399 Z" id="triangle36" fill="url(#linearGradient-55)" sketch:type="MSShapeGroup"></path>
            <path d="M528.652038,141 L578.808777,235 L483.510972,278 L528.652038,141 Z" id="triangle36" fill="url(#linearGradient-56)" sketch:type="MSShapeGroup"></path>
            <path d="M578.808777,235 L614.92163,355 L483.510972,278 L578.808777,235 Z" id="triangle36" fill="url(#linearGradient-57)" sketch:type="MSShapeGroup"></path>
            <path d="M1235.86207,789 L1278.02864,789 L1248.90282,757 L1235.86207,789 Z" id="triangle36" fill="url(#linearGradient-58)" sketch:type="MSShapeGroup"></path>
            <path d="M144.451411,749 L504.576803,758 L207.648903,683 L144.451411,749 Z" id="triangle36" fill="url(#linearGradient-59)" sketch:type="MSShapeGroup"></path>
            <path d="M263.824451,528 L401.253918,562 L207.648903,683 L263.824451,528 Z" id="triangle36" fill="url(#linearGradient-60)" sketch:type="MSShapeGroup"></path>
            <path d="M401.253918,562 L504.576803,758 L207.648903,683 L401.253918,562 Z" id="triangle36" fill="url(#linearGradient-61)" sketch:type="MSShapeGroup"></path>
            <path d="M76.2382445,709 L144.451411,749 L207.648903,683 L76.2382445,709 Z" id="triangle36" fill="url(#linearGradient-62)" sketch:type="MSShapeGroup"></path>
            <path d="M1129.52978,330 L1267.96238,374 L1150.59561,178 L1129.52978,330 Z" id="triangle36" fill="url(#linearGradient-63)" sketch:type="MSShapeGroup"></path>
            <path d="M1192.72727,104 L1267.96238,374 L1150.59561,178 L1192.72727,104 Z" id="triangle36" fill="url(#linearGradient-64)" sketch:type="MSShapeGroup"></path>
            <path d="M951.974922,247 L979.059561,306 L1150.59561,178 L951.974922,247 Z" id="triangle36" fill="url(#linearGradient-65)" sketch:type="MSShapeGroup"></path>
            <path d="M979.059561,306 L1129.52978,330 L1150.59561,178 L979.059561,306 Z" id="triangle36" fill="url(#linearGradient-66)" sketch:type="MSShapeGroup"></path>
            <path d="M582.821317,610 L630.971787,494 L619.937304,574 L582.821317,610 Z" id="triangle36" fill="url(#linearGradient-67)" sketch:type="MSShapeGroup"></path>
            <path d="M582.821317,610 L645.015674,620 L619.937304,574 L582.821317,610 Z" id="triangle36" fill="url(#linearGradient-68)" sketch:type="MSShapeGroup"></path>
            <path d="M630.971787,494 L692.163009,582 L619.937304,574 L630.971787,494 Z" id="triangle36" fill="url(#linearGradient-69)" sketch:type="MSShapeGroup"></path>
            <path d="M645.015674,620 L692.163009,582 L619.937304,574 L645.015674,620 Z" id="triangle36" fill="url(#linearGradient-70)" sketch:type="MSShapeGroup"></path>
            <path d="M1150.59561,178 L1192.72727,104 L983.0721,128 L1150.59561,178 Z" id="triangle36" fill="url(#linearGradient-71)" sketch:type="MSShapeGroup"></path>
            <path d="M791.473354,102 L1250.90909,2 L983.0721,128 L791.473354,102 Z" id="triangle36" fill="url(#linearGradient-72)" sketch:type="MSShapeGroup"></path>
            <path d="M791.473354,102 L951.974922,247 L983.0721,128 L791.473354,102 Z" id="triangle36" fill="url(#linearGradient-73)" sketch:type="MSShapeGroup"></path>
            <path d="M951.974922,247 L1150.59561,178 L983.0721,128 L951.974922,247 Z" id="triangle36" fill="url(#linearGradient-74)" sketch:type="MSShapeGroup"></path>
            <path d="M109.341693,315 L263.824451,528 L45.1410658,535 L109.341693,315 Z" id="triangle36" fill="url(#linearGradient-75)" sketch:type="MSShapeGroup"></path>
            <path d="M207.648903,683 L263.824451,528 L45.1410658,535 L207.648903,683 Z" id="triangle36" fill="url(#linearGradient-76)" sketch:type="MSShapeGroup"></path>
            <path d="M46.1442006,323 L109.341693,315 L45.1410658,535 L46.1442006,323 Z" id="triangle36" fill="url(#linearGradient-77)" sketch:type="MSShapeGroup"></path>
            <path d="M4.01253918,656 L46.1442006,323 L45.1410658,535 L4.01253918,656 Z" id="triangle36" fill="url(#linearGradient-78)" sketch:type="MSShapeGroup"></path>
            <path d="M4.01253918,656 L76.2382445,709 L45.1410658,535 L4.01253918,656 Z" id="triangle36" fill="url(#linearGradient-79)" sketch:type="MSShapeGroup"></path>
            <path d="M76.2382445,709 L207.648903,683 L45.1410658,535 L76.2382445,709 Z" id="triangle36" fill="url(#linearGradient-80)" sketch:type="MSShapeGroup"></path>
            <path d="M1192.72727,104 L1267.96238,374 L1214.79624,75 L1192.72727,104 Z" id="triangle36" fill="#FAEAD2" sketch:type="MSShapeGroup"></path>
            <path d="M983.0721,128 L1192.72727,104 L1214.79624,75 L983.0721,128 Z" id="triangle36" fill="url(#linearGradient-81)" sketch:type="MSShapeGroup"></path>
            <path d="M983.0721,128 L1250.90909,2 L1214.79624,75 L983.0721,128 Z" id="triangle36" fill="url(#linearGradient-82)" sketch:type="MSShapeGroup"></path>
            <path d="M100.31348,795 L144.451411,749 L56.1755486,753 L100.31348,795 Z" id="triangle36" fill="url(#linearGradient-83)" sketch:type="MSShapeGroup"></path>
            <path d="M4.01253918,656 L76.2382445,709 L56.1755486,753 L4.01253918,656 Z" id="triangle36" fill="url(#linearGradient-84)" sketch:type="MSShapeGroup"></path>
            <path d="M76.2382445,709 L144.451411,749 L56.1755486,753 L76.2382445,709 Z" id="triangle36" fill="url(#linearGradient-85)" sketch:type="MSShapeGroup"></path>
            <path d="M1235.86207,789 L1248.90282,757 L1090.40752,752 L1235.86207,789 Z" id="triangle36" fill="url(#linearGradient-86)" sketch:type="MSShapeGroup"></path>
            <path d="M504.576803,758 L1235.86207,789 L1090.40752,752 L504.576803,758 Z" id="triangle36" fill="url(#linearGradient-87)" sketch:type="MSShapeGroup"></path>
            <path d="M504.576803,758 L742.319749,597 L1090.40752,752 L504.576803,758 Z" id="triangle36" fill="url(#linearGradient-88)" sketch:type="MSShapeGroup"></path>
            <path d="M742.319749,597 L952.978056,428 L1090.40752,752 L742.319749,597 Z" id="triangle36" fill="url(#linearGradient-89)" sketch:type="MSShapeGroup"></path>
            <path d="M56.1755486,753 L100.31348,795 L5.01567398,795 L56.1755486,753 Z" id="triangle36" fill="url(#linearGradient-90)" sketch:type="MSShapeGroup"></path>
            <path d="M4.01253918,656 L56.1755486,753 L5.01567398,795 L4.01253918,656 Z" id="triangle36" fill="url(#linearGradient-91)" sketch:type="MSShapeGroup"></path>
            <path d="M1214.79624,75 L1250.90909,2 L1278.99687,4 L1214.79624,75 Z" id="triangle36" fill="url(#linearGradient-92)" sketch:type="MSShapeGroup"></path>
            <path d="M1214.79624,75 L1267.96238,374 L1278.99687,4 L1214.79624,75 Z" id="triangle36" fill="url(#linearGradient-93)" sketch:type="MSShapeGroup"></path>
            <path d="M1090.40752,752 L1248.90282,757 L1280,682 L1090.40752,752 Z" id="triangle36" fill="url(#linearGradient-94)" sketch:type="MSShapeGroup"></path>
            <path d="M1248.92726,758.628677 L1280,793.221588 L1280,682 L1248.92726,758.628677 Z" id="triangle36" fill="url(#linearGradient-95)" sketch:type="MSShapeGroup"></path>
            <path d="M1090.40752,752 L1280,682 L1280,559 L1090.40752,752 Z" id="triangle36" fill="url(#linearGradient-96)" sketch:type="MSShapeGroup"></path>
            <path d="M1129.52978,330 L1267.96238,374 L1280,559 L1129.52978,330 Z" id="triangle36" fill="url(#linearGradient-97)" sketch:type="MSShapeGroup"></path>
            <path d="M1267.96238,374 L1278.99687,4 L1280,559 L1267.96238,374 Z" id="triangle36" fill="url(#linearGradient-98)" sketch:type="MSShapeGroup"></path>
            <path d="M952.978056,428 L1090.40752,752 L1280,559 L952.978056,428 Z" id="triangle36" fill="url(#linearGradient-99)" sketch:type="MSShapeGroup"></path>
            <path d="M952.978056,428 L1129.52978,330 L1280,559 L952.978056,428 Z" id="triangle36" fill="url(#linearGradient-100)" sketch:type="MSShapeGroup"></path>
        </g>
    </g>
</svg>