<?xml version="1.0" encoding="UTF-8" standalone="no"?>
<svg width="168px" height="73px" viewBox="0 0 168 73" version="1.1" xmlns="http://www.w3.org/2000/svg" xmlns:xlink="http://www.w3.org/1999/xlink" xmlns:sketch="http://www.bohemiancoding.com/sketch/ns">
    <!-- Generator: Sketch 3.0.4 (8054) - http://www.bohemiancoding.com/sketch -->
    <title>text1326</title>
    <desc>Created with Sketch.</desc>
    <defs></defs>
    <g id="Page-1" stroke="none" stroke-width="1" fill="none" fill-rule="evenodd" sketch:type="MSPage">
        <g id="Infinity_symbol" sketch:type="MSLayerGroup" transform="translate(1.000000, -18.000000)" fill="#666">
            <g id="g1348" transform="translate(0.443421, 0.120096)" sketch:type="MSShapeGroup">
                <g id="text1326" transform="translate(0.000000, 18.000000)">
                    <path d="M82.16623,27.415329 C88.74946,21.082085 95.08279,15.707091 101.16623,11.290329 C107.24945,6.790433 112.37444,3.790436 116.54123,2.290329 C120.70777,0.790439 125.24943,0.04044 130.16623,0.040329 C140.49941,0.04044 148.83274,3.498769 155.16623,10.415329 C161.58273,17.248756 164.79106,25.540414 164.79123,35.290329 C164.79106,41.957064 163.37439,48.123725 160.54123,53.790329 C157.70773,59.457047 153.66607,63.748709 148.41623,66.665329 C143.24941,69.582037 137.29108,71.040369 130.54123,71.040329 C121.7911,71.040369 114.12444,69.16537 107.54123,65.415329 C101.04112,61.665378 92.58279,54.582052 82.16623,44.165329 C71.332815,54.915385 62.707824,62.082044 56.291229,65.665329 C49.874504,69.248704 42.416178,71.040369 33.916229,71.040329 C23.082864,71.040369 14.624539,67.665372 8.541229,60.915329 C2.541218,54.165385 -0.458779,45.623727 -0.458771,35.290329 C-0.458779,25.623747 2.707884,17.332089 9.041229,10.415329 C15.457871,3.498769 23.832863,0.04044 34.166229,0.040329 C39.166181,0.04044 43.74951,0.790439 47.916229,2.290329 C52.082835,3.790436 57.166163,6.790433 63.166229,11.290329 C69.249484,15.707091 75.582811,21.082085 82.16623,27.415329 M90.29123,35.165329 C99.12445,43.915396 106.37445,49.873723 112.04123,53.040329 C117.7911,56.123717 123.49943,57.665382 129.16623,57.665329 C136.24942,57.665382 141.79108,55.582051 145.79123,51.415329 C149.79107,47.165392 151.79107,42.040398 151.79123,36.040329 C151.79107,29.457077 149.79107,24.040416 145.79123,19.790329 C141.87441,15.457091 136.66608,13.290426 130.16623,13.290329 C126.49943,13.290426 122.95776,13.957092 119.54123,15.290329 C116.12444,16.540423 112.04111,18.790421 107.29123,22.040329 C102.54112,25.207081 96.87446,29.582077 90.29123,35.165329 M74.041229,35.165329 C68.041152,30.082076 62.666157,25.915414 57.916229,22.665329 C53.166167,19.332087 48.999504,16.957089 45.416229,15.540329 C41.832845,14.123759 37.916182,13.415426 33.666229,13.415329 C27.582859,13.415426 22.541198,15.540424 18.541229,19.790329 C14.541206,24.040416 12.541208,29.457077 12.541229,36.040329 C12.541208,40.623732 13.582873,44.498728 15.666229,47.665329 C17.749536,50.832055 20.2912,53.290386 23.291229,55.040329 C26.374527,56.790383 30.207857,57.665382 34.791229,57.665329 C40.791179,57.665382 46.624507,56.08205 52.291229,52.915329 C57.957829,49.748723 65.207822,43.832062 74.041229,35.165329"></path>
                </g>
            </g>
        </g>
    </g>
</svg>