<?xml version="1.0" encoding="UTF-8" standalone="no"?>
<svg xmlns:sketch="http://www.bohemiancoding.com/sketch/ns" xmlns="http://www.w3.org/2000/svg" height="158px" width="568px" version="1.1" xmlns:xlink="http://www.w3.org/1999/xlink" viewBox="0 0 568 158"><!-- Generator: Sketch 3.0.4 (8054) - http://www.bohemiancoding.com/sketch -->
 <title>Restful Design</title>
 <desc>Created with Sketch.</desc>
 <g id="Page-1" fill-rule="evenodd" sketch:type="MSPage" fill="none">
  <g id="rd-logo" transform="translate(-40 -162)" fill="#3F3F3F" sketch:type="MSLayerGroup">
   <g id="Restful-Design-2" sketch:type="MSShapeGroup" transform="translate(41 163)">
    <path id="Restful-Design" d="m230.74 59.715c-0.28-0.424-0.6-0.82-0.97-1.187-0.48-0.48-0.96-0.768-1.44-0.864-1.06 0-2.02 0.024-2.88 0.072-0.87 0.048-1.8 0.096-2.81 0.144s-2.11 0.096-3.31 0.144-2.71 0.12-4.54 0.216c0.1-2.016 0.15-4.632 0.15-7.848s0.12-6.576 0.36-10.08 0.62-6.984 1.15-10.44 1.34-6.504 2.45-9.144c1.1-2.64 2.52-4.656 4.24-6.048 1.73-1.392 3.94-1.752 6.63-1.08 1.25 0 2.33 0.456 3.24 1.368s1.65 1.896 2.23 2.952 1.03 2.04 1.37 2.952c0.33 0.912 0.6 1.368 0.79 1.368 0.1 0.192 0.14 0.336 0.14 0.432s0.08 0.168 0.22 0.216 0.43 0.072 0.86 0.072h2.24c0.57-0.384 0.5-1.608-0.22-3.672s-1.94-4.104-3.67-6.12-3.91-3.624-6.55-4.824-5.64-1.128-9 0.216c-1.35 0.576-2.79 1.8-4.32 3.672-1.54 1.872-2.91 4.728-4.11 8.568s-2.11 8.856-2.73 15.048c-0.63 6.192-0.7 13.896-0.22 23.112-3.36 0.384-6.43 0.72-9.22 1.008-2.78 0.288-4.46 0.528-5.04 0.72-0.09 0.192-0.31 0.528-0.64 1.008-0.34 0.48-0.63 0.984-0.87 1.512s-0.36 0.96-0.36 1.296 0.34 0.504 1.01 0.504c1.44-0.096 2.64-0.144 3.6-0.144s1.94-0.024 2.95-0.072 2.19-0.12 3.53-0.216 3.12-0.24 5.33-0.432c0.57 7.776 1.01 14.304 1.29 19.584 0.29 5.28 0.51 9.6 0.65 12.96 0.15 3.362 0.24 5.952 0.29 7.772 0.05 1.83 0.1 3.12 0.14 3.89 0.05 0.77 0.12 1.2 0.22 1.3 0.1 0.09 0.29 0.14 0.58 0.14 0.86 0.1 1.7 0.17 2.52 0.22 0.81 0.05 1.32-0.31 1.51-1.08-0.1-3.75-0.27-7.3-0.51-10.658-0.24-3.36-0.48-6.792-0.72-10.296s-0.5-7.2-0.79-11.088-0.48-8.28-0.57-13.176c1.63-0.096 3.09-0.168 4.39-0.216 1.29-0.048 2.57-0.12 3.81-0.216 1.25-0.096 2.55-0.192 3.89-0.288 1.13-0.081 2.39-0.229 3.79-0.445 0.07 2.732 0.1 5.496 0.1 8.293v10.008c0 3.264 0.07 6.192 0.22 8.784 0.14 2.592 0.33 4.728 0.57 6.408s0.65 2.664 1.23 2.952c0.38 0.768 1.1 1.368 2.16 1.798 1.05 0.43 2.54 0.27 4.46-0.5 0.58-0.19 1.3-0.914 2.16-2.162s1.78-2.736 2.74-4.464 1.92-3.552 2.88-5.472 1.82-3.648 2.59-5.184c0.19 1.248 0.36 2.64 0.5 4.176 0.15 1.536 0.34 2.976 0.58 4.32s0.53 2.52 0.86 3.528c0.34 1.008 0.79 1.56 1.37 1.656 1.44 0.576 3.05 0.648 4.82 0.216 1.78-0.432 3.46-1.176 5.04-2.232 1.59-1.056 3-2.352 4.25-3.888s2.07-3.12 2.45-4.752c-0.29-0.288-0.96 0.024-2.02 0.936-1.05 0.912-2.23 1.944-3.52 3.096-1.3 1.152-2.64 2.112-4.04 2.88-1.39 0.768-2.61 0.816-3.67 0.144-1.25-0.768-2.04-2.448-2.37-5.04-0.34-2.592-0.46-5.472-0.36-8.64 0.09-3.168 0.31-6.36 0.64-9.576 0.34-3.216 0.6-5.88 0.8-7.992-0.29-0.096-0.75-0.192-1.37-0.288-0.63-0.096-1.25-0.144-1.87-0.144-0.63 0-1.18 0.072-1.66 0.216s-0.72 0.504-0.72 1.08c0.38 2.784 0.1 6.048-0.86 9.792s-2.16 7.272-3.6 10.584-2.93 6.024-4.47 8.136c-1.53 2.112-2.64 2.928-3.31 2.448-0.58-0.288-1.03-0.864-1.37-1.728-0.33-0.864-0.57-1.776-0.72-2.736-0.14-0.96-0.24-1.848-0.29-2.664-0.04-0.816-0.07-1.368-0.07-1.656 0.19-7.872 0.46-14.592 0.79-20.16 0.34-5.568 0.27-9.456-0.21-11.664-0.39-0.48-0.87-0.792-1.44-0.936-0.58-0.144-1.15-0.264-1.73-0.36-0.67-0.096-1.34-0.144-2.02-0.144 0.18 2.489 0.31 5.188 0.4 8.099zm-143.12 25.732c-0.569-0.282-1.091-0.423-1.566-0.423-0.48 0-1.296-0.12-2.448-0.36s-2.784-0.696-4.896-1.368-5.088-1.776-8.928-3.312c-2.88-1.632-5.4-3.096-7.56-4.392s-4.272-2.664-6.336-4.104-4.248-3.048-6.552-4.824-5.04-3.912-8.208-6.408c-2.112-2.112-3.84-3.888-5.184-5.328s-2.496-3.456-3.456-6.048c2.688-0.576 5.976-1.368 9.864-2.376s7.776-2.184 11.664-3.528 7.44-2.808 10.656-4.392 5.544-3.192 6.984-4.824c2.016-1.728 3.096-3.84 3.24-6.336s-1.32-4.992-4.392-7.488-8.04-4.872-14.904-7.128-16.248-4.056-28.152-5.4c-1.536-0.096-3.528-0.24-5.976-0.432s-4.992-0.336-7.632-0.432-5.232-0.168-7.776-0.216-4.632 0.024-6.264 0.216c-0.192 1.536-0.072 2.472 0.36 2.808s1.032 0.744 1.8 1.224c4.512 0.096 8.568 0.216 12.168 0.36s5.832 0.216 6.696 0.216c0.384 2.976 0.72 5.784 1.008 8.424s0.576 5.304 0.864 7.992 0.576 5.448 0.864 8.28 0.672 5.88 1.152 9.144c-1.44 0.48-2.76 0.864-3.96 1.152s-1.944 0.624-2.232 1.008c1.248 1.536 2.208 2.664 2.88 3.384s1.296 1.368 1.872 1.944 1.176 1.224 1.8 1.944 1.464 1.8 2.52 3.24c0.192 0.672 0.312 1.056 0.36 1.152s0.048 0.096 0 0-0.096-0.216-0.144-0.36l0.072 0.216c0.576 8.448 1.32 16.176 2.232 23.184s1.56 13.68 1.944 20.014c0.672-0.09 1.68 0.05 3.024 0.43 1.344 0.39 2.736 0.29 4.176-0.28-0.288-0.87-0.624-2.308-1.008-4.324s-0.768-4.32-1.152-6.912-0.792-5.328-1.224-8.208-0.84-5.664-1.224-8.352-0.744-5.112-1.08-7.272-0.6-3.816-0.792-4.968c0.96 0.576 1.968 1.248 3.024 2.016 0.96 0.672 2.112 1.464 3.456 2.376s2.832 1.992 4.464 3.24c3.936 3.072 7.512 5.592 10.728 7.56s6.12 3.552 8.712 4.752 4.848 2.136 6.768 2.808 3.6 1.2 5.04 1.584c0.672 0.192 1.752 0.36 3.24 0.504s2.952 0.216 4.392 0.216 2.688-0.12 3.744-0.36c0.718-0.163 1.148-0.404 1.289-0.723 0.055 1.981 0.25 3.638 0.583 4.971 0.096 0.48 0.288 1.056 0.576 1.728s0.744 1.416 1.368 2.232 1.512 1.608 2.664 2.376 2.688 1.488 4.608 2.16c2.304 0.384 4.348 0.384 6.118 0 1.78-0.384 3.41-1.056 4.9-2.016s2.9-2.088 4.25-3.384c1.34-1.296 2.73-2.616 4.17-3.96 1.25-1.44 2.31-2.592 3.17-3.456s1.56-1.608 2.09-2.232 0.93-1.2 1.22-1.728 0.58-1.128 0.87-1.8c0.19-0.864 0.33-1.536 0.43-2.016 0.09-0.48 0.12-0.84 0.07-1.08s-0.22-0.264-0.5-0.072c-1.35 1.728-2.62 3.192-3.82 4.392s-2.81 2.664-4.82 4.392c-1.25 1.152-2.88 2.496-4.9 4.032s-4.08 2.76-6.19 3.672-4.13 1.224-6.05 0.936-3.36-1.68-4.32-4.176c4.128-2.976 7.7-6.096 10.73-9.36 3.02-3.264 5.45-7.344 7.27-12.24 1.25-4.416 1.13-7.392-0.36-8.928s-3.62-2.256-6.41-2.16c-0.86-0.288-1.97-0.216-3.31 0.216s-2.16 0.696-2.448 0.792c-1.92 1.056-3.6 2.52-5.04 4.392s-2.784 4.152-4.032 6.84c-1.824 5.184-2.784 9.408-2.88 12.672-0.024 0.806-0.03 1.571-0.018 2.295zm-57.294-41.031c3.168-0.576 6.936-1.512 11.304-2.808s8.544-2.688 12.528-4.176 7.368-3.024 10.152-4.608 4.128-3.048 4.032-4.392v-1.296c-0.384-1.44-1.92-2.928-4.608-4.464s-6.024-2.976-10.008-4.32-8.304-2.592-12.96-3.744-9.144-2.016-13.464-2.592c0.384 4.224 0.768 9.024 1.152 14.4s1.008 11.376 1.872 18zm57.294 41.031l0.018 0.009c0.061 0.184 0.059 0.351-0.007 0.501-0.005-0.168-0.009-0.338-0.011-0.51zm5.634-0.711c1.248-0.672 2.712-1.608 4.392-2.808s3.262-2.592 4.752-4.176 2.78-3.336 3.89-5.256c1.1-1.92 1.7-3.936 1.8-6.048 0.29-1.44 0.24-2.448-0.15-3.024-0.19-0.288-0.38-0.432-0.57-0.432-1.63-0.768-3.27-0.528-4.9 0.72s-3.118 3.024-4.462 5.328-2.472 4.872-3.384 7.704-1.368 5.496-1.368 7.992zm45.214-30.096c2.4 0.384 4.39 0.912 5.98 1.584 1.58 0.672 2.83 1.416 3.74 2.232s1.63 1.656 2.16 2.52 1.03 1.68 1.51 2.448c-0.09 0.384-0.55 0.336-1.36-0.144-0.82-0.48-1.61-0.96-2.38-1.44-2.11-1.344-4.66-2.16-7.63-2.448-2.98-0.288-5.74-0.12-8.28 0.504-2.55 0.624-4.59 1.704-6.12 3.24-1.54 1.536-1.92 3.408-1.15 5.616 0.76 2.208 2.13 4.128 4.1 5.76s4.15 3.096 6.55 4.392 4.8 2.472 7.2 3.528 4.37 2.112 5.91 3.168c1.92-1.056 3.55-1.944 4.89-2.664 1.35-0.72 2.55-1.392 3.6-2.016 1.06-0.624 2.14-1.2 3.24-1.728 1.11-0.528 2.38-1.128 3.82-1.8 0.19-0.096 0.36-0.144 0.5-0.144 0.15 0 0.15 0.12 0 0.36-0.14 0.24-0.53 0.624-1.15 1.152s-1.61 1.272-2.95 2.232c-0.67 0.48-1.92 1.296-3.75 2.448-1.82 1.152-3.79 2.4-5.9 3.744 1.15 1.056 2.06 2.16 2.74 3.312 0.57 1.056 0.98 2.184 1.22 3.384s0.02 2.424-0.65 3.672c-1.92 3.068-4.08 5.468-6.48 7.198s-4.61 2.93-6.62 3.6c-1.35 0.48-2.83 0.53-4.47 0.15-1.63-0.39-2.92-1.16-3.88-2.31-1.06-1.53-1.32-3.09-0.8-4.68 0.53-1.582 1.42-3.118 2.67-4.606s2.69-2.904 4.32-4.248 3.07-2.544 4.32-3.6c-0.87-0.96-2.55-2.136-5.04-3.528-2.5-1.392-5.07-2.928-7.71-4.608s-5.01-3.48-7.12-5.4c-2.12-1.92-3.27-3.84-3.46-5.76-0.38-2.112-0.12-4.152 0.79-6.12s2.26-3.696 4.03-5.184c1.78-1.488 3.84-2.592 6.2-3.312 2.35-0.72 4.82-0.888 7.41-0.504zm-1.29 49.39c1.05 0.48 2.25 0.48 3.6 0 1.34-0.48 2.61-1.17 3.81-2.09 1.2-0.91 2.26-1.92 3.17-3.02 0.91-1.104 1.51-2.088 1.8-2.952 0.29-0.768 0.02-1.608-0.79-2.52-0.82-0.912-1.66-1.656-2.52-2.232-1.06 0.768-2.26 1.752-3.6 2.952-1.35 1.2-2.52 2.424-3.53 3.672s-1.75 2.45-2.23 3.6-0.39 2.02 0.29 2.59zm42.19-46.942c4.13-0.288 8.18-0.6 12.17-0.936 3.98-0.336 8.13-0.696 12.45-1.08 0.96 0.096 1.59 0.6 1.87 1.512 0.29 0.912-0.09 1.464-1.15 1.656-3.55 0.384-7.63 0.912-12.24 1.584s-8.97 1.536-13.1 2.592c0.19 2.976 0.29 6.024 0.29 9.144s0.07 6.192 0.21 9.216c0.15 3.024 0.43 5.952 0.87 8.784 0.43 2.832 1.12 5.448 2.08 7.848 1.35 1.632 2.69 2.592 4.04 2.882 1.34 0.29 2.61 0.21 3.81-0.22s2.31-1.102 3.31-2.014c1.01-0.912 1.9-1.8 2.67-2.664 0.67-0.672 1.22-0.672 1.65 0 0.44 0.672 0.03 1.68-1.22 3.024-0.58 0.672-1.3 1.392-2.16 2.164-0.86 0.76-1.9 1.41-3.1 1.94s-2.54 0.86-4.03 1.01c-1.49 0.14-3.09-0.03-4.82-0.51-2.21-0.57-3.84-2.35-4.9-5.324-1.05-2.976-1.85-6.456-2.37-10.44-0.53-3.984-0.89-8.136-1.08-12.456-0.2-4.32-0.44-8.208-0.72-11.664-4.23 0.384-7.32 0.72-9.29 1.008s-3.39 0.48-4.25 0.576-1.44 0.048-1.73-0.144-0.81-0.624-1.58-1.296c0.09-0.48 0.12-0.936 0.07-1.368s-0.05-0.792 0-1.08 0.24-0.576 0.58-0.864c0.33-0.288 0.98-0.528 1.94-0.72 1.44-0.384 3.53-0.6 6.26-0.648 2.74-0.048 5.4-0.264 8-0.648-0.1-3.072-0.2-5.472-0.29-7.2-0.1-1.728-0.19-3.24-0.29-4.536s-0.17-2.568-0.22-3.816c-0.04-1.248-0.07-2.88-0.07-4.896 0-0.48 0.27-0.84 0.79-1.08 0.53-0.24 1.13-0.384 1.8-0.432 0.68-0.048 1.3 0.048 1.88 0.288 0.57 0.24 0.96 0.6 1.15 1.08 0.29 0.864 0.48 2.136 0.57 3.816 0.1 1.68 0.17 3.456 0.22 5.328s0.07 3.768 0.07 5.688-0.05 3.552-0.14 4.896zm51.37 2.627c0.09 0.13 0.17 0.262 0.25 0.397 0.34 0.576 0.58 1.104 0.72 1.584 0.15 0.48 0.12 0.72-0.07 0.72-0.28 0.046-0.55 0.09-0.82 0.131-0.01-0.597-0.03-1.193-0.04-1.787-0.01-0.351-0.02-0.7-0.04-1.045zm43.96 10.477c0 0.288 0.14 1.632 0.43 4.032s0.62 5.328 1.01 8.784c0.38 3.456 0.84 7.176 1.36 11.16 0.53 3.984 1.01 7.772 1.44 11.372 0.44 3.6 0.84 6.77 1.23 9.51 0.38 2.73 0.62 4.49 0.72 5.25-0.58-0.09-1.06-0.19-1.44-0.28-0.39-0.1-0.77-0.34-1.15-0.72-0.39-0.39-0.84-0.94-1.37-1.66s-1.27-1.75-2.23-3.1c-1.25-8.83-2.24-16.532-2.96-23.108s-1.32-11.928-1.8-16.056c-1.72 2.304-2.97 3.84-3.74 4.608s-1.25 1.152-1.44 1.152c-0.29 0-0.34-0.432-0.14-1.296 0.09-0.48 0.19-0.96 0.28-1.44 0.1-0.48 0.2-0.912 0.29-1.296 0.1-0.384 0.24-0.72 0.43-1.008 0.68-0.96 1.28-1.92 1.8-2.88 0.53-0.96 0.94-1.824 1.23-2.592 0.38-0.96 0.67-1.872 0.86-2.736-0.09-1.056-0.17-1.968-0.21-2.736-0.05-0.768-0.08-1.56-0.08-2.376s-0.02-1.656-0.07-2.52-0.07-1.968-0.07-3.312v-5.688-8.496c0-3.12 0.05-6.408 0.14-9.864 0.1-3.456 0.22-6.744 0.36-9.864 0.15-3.12 0.34-5.952 0.58-8.496s0.5-4.488 0.79-5.832c0.67-2.784 1.71-4.92 3.1-6.408s2.85-2.352 4.39-2.592 3.05 0.14399 4.54 1.152c1.48 1.008 2.61 2.568 3.38 4.68 0.86 2.112 1.3 4.848 1.3 8.208s-0.29 7.032-0.87 11.016c-0.57 3.984-1.37 8.136-2.37 12.456-1.01 4.32-2.09 8.52-3.24 12.6-1.16 4.08-2.31 7.896-3.46 11.448s-2.16 6.528-3.02 8.928zm-1.16-8.208c2.4-7.008 4.37-13.896 5.91-20.664 1.53-6.768 2.66-12.84 3.38-18.216s0.96-9.72 0.72-13.032-0.93-5.016-2.09-5.112c-1.82-0.672-3.26-0.048-4.32 1.872-1.05 1.92-1.89 4.608-2.52 8.064-0.62 3.456-1.03 7.416-1.22 11.88s-0.26 8.904-0.22 13.32c0.05 4.416 0.12 8.592 0.22 12.528s0.14 7.056 0.14 9.36zm59.04-61.488c0.58 0.576 0.99 1.2 1.23 1.872s0.38 1.392 0.43 2.16 0.07 1.656 0.07 2.664 0.05 2.184 0.15 3.528c4.99 2.688 10.36 5.424 16.12 8.208s11.16 5.784 16.2 9 9.44 6.744 13.18 10.584 6.19 8.112 7.34 12.816c0.96 5.856 0.51 11.424-1.36 16.704-1.88 5.28-4.83 10.056-8.86 14.328s-8.93 7.872-14.69 10.8-12 5.016-18.72 6.264c-2.4 0.48-4.73 0.626-6.98 0.432-2.26-0.192-4.32-0.696-6.19-1.512-1.88-0.816-3.48-1.944-4.83-3.384-1.34-1.44-2.3-3.12-2.88-5.04-0.09-1.152 0.07-2.136 0.51-2.952 0.43-0.816 0.88-1.392 1.36-1.728s0.87-0.456 1.16-0.36c0.28 0.096 0.24 0.528-0.15 1.296 0 2.016 0.39 3.624 1.15 4.824 0.77 1.2 1.73 2.136 2.88 2.808 1.16 0.672 2.36 1.176 3.6 1.512 1.25 0.336 2.31 0.6 3.17 0.792-0.48-2.976-0.91-6.696-1.29-11.16-0.39-4.464-0.8-9.264-1.23-14.4s-0.84-10.416-1.22-15.84c-0.39-5.424-0.77-10.656-1.15-15.696-0.39-5.04-0.8-9.648-1.23-13.824s-0.84-7.56-1.22-10.152c-2.59-1.152-4.66-2.136-6.19-2.952-1.54-0.816-2.86-1.536-3.96-2.16-1.11-0.624-2.19-1.176-3.24-1.656-1.06-0.48-2.4-0.96-4.04-1.44-0.76-0.96-0.98-1.728-0.64-2.304 0.33-0.576 0.6-1.392 0.79-2.448 2.4 0.576 4.32 1.128 5.76 1.656s2.66 1.056 3.67 1.584 2.02 1.008 3.02 1.44c1.01 0.432 2.38 0.84 4.11 1.224 0-0.864-0.03-1.512-0.07-1.944-0.05-0.432-0.1-0.792-0.15-1.08s-0.09-0.552-0.14-0.792-0.07-0.6-0.07-1.08c0.48-2.208 2.01-3.072 4.6-2.592zm5.04 50.544c0.2 1.632 0.41 3.72 0.65 6.264s0.48 5.28 0.72 8.208 0.51 5.928 0.79 9c0.29 3.072 0.53 5.952 0.72 8.64 0.2 2.688 0.39 5.088 0.58 7.2s0.34 3.648 0.43 4.608c2.21 0.288 5.21-0.096 9-1.152s7.73-2.856 11.81-5.4 7.92-5.832 11.52-9.864 6.36-8.928 8.28-14.688c0.67-4.416 0.43-8.4-0.72-11.952s-2.9-6.744-5.26-9.576c-2.35-2.832-5.2-5.376-8.56-7.632s-6.89-4.368-10.59-6.336c-3.69-1.968-7.46-3.792-11.3-5.472s-7.44-3.384-10.8-5.112c0 0.864 0.09 2.256 0.29 4.176 0.19 1.92 0.38 4.08 0.57 6.48s0.39 4.896 0.58 7.488 0.38 4.992 0.57 7.2c0.2 2.208 0.36 4.032 0.51 5.472 0.14 1.44 0.21 2.256 0.21 2.448zm64.66 8.208c0.29-0.096 1.1-0.36 2.45-0.792 1.34-0.432 2.45-0.504 3.31-0.216 2.78-0.096 4.92 0.624 6.41 2.16s1.61 4.512 0.36 8.928c-1.83 4.896-4.25 8.976-7.27 12.24-3.03 3.264-6.6 6.384-10.73 9.36 0.96 2.496 2.4 3.888 4.32 4.176s3.93-0.024 6.05-0.936c2.11-0.912 4.17-2.136 6.19-3.672 2.01-1.536 3.65-2.88 4.89-4.032 2.02-1.728 3.63-3.192 4.83-4.392s2.47-2.664 3.81-4.392c0.29-0.192 0.46-0.168 0.51 0.072s0.02 0.6-0.07 1.08c-0.1 0.48-0.24 1.152-0.44 2.016-0.28 0.672-0.57 1.272-0.86 1.8s-0.7 1.104-1.22 1.728c-0.53 0.624-1.23 1.368-2.09 2.232-0.87 0.864-1.92 2.016-3.17 3.456-1.44 1.344-2.83 2.664-4.18 3.96-1.34 1.296-2.76 2.424-4.24 3.384-1.49 0.96-3.12 1.632-4.9 2.016s-3.82 0.384-6.12 0c-1.92-0.672-3.46-1.392-4.61-2.16s-2.04-1.56-2.66-2.376c-0.63-0.816-1.08-1.56-1.37-2.232s-0.48-1.248-0.58-1.728c-0.48-1.92-0.67-4.512-0.57-7.776 0.09-3.264 1.05-7.488 2.88-12.672 1.25-2.688 2.59-4.968 4.03-6.84s3.12-3.336 5.04-4.392zm-6.34 25.488c1.25-0.672 2.72-1.608 4.4-2.808s3.26-2.592 4.75-4.176 2.78-3.336 3.89-5.256c1.1-1.92 1.7-3.936 1.8-6.048 0.28-1.44 0.24-2.448-0.15-3.024-0.19-0.288-0.38-0.432-0.57-0.432-1.64-0.768-3.27-0.528-4.9 0.72s-3.12 3.024-4.46 5.328c-1.35 2.304-2.48 4.872-3.39 7.704s-1.37 5.496-1.37 7.992zm45.22-30.096c2.4 0.384 4.39 0.912 5.98 1.584 1.58 0.672 2.83 1.416 3.74 2.232s1.63 1.656 2.16 2.52 1.03 1.68 1.51 2.448c-0.09 0.384-0.55 0.336-1.37-0.144-0.81-0.48-1.6-0.96-2.37-1.44-2.11-1.344-4.66-2.16-7.63-2.448-2.98-0.288-5.74-0.12-8.28 0.504-2.55 0.624-4.59 1.704-6.12 3.24-1.54 1.536-1.92 3.408-1.16 5.616 0.77 2.208 2.14 4.128 4.11 5.76s4.15 3.096 6.55 4.392 4.8 2.472 7.2 3.528 4.37 2.112 5.9 3.168c1.92-1.056 3.56-1.944 4.9-2.664s2.54-1.392 3.6-2.016 2.14-1.2 3.24-1.728 2.38-1.128 3.82-1.8c0.19-0.096 0.36-0.144 0.5-0.144s0.14 0.12 0 0.36-0.53 0.624-1.15 1.152c-0.63 0.528-1.61 1.272-2.95 2.232-0.68 0.48-1.92 1.296-3.75 2.448-1.82 1.152-3.79 2.4-5.9 3.744 1.15 1.056 2.06 2.16 2.73 3.312 0.58 1.056 0.99 2.184 1.23 3.384s0.02 2.424-0.65 3.672c-1.92 3.068-4.08 5.468-6.48 7.198s-4.61 2.93-6.62 3.6c-1.35 0.48-2.84 0.53-4.47 0.15-1.63-0.39-2.93-1.16-3.89-2.31-1.05-1.53-1.32-3.09-0.79-4.68 0.53-1.582 1.42-3.118 2.67-4.606 1.24-1.488 2.68-2.904 4.32-4.248 1.63-1.344 3.07-2.544 4.32-3.6-0.87-0.96-2.55-2.136-5.04-3.528-2.5-1.392-5.07-2.928-7.71-4.608s-5.01-3.48-7.13-5.4c-2.11-1.92-3.26-3.84-3.45-5.76-0.39-2.112-0.12-4.152 0.79-6.12s2.26-3.696 4.03-5.184c1.78-1.488 3.84-2.592 6.19-3.312 2.36-0.72 4.83-0.888 7.42-0.504zm-1.3 49.39c1.06 0.48 2.26 0.48 3.6 0 1.35-0.48 2.62-1.17 3.82-2.09 1.2-0.91 2.26-1.92 3.17-3.02 0.91-1.104 1.51-2.088 1.8-2.952 0.29-0.768 0.02-1.608-0.79-2.52-0.82-0.912-1.66-1.656-2.52-2.232-1.06 0.768-2.26 1.752-3.6 2.952-1.35 1.2-2.52 2.424-3.53 3.672s-1.75 2.45-2.23 3.6-0.39 2.02 0.28 2.59zm31.83-67.39c0.96-0.192 1.53 0.384 1.73 1.728 0.19 1.344 0 2.352-0.58 3.024-1.06 0.864-1.73 1.608-2.02 2.232-0.28 0.624-0.96 1.032-2.01 1.224-0.58-0.096-1.08-0.12-1.51-0.072-0.44 0.048-0.8-0.744-1.08-2.376 0.38-1.056 0.98-2.112 1.8-3.168 0.81-1.056 2.04-1.92 3.67-2.592zm0.43 18.72c0.48 4.608 0.82 9.672 1.01 15.192s0.53 11.304 1.01 17.352c0.38 3.072 0.76 5.472 1.15 7.2 0.38 1.728 0.67 3.36 0.86 4.896-1.53 0.29-2.73 0.26-3.6-0.072-0.86-0.336-1.68-0.744-2.45-1.224-0.19-1.536-0.4-4.08-0.64-7.632s-0.48-7.416-0.72-11.592-0.48-8.232-0.72-12.168-0.46-7.056-0.65-9.36c0.38-0.192 0.69-0.48 0.93-0.864s0.51-0.72 0.8-1.008c0.28-0.288 0.67-0.528 1.15-0.72s1.1-0.192 1.87 0zm53.71 28.944c0.19 0.192 0.17 0.528-0.07 1.008s-0.58 1.008-1.01 1.584-0.86 1.128-1.29 1.656c-0.44 0.528-0.75 0.888-0.94 1.08-2.3 2.592-4.37 4.824-6.19 6.696-1.83 1.872-3.31 3.48-4.47 4.822 0 0.1-0.02 0.65-0.07 1.66s-0.07 1.56-0.07 1.65c-0.19 3.27-0.26 6.56-0.22 9.87 0.05 3.31-0.16 6.65-0.64 10.01-0.58 3.84-1.18 6.93-1.8 9.28-0.63 2.36-1.28 4.28-1.95 5.76-0.67 1.49-1.37 2.74-2.09 3.75s-1.51 2.13-2.37 3.38c-0.77 1.06-1.63 1.97-2.59 2.74s-2.26 1.68-3.89 2.73c-2.21 1.35-4.51 2.36-6.91 3.03s-4.61 0.79-6.63 0.36c-2.01-0.43-3.72-1.51-5.11-3.24s-2.18-4.32-2.38-7.78c-0.19-3.84 0.48-7.63 2.02-11.37 1.54-3.75 3.36-7.16 5.47-10.23s4.18-5.66 6.19-7.77c2.02-2.12 3.41-3.56 4.18-4.32 1.25-1.35 2.38-2.5 3.38-3.46 1.01-0.96 2.04-1.85 3.1-2.66 1.06-0.82 2.18-1.71 3.38-2.67s2.62-2.11 4.25-3.454c0.39-2.304 0.63-4.728 0.72-7.272 0.1-2.544 0.1-5.16 0-7.848-1.73 3.552-3.57 6.336-5.54 8.352s-3.75 3.528-5.33 4.536-2.88 1.632-3.89 1.872-1.41 0.36-1.22 0.36c-1.83 0.288-3.29 0.36-4.39 0.216-1.11-0.144-1.97-0.432-2.6-0.864-0.62-0.432-1.1-0.936-1.44-1.512-0.33-0.576-0.6-1.152-0.79-1.728-0.48-2.496-0.45-5.064 0.07-7.704 0.53-2.64 1.32-5.16 2.38-7.56s2.21-4.608 3.46-6.624c1.24-2.016 2.4-3.648 3.45-4.896 0.19-0.192 0.65-0.696 1.37-1.512s1.66-1.728 2.81-2.736 2.57-2.04 4.25-3.096 3.62-2.016 5.83-2.88c2.21-0.48 4.46-0.696 6.77-0.648 2.3 0.048 4.17 0.6 5.61 1.656-0.77 0.288-1.94 0.648-3.53 1.08-1.58 0.432-2.61 0.744-3.09 0.936v0.288c0 0.288 0.09 0.432 0.29 0.432-1.64-0.384-4.18 0.288-7.64 2.016-3.45 1.728-7.2 5.04-11.23 9.936-1.82 2.592-3.21 4.92-4.17 6.984s-1.66 3.84-2.09 5.328-0.65 2.76-0.65 3.816 0.05 1.872 0.14 2.448c0.1 0.384 0.44 0.72 1.01 1.008 0.58 0.288 1.3 0.336 2.16 0.144 2.5-0.576 4.83-1.848 6.99-3.816s4.12-4.2 5.9-6.696 3.29-4.944 4.54-7.344c1.24-2.4 2.16-4.32 2.73-5.76 0.96-2.208 1.47-4.248 1.51-6.12 0.05-1.872-0.02-2.808-0.21-2.808h0.21 0.36c0.1 0 0.12 0.024 0.08 0.072-0.05 0.048-0.36 0.12-0.94 0.216 0.19-0.192 0.38-0.312 0.58-0.36 0.19-0.048 0.38-0.12 0.57-0.216-0.09-0.096-0.07-0.216 0.07-0.36 0.15-0.144 0.32-0.216 0.51-0.216 0-0.192 0.24-0.384 0.72-0.576l0.86-0.288 0.43-0.288c0.39-0.192 0.63-0.336 0.72-0.432 0.1-0.096 0.22-0.144 0.36-0.144 0.15 0 0.41 0.072 0.8 0.216 0.38 0.144 1.05 0.36 2.01 0.648-0.86 2.304-1.61 5.112-2.23 8.424s-1.18 6.648-1.66 10.008-0.88 6.552-1.22 9.576-0.65 5.4-0.94 7.128c0.77-0.768 1.9-1.68 3.39-2.736s2.95-2.112 4.39-3.168c1.73-1.152 3.55-2.352 5.47-3.6zm-18.14 24.916c0.29-2.21 0.24-3.56-0.15-4.04-0.19-0.28-0.43-0.38-0.72-0.28-2.59 2.11-4.7 3.88-6.33 5.32s-2.74 2.4-3.31 2.88c-4.61 4.32-8.04 8.14-10.3 11.45s-3.77 6.36-4.54 9.15c-1.05 3.07-1.65 5.78-1.8 8.13-0.14 2.35 0.46 4.63 1.8 6.84 2.4 1.83 5.02 2.19 7.85 1.08 2.83-1.1 5.45-2.81 7.85-5.11 2.78-3.17 5.04-7.61 6.77-13.32s2.69-13.08 2.88-22.1zm25.49-53.14c0 2.688-0.03 5.376-0.08 8.064-0.04 2.688-0.09 5.28-0.14 7.776s-0.1 4.848-0.14 7.056c-0.05 2.208-0.12 4.176-0.22 5.904 0-0.384 0.22-1.32 0.65-2.808s1.03-3.192 1.8-5.112 1.61-3.96 2.52-6.12 1.89-4.08 2.95-5.76 2.14-3 3.24-3.96 2.14-1.248 3.1-0.864c2.11 0.96 3.6 2.352 4.46 4.176s1.49 3.912 1.87 6.264c0.39 2.352 0.77 4.968 1.15 7.848 0.39 2.88 1.25 5.904 2.6 9.072 0.57 1.44 1.41 2.496 2.52 3.168 1.1 0.672 2.16 1.152 3.16 1.44 1.01 0.288 1.83 0.456 2.45 0.504 0.63 0.048 0.84 0.216 0.65 0.504-2.4 1.824-4.46 2.448-6.19 1.872s-3.19-1.848-4.39-3.816-2.19-4.32-2.96-7.056c-0.76-2.736-1.46-5.376-2.08-7.92-0.63-2.544-1.18-4.704-1.66-6.48s-1.01-2.664-1.58-2.664c-0.87 0.096-1.8 0.912-2.81 2.448s-2.04 3.456-3.1 5.76c-1.05 2.304-2.06 4.824-3.02 7.56s-1.85 5.304-2.67 7.704c-0.81 2.4-1.46 4.464-1.94 6.192s-0.77 2.784-0.86 3.168c-1.44 0-2.33 0.05-2.67 0.14-0.33 0.1-0.89-0.38-1.65-1.436 0.48-8.448 0.64-16.44 0.5-23.976s-0.36-14.088-0.65-19.656c0-0.864 0.22-1.296 0.65-1.296s0.91 0.192 1.44 0.576 1.08 0.768 1.66 1.152c0.57 0.384 1.05 0.576 1.44 0.576z"/>
   </g>
  </g>
 </g>
</svg>
