<svg xmlns="http://www.w3.org/2000/svg" height="158" width="568" viewBox="0 0 568 158"><title>Restful Design</title><desc>Created with Sketch.</desc><g fill-rule="evenodd" fill="none"><g fill="#fff"><g><path d="M231.74 60.715c-.28-.424-.6-.82-.97-1.187-.48-.48-.96-.768-1.44-.864-1.06 0-2.02.024-2.88.072-.87.048-1.8.096-2.81.144s-2.11.096-3.31.144-2.71.12-4.54.216c.1-2.016.15-4.632.15-7.848s.12-6.576.36-10.08.62-6.984 1.15-10.44 1.34-6.504 2.45-9.144c1.1-2.64 2.52-4.656 4.24-6.048 1.73-1.392 3.94-1.752 6.63-1.08 1.25 0 2.33.456 3.24 1.368s1.65 1.896 2.23 2.952 1.03 2.04 1.37 2.952c.33.912.6 1.368.79 1.368.1.192.14.336.14.432s.08.168.22.216.43.072.86.072h2.24c.57-.384.5-1.608-.22-3.672s-1.94-4.104-3.67-6.12-3.91-3.624-6.55-4.824-5.64-1.128-9 .216c-1.35.576-2.79 1.8-4.32 3.672-1.54 1.872-2.91 4.728-4.11 8.568s-2.11 8.856-2.73 15.048c-.63 6.192-.7 13.896-.22 23.112-3.36.384-6.43.72-9.22 1.008-2.78.288-4.46.528-5.04.72-.09.192-.31.528-.64 1.008-.34.48-.63.984-.87 1.512s-.36.96-.36 1.296.34.504 1.01.504c1.44-.096 2.64-.144 3.6-.144s1.94-.024 2.95-.072 2.19-.12 3.53-.216 3.12-.24 5.33-.432c.57 7.776 1.01 14.304 1.29 19.584.29 5.28.51 9.6.65 12.96.15 3.362.24 5.952.29 7.772.05 1.83.1 3.12.14 3.89.05.77.12 1.2.22 1.3.1.09.29.14.58.14.86.1 1.7.17 2.52.22.81.05 1.32-.31 1.51-1.08-.1-3.75-.27-7.3-.51-10.658-.24-3.36-.48-6.792-.72-10.296s-.5-7.2-.79-11.088-.48-8.28-.57-13.176c1.63-.096 3.09-.168 4.39-.216 1.29-.048 2.57-.12 3.81-.216 1.25-.096 2.55-.192 3.89-.288 1.13-.08 2.39-.23 3.79-.445.07 2.732.1 5.496.1 8.293v10.008c0 3.264.07 6.192.22 8.784.14 2.592.33 4.728.57 6.408s.65 2.664 1.23 2.952c.38.768 1.1 1.368 2.16 1.798 1.05.43 2.54.27 4.46-.5.58-.19 1.3-.914 2.16-2.162s1.78-2.736 2.74-4.464 1.92-3.552 2.88-5.472 1.82-3.648 2.59-5.184c.19 1.248.36 2.64.5 4.176.15 1.536.34 2.976.58 4.32s.53 2.52.86 3.528c.34 1.008.79 1.56 1.37 1.656 1.44.576 3.05.648 4.82.216 1.78-.432 3.46-1.176 5.04-2.232 1.59-1.056 3-2.352 4.25-3.888s2.07-3.12 2.45-4.752c-.29-.288-.96.024-2.02.936-1.05.912-2.23 1.944-3.52 3.096-1.3 1.152-2.64 2.112-4.04 2.88-1.39.768-2.61.816-3.67.144-1.25-.768-2.04-2.448-2.37-5.04-.34-2.592-.46-5.472-.36-8.64.09-3.168.31-6.36.64-9.576.34-3.216.6-5.88.8-7.992-.29-.096-.75-.192-1.37-.288-.63-.096-1.25-.144-1.87-.144-.63 0-1.18.072-1.66.216s-.72.504-.72 1.08c.38 2.784.1 6.048-.86 9.792s-2.16 7.272-3.6 10.584-2.93 6.024-4.47 8.136c-1.53 2.112-2.64 2.928-3.31 2.448-.58-.288-1.03-.864-1.37-1.728-.33-.864-.57-1.776-.72-2.736-.14-.96-.24-1.848-.29-2.664-.04-.816-.07-1.368-.07-1.656.19-7.872.46-14.592.79-20.16.34-5.568.27-9.456-.21-11.664-.39-.48-.87-.792-1.44-.936-.58-.144-1.15-.264-1.73-.36-.67-.096-1.34-.144-2.02-.144.18 2.49.31 5.188.4 8.1zM88.62 86.447c-.57-.282-1.09-.423-1.566-.423-.48 0-1.296-.12-2.448-.36s-2.784-.696-4.896-1.368-5.088-1.776-8.928-3.312c-2.88-1.632-5.4-3.096-7.56-4.392s-4.272-2.664-6.336-4.104-4.248-3.048-6.552-4.824-5.04-3.912-8.208-6.408c-2.112-2.112-3.84-3.888-5.184-5.328s-2.496-3.456-3.456-6.048c2.688-.576 5.976-1.368 9.864-2.376s7.776-2.184 11.664-3.528 7.44-2.808 10.656-4.392 5.544-3.192 6.984-4.824c2.016-1.728 3.096-3.84 3.24-6.336s-1.32-4.992-4.392-7.488-8.04-4.872-14.904-7.128-16.248-4.056-28.152-5.4c-1.536-.096-3.528-.24-5.976-.432s-4.992-.336-7.632-.432-5.232-.168-7.776-.216-4.632.024-6.264.216c-.192 1.536-.072 2.472.36 2.808s1.032.744 1.8 1.224c4.512.096 8.568.216 12.168.36s5.832.216 6.696.216c.384 2.976.72 5.784 1.008 8.424s.576 5.304.864 7.992.576 5.448.864 8.28.672 5.88 1.152 9.144c-1.44.48-2.76.864-3.96 1.152s-1.944.624-2.232 1.008c1.248 1.536 2.208 2.664 2.88 3.384s1.296 1.368 1.872 1.944 1.176 1.224 1.8 1.944 1.464 1.8 2.52 3.24c.192.672.312 1.056.36 1.152s.048.096 0 0-.096-.216-.144-.36l.072.216c.576 8.448 1.32 16.176 2.232 23.184s1.56 13.68 1.944 20.014c.672-.09 1.68.05 3.024.43 1.344.39 2.736.29 4.176-.28-.288-.87-.624-2.308-1.008-4.324s-.768-4.32-1.152-6.912-.792-5.328-1.224-8.208-.84-5.664-1.224-8.352-.744-5.112-1.08-7.272-.6-3.816-.792-4.968c.96.576 1.968 1.248 3.024 2.016.96.672 2.112 1.464 3.456 2.376s2.832 1.992 4.464 3.24c3.936 3.072 7.512 5.592 10.728 7.56s6.12 3.552 8.712 4.752 4.848 2.136 6.768 2.808 3.6 1.2 5.04 1.584c.672.192 1.752.36 3.24.504s2.952.216 4.392.216 2.688-.12 3.744-.36c.718-.163 1.148-.404 1.29-.723.054 1.98.25 3.638.582 4.97.096.48.288 1.057.576 1.73s.744 1.415 1.368 2.23 1.512 1.61 2.664 2.377 2.688 1.488 4.608 2.16c2.304.384 4.348.384 6.118 0 1.78-.384 3.41-1.056 4.9-2.016s2.9-2.088 4.25-3.384c1.34-1.296 2.73-2.616 4.17-3.96 1.25-1.44 2.31-2.592 3.17-3.456s1.56-1.608 2.09-2.232.93-1.2 1.22-1.728.58-1.128.87-1.8c.19-.864.33-1.536.43-2.016.09-.48.12-.84.07-1.08s-.22-.264-.5-.072c-1.35 1.728-2.62 3.192-3.82 4.392s-2.81 2.664-4.82 4.392c-1.25 1.152-2.88 2.496-4.9 4.032s-4.08 2.76-6.19 3.672-4.13 1.224-6.05.936-3.36-1.68-4.32-4.176c4.128-2.976 7.7-6.096 10.73-9.36 3.02-3.264 5.45-7.344 7.27-12.24 1.25-4.416 1.13-7.392-.36-8.928s-3.62-2.256-6.41-2.16c-.86-.288-1.97-.216-3.31.216s-2.16.696-2.448.792c-1.92 1.056-3.6 2.52-5.04 4.392s-2.784 4.152-4.032 6.84c-1.824 5.184-2.784 9.408-2.88 12.672-.024.806-.03 1.57-.018 2.295zm-57.294-41.03c3.168-.577 6.936-1.513 11.304-2.81s8.544-2.687 12.528-4.175 7.368-3.024 10.152-4.608 4.128-3.048 4.032-4.392v-1.296c-.384-1.44-1.92-2.928-4.608-4.464s-6.024-2.976-10.008-4.32-8.304-2.592-12.96-3.744-9.144-2.016-13.464-2.592c.384 4.224.768 9.024 1.152 14.4s1.008 11.376 1.872 18zm57.294 41.03l.018.01c.06.183.06.35-.007.5-.004-.168-.008-.338-.01-.51zm5.634-.71c1.248-.673 2.712-1.61 4.392-2.81s3.262-2.59 4.752-4.175 2.78-3.336 3.89-5.256c1.1-1.92 1.7-3.936 1.8-6.048.29-1.44.24-2.448-.15-3.024-.19-.288-.38-.432-.57-.432-1.63-.768-3.27-.528-4.9.72s-3.118 3.024-4.462 5.328-2.472 4.872-3.384 7.704-1.368 5.496-1.368 7.992zm45.214-30.097c2.4.384 4.39.912 5.98 1.584 1.58.672 2.83 1.416 3.74 2.232s1.63 1.656 2.16 2.52 1.03 1.68 1.51 2.448c-.09.384-.55.336-1.36-.144-.82-.48-1.61-.96-2.38-1.44-2.11-1.344-4.66-2.16-7.63-2.448-2.98-.288-5.74-.12-8.28.504-2.55.624-4.59 1.704-6.12 3.24-1.54 1.536-1.92 3.408-1.15 5.616.76 2.208 2.13 4.128 4.1 5.76s4.15 3.096 6.55 4.392 4.8 2.472 7.2 3.528 4.37 2.112 5.91 3.168c1.92-1.056 3.55-1.944 4.89-2.664 1.35-.72 2.55-1.392 3.6-2.016 1.06-.624 2.14-1.2 3.24-1.728 1.11-.528 2.38-1.128 3.82-1.8.19-.096.36-.144.5-.144.15 0 .15.12 0 .36-.14.24-.53.624-1.15 1.152s-1.61 1.272-2.95 2.232c-.67.48-1.92 1.296-3.75 2.448-1.82 1.152-3.79 2.4-5.9 3.744 1.15 1.056 2.06 2.16 2.74 3.312.57 1.056.98 2.184 1.22 3.384s.02 2.424-.65 3.672c-1.92 3.068-4.08 5.468-6.48 7.198s-4.61 2.93-6.62 3.6c-1.35.48-2.83.53-4.47.15-1.63-.39-2.92-1.16-3.88-2.31-1.06-1.53-1.32-3.09-.8-4.68.53-1.582 1.42-3.118 2.67-4.606s2.69-2.904 4.32-4.248 3.07-2.544 4.32-3.6c-.87-.96-2.55-2.136-5.04-3.528-2.5-1.392-5.07-2.928-7.71-4.608s-5.01-3.48-7.12-5.4c-2.12-1.92-3.27-3.84-3.46-5.76-.38-2.112-.12-4.152.79-6.12s2.26-3.696 4.03-5.184c1.78-1.488 3.84-2.592 6.2-3.312 2.35-.72 4.82-.888 7.41-.504zm-1.29 49.39c1.05.48 2.25.48 3.6 0 1.34-.48 2.61-1.17 3.81-2.09 1.2-.91 2.26-1.92 3.17-3.02.91-1.104 1.51-2.088 1.8-2.952.29-.768.02-1.608-.79-2.52-.82-.912-1.66-1.656-2.52-2.232-1.06.768-2.26 1.752-3.6 2.952-1.35 1.2-2.52 2.424-3.53 3.672s-1.75 2.45-2.23 3.6-.39 2.02.29 2.59zm42.19-46.942c4.13-.288 8.18-.6 12.17-.936 3.98-.336 8.13-.696 12.45-1.08.96.096 1.59.6 1.87 1.512.29.912-.09 1.464-1.15 1.656-3.55.384-7.63.912-12.24 1.584s-8.97 1.536-13.1 2.592c.19 2.976.29 6.024.29 9.144s.07 6.192.21 9.216c.15 3.024.43 5.952.87 8.784.43 2.832 1.12 5.448 2.08 7.848 1.35 1.632 2.69 2.592 4.04 2.882 1.34.29 2.61.21 3.81-.22s2.31-1.102 3.31-2.014c1.01-.912 1.9-1.8 2.67-2.664.67-.672 1.22-.672 1.65 0 .44.672.03 1.68-1.22 3.024-.58.672-1.3 1.392-2.16 2.164-.86.76-1.9 1.41-3.1 1.94s-2.54.86-4.03 1.01c-1.49.14-3.09-.03-4.82-.51-2.21-.57-3.84-2.35-4.9-5.324-1.05-2.976-1.85-6.456-2.37-10.44-.53-3.984-.89-8.136-1.08-12.456-.2-4.32-.44-8.208-.72-11.664-4.23.384-7.32.72-9.29 1.008s-3.39.48-4.25.576-1.44.048-1.73-.144-.81-.624-1.58-1.296c.09-.48.12-.936.07-1.368s-.05-.792 0-1.08.24-.576.58-.864c.33-.288.98-.528 1.94-.72 1.44-.384 3.53-.6 6.26-.648 2.74-.048 5.4-.264 8-.648-.1-3.072-.2-5.472-.29-7.2-.1-1.728-.19-3.24-.29-4.536s-.17-2.568-.22-3.816c-.04-1.248-.07-2.88-.07-4.896 0-.48.27-.84.79-1.08.53-.24 1.13-.384 1.8-.432.68-.048 1.3.048 1.88.288.57.24.96.6 1.15 1.08.29.864.48 2.136.57 3.816.1 1.68.17 3.456.22 5.328s.07 3.768.07 5.688-.05 3.552-.14 4.896zm51.37 2.627c.09.13.17.262.25.397.34.576.58 1.104.72 1.584.15.48.12.72-.07.72-.28.046-.55.09-.82.13-.01-.596-.03-1.192-.04-1.786-.01-.35-.02-.7-.04-1.045zm43.96 10.477c0 .288.14 1.632.43 4.032s.62 5.328 1.01 8.784c.38 3.456.84 7.176 1.36 11.16.53 3.984 1.01 7.772 1.44 11.372.44 3.6.84 6.77 1.23 9.51.38 2.73.62 4.49.72 5.25-.58-.09-1.06-.19-1.44-.28-.39-.1-.77-.34-1.15-.72-.39-.39-.84-.94-1.37-1.66s-1.27-1.75-2.23-3.1c-1.25-8.83-2.24-16.532-2.96-23.108s-1.32-11.928-1.8-16.056c-1.72 2.304-2.97 3.84-3.74 4.608s-1.25 1.152-1.44 1.152c-.29 0-.34-.432-.14-1.296.09-.48.19-.96.28-1.44.1-.48.2-.912.29-1.296.1-.384.24-.72.43-1.008.68-.96 1.28-1.92 1.8-2.88.53-.96.94-1.824 1.23-2.592.38-.96.67-1.872.86-2.736-.09-1.056-.17-1.968-.21-2.736-.05-.768-.08-1.56-.08-2.376s-.02-1.656-.07-2.52-.07-1.968-.07-3.312V43.76c0-3.12.05-6.408.14-9.864.1-3.456.22-6.744.36-9.864.15-3.12.34-5.952.58-8.496s.5-4.488.79-5.832c.67-2.784 1.71-4.92 3.1-6.408s2.85-2.352 4.39-2.592 3.05.144 4.54 1.152c1.48 1.008 2.61 2.568 3.38 4.68.86 2.112 1.3 4.848 1.3 8.208s-.29 7.032-.87 11.016c-.57 3.984-1.37 8.136-2.37 12.456-1.01 4.32-2.09 8.52-3.24 12.6-1.16 4.08-2.31 7.896-3.46 11.448s-2.16 6.528-3.02 8.928zm-1.16-8.208c2.4-7.008 4.37-13.896 5.91-20.664 1.53-6.768 2.66-12.84 3.38-18.216s.96-9.72.72-13.032-.93-5.016-2.09-5.112c-1.82-.672-3.26-.048-4.32 1.872-1.05 1.92-1.89 4.608-2.52 8.064-.62 3.456-1.03 7.416-1.22 11.88s-.26 8.904-.22 13.32c.05 4.416.12 8.592.22 12.528s.14 7.056.14 9.36zm59.04-61.488c.58.576.99 1.2 1.23 1.872s.38 1.392.43 2.16.07 1.656.07 2.664.05 2.184.15 3.528c4.99 2.688 10.36 5.424 16.12 8.208s11.16 5.784 16.2 9 9.44 6.744 13.18 10.584 6.19 8.112 7.34 12.816c.96 5.856.51 11.424-1.36 16.704-1.88 5.28-4.83 10.056-8.86 14.328s-8.93 7.872-14.69 10.8-12 5.016-18.72 6.264c-2.4.48-4.73.626-6.98.432-2.26-.192-4.32-.696-6.19-1.512-1.88-.816-3.48-1.944-4.83-3.384-1.34-1.44-2.3-3.12-2.88-5.04-.09-1.152.07-2.136.51-2.952.43-.816.88-1.392 1.36-1.728s.87-.456 1.16-.36c.28.096.24.528-.15 1.296 0 2.016.39 3.624 1.15 4.824.77 1.2 1.73 2.136 2.88 2.808 1.16.672 2.36 1.176 3.6 1.512 1.25.336 2.31.6 3.17.792-.48-2.976-.91-6.696-1.29-11.16-.39-4.464-.8-9.264-1.23-14.4s-.84-10.416-1.22-15.84c-.39-5.424-.77-10.656-1.15-15.696-.39-5.04-.8-9.648-1.23-13.824s-.84-7.56-1.22-10.152c-2.59-1.152-4.66-2.136-6.19-2.952-1.54-.816-2.86-1.536-3.96-2.16-1.11-.624-2.19-1.176-3.24-1.656-1.06-.48-2.4-.96-4.04-1.44-.76-.96-.98-1.728-.64-2.304.33-.576.6-1.392.79-2.448 2.4.576 4.32 1.128 5.76 1.656s2.66 1.056 3.67 1.584 2.02 1.008 3.02 1.44c1.01.432 2.38.84 4.11 1.224 0-.864-.03-1.512-.07-1.944-.05-.432-.1-.792-.15-1.08s-.09-.552-.14-.792-.07-.6-.07-1.08c.48-2.208 2.01-3.072 4.6-2.592zm5.04 50.544c.2 1.632.41 3.72.65 6.264s.48 5.28.72 8.208.51 5.928.79 9c.29 3.072.53 5.952.72 8.64.2 2.688.39 5.088.58 7.2s.34 3.648.43 4.608c2.21.288 5.21-.096 9-1.152s7.73-2.856 11.81-5.4 7.92-5.832 11.52-9.864 6.36-8.928 8.28-14.688c.67-4.416.43-8.4-.72-11.952s-2.9-6.744-5.26-9.576c-2.35-2.832-5.2-5.376-8.56-7.632s-6.89-4.368-10.59-6.336c-3.69-1.968-7.46-3.792-11.3-5.472s-7.44-3.384-10.8-5.112c0 .864.09 2.256.29 4.176.19 1.92.38 4.08.57 6.48s.39 4.896.58 7.488.38 4.992.57 7.2c.2 2.208.36 4.032.51 5.472.14 1.44.21 2.256.21 2.448zm64.66 8.208c.29-.096 1.1-.36 2.45-.792 1.34-.432 2.45-.504 3.31-.216 2.78-.096 4.92.624 6.41 2.16s1.61 4.512.36 8.928c-1.83 4.896-4.25 8.976-7.27 12.24-3.03 3.264-6.6 6.384-10.73 9.36.96 2.496 2.4 3.888 4.32 4.176s3.93-.024 6.05-.936c2.11-.912 4.17-2.136 6.19-3.672 2.01-1.536 3.65-2.88 4.89-4.032 2.02-1.728 3.63-3.192 4.83-4.392s2.47-2.664 3.81-4.392c.29-.192.46-.168.51.072s.02.6-.07 1.08c-.1.48-.24 1.152-.44 2.016-.28.672-.57 1.272-.86 1.8s-.7 1.104-1.22 1.728c-.53.624-1.23 1.368-2.09 2.232-.87.864-1.92 2.016-3.17 3.456-1.44 1.344-2.83 2.664-4.18 3.96-1.34 1.296-2.76 2.424-4.24 3.384-1.49.96-3.12 1.632-4.9 2.016s-3.82.384-6.12 0c-1.92-.672-3.46-1.392-4.61-2.16s-2.04-1.56-2.66-2.376c-.63-.816-1.08-1.56-1.37-2.232s-.48-1.248-.58-1.728c-.48-1.92-.67-4.512-.57-7.776.09-3.264 1.05-7.488 2.88-12.672 1.25-2.688 2.59-4.968 4.03-6.84s3.12-3.336 5.04-4.392zm-6.34 25.488c1.25-.672 2.72-1.608 4.4-2.808s3.26-2.592 4.75-4.176 2.78-3.336 3.89-5.256c1.1-1.92 1.7-3.936 1.8-6.048.28-1.44.24-2.448-.15-3.024-.19-.288-.38-.432-.57-.432-1.64-.768-3.27-.528-4.9.72s-3.12 3.024-4.46 5.328c-1.35 2.304-2.48 4.872-3.39 7.704s-1.37 5.496-1.37 7.992zm45.22-30.096c2.4.384 4.39.912 5.98 1.584 1.58.672 2.83 1.416 3.74 2.232s1.63 1.656 2.16 2.52 1.03 1.68 1.51 2.448c-.09.384-.55.336-1.37-.144-.81-.48-1.6-.96-2.37-1.44-2.11-1.344-4.66-2.16-7.63-2.448-2.98-.288-5.74-.12-8.28.504-2.55.624-4.59 1.704-6.12 3.24-1.54 1.536-1.92 3.408-1.16 5.616.77 2.208 2.14 4.128 4.11 5.76s4.15 3.096 6.55 4.392 4.8 2.472 7.2 3.528 4.37 2.112 5.9 3.168c1.92-1.056 3.56-1.944 4.9-2.664s2.54-1.392 3.6-2.016 2.14-1.2 3.24-1.728 2.38-1.128 3.82-1.8c.19-.096.36-.144.5-.144s.14.12 0 .36-.53.624-1.15 1.152c-.63.528-1.61 1.272-2.95 2.232-.68.48-1.92 1.296-3.75 2.448-1.82 1.152-3.79 2.4-5.9 3.744 1.15 1.056 2.06 2.16 2.73 3.312.58 1.056.99 2.184 1.23 3.384s.02 2.424-.65 3.672c-1.92 3.068-4.08 5.468-6.48 7.198s-4.61 2.93-6.62 3.6c-1.35.48-2.84.53-4.47.15-1.63-.39-2.93-1.16-3.89-2.31-1.05-1.53-1.32-3.09-.79-4.68.53-1.582 1.42-3.118 2.67-4.606 1.24-1.488 2.68-2.904 4.32-4.248 1.63-1.344 3.07-2.544 4.32-3.6-.87-.96-2.55-2.136-5.04-3.528-2.5-1.392-5.07-2.928-7.71-4.608s-5.01-3.48-7.13-5.4c-2.11-1.92-3.26-3.84-3.45-5.76-.39-2.112-.12-4.152.79-6.12s2.26-3.696 4.03-5.184c1.78-1.488 3.84-2.592 6.19-3.312 2.36-.72 4.83-.888 7.42-.504zm-1.3 49.39c1.06.48 2.26.48 3.6 0 1.35-.48 2.62-1.17 3.82-2.09 1.2-.91 2.26-1.92 3.17-3.02.91-1.104 1.51-2.088 1.8-2.952.29-.768.02-1.608-.79-2.52-.82-.912-1.66-1.656-2.52-2.232-1.06.768-2.26 1.752-3.6 2.952-1.35 1.2-2.52 2.424-3.53 3.672s-1.75 2.45-2.23 3.6-.39 2.02.28 2.59zm31.83-67.39c.96-.192 1.53.384 1.73 1.728.19 1.344 0 2.352-.58 3.024-1.06.864-1.73 1.608-2.02 2.232-.28.624-.96 1.032-2.01 1.224-.58-.096-1.08-.12-1.51-.072-.44.048-.8-.744-1.08-2.376.38-1.056.98-2.112 1.8-3.168.81-1.056 2.04-1.92 3.67-2.592zm.43 18.72c.48 4.608.82 9.672 1.01 15.192s.53 11.304 1.01 17.352c.38 3.072.76 5.472 1.15 7.2.38 1.728.67 3.36.86 4.896-1.53.29-2.73.26-3.6-.072-.86-.336-1.68-.744-2.45-1.224-.19-1.536-.4-4.08-.64-7.632s-.48-7.416-.72-11.592-.48-8.232-.72-12.168-.46-7.056-.65-9.36c.38-.192.69-.48.93-.864s.51-.72.8-1.008c.28-.288.67-.528 1.15-.72s1.1-.192 1.87 0zm53.71 28.944c.19.192.17.528-.07 1.008s-.58 1.008-1.01 1.584-.86 1.128-1.29 1.656c-.44.528-.75.888-.94 1.08-2.3 2.592-4.37 4.824-6.19 6.696-1.83 1.872-3.31 3.48-4.47 4.822 0 .1-.02.65-.07 1.66s-.07 1.56-.07 1.65c-.19 3.27-.26 6.56-.22 9.87.05 3.31-.16 6.65-.64 10.01-.58 3.84-1.18 6.93-1.8 9.28-.63 2.36-1.28 4.28-1.95 5.76-.67 1.49-1.37 2.74-2.09 3.75s-1.51 2.13-2.37 3.38c-.77 1.06-1.63 1.97-2.59 2.74s-2.26 1.68-3.89 2.73c-2.21 1.35-4.51 2.36-6.91 3.03s-4.61.79-6.63.36c-2.01-.43-3.72-1.51-5.11-3.24s-2.18-4.32-2.38-7.78c-.19-3.84.48-7.63 2.02-11.37 1.54-3.75 3.36-7.16 5.47-10.23s4.18-5.66 6.19-7.77c2.02-2.12 3.41-3.56 4.18-4.32 1.25-1.35 2.38-2.5 3.38-3.46 1.01-.96 2.04-1.85 3.1-2.66 1.06-.82 2.18-1.71 3.38-2.67s2.62-2.11 4.25-3.454c.39-2.304.63-4.728.72-7.272.1-2.544.1-5.16 0-7.848-1.73 3.552-3.57 6.336-5.54 8.352s-3.75 3.528-5.33 4.536-2.88 1.632-3.89 1.872-1.41.36-1.22.36c-1.83.288-3.29.36-4.39.216-1.11-.144-1.97-.432-2.6-.864-.62-.432-1.1-.936-1.44-1.512-.33-.576-.6-1.152-.79-1.728-.48-2.496-.45-5.064.07-7.704.53-2.64 1.32-5.16 2.38-7.56s2.21-4.608 3.46-6.624c1.24-2.016 2.4-3.648 3.45-4.896.19-.192.65-.696 1.37-1.512s1.66-1.728 2.81-2.736 2.57-2.04 4.25-3.096 3.62-2.016 5.83-2.88c2.21-.48 4.46-.696 6.77-.648 2.3.048 4.17.6 5.61 1.656-.77.288-1.94.648-3.53 1.08-1.58.432-2.61.744-3.09.936v.288c0 .288.09.432.29.432-1.64-.384-4.18.288-7.64 2.016-3.45 1.728-7.2 5.04-11.23 9.936-1.82 2.592-3.21 4.92-4.17 6.984s-1.66 3.84-2.09 5.328-.65 2.76-.65 3.816.05 1.872.14 2.448c.1.384.44.72 1.01 1.008.58.288 1.3.336 2.16.144 2.5-.576 4.83-1.848 6.99-3.816s4.12-4.2 5.9-6.696 3.29-4.944 4.54-7.344c1.24-2.4 2.16-4.32 2.73-5.76.96-2.208 1.47-4.248 1.51-6.12.05-1.872-.02-2.808-.21-2.808h.57c.1 0 .12.024.08.072-.05.048-.36.12-.94.216.19-.192.38-.312.58-.36.19-.048.38-.12.57-.216-.09-.096-.07-.216.07-.36.15-.144.32-.216.51-.216 0-.192.24-.384.72-.576l.86-.288.43-.288c.39-.192.63-.336.72-.432.1-.096.22-.144.36-.144.15 0 .41.072.8.216.38.144 1.05.36 2.01.648-.86 2.304-1.61 5.112-2.23 8.424s-1.18 6.648-1.66 10.008-.88 6.552-1.22 9.576-.65 5.4-.94 7.128c.77-.768 1.9-1.68 3.39-2.736s2.95-2.112 4.39-3.168c1.73-1.152 3.55-2.352 5.47-3.6zm-18.14 24.916c.29-2.21.24-3.56-.15-4.04-.19-.28-.43-.38-.72-.28-2.59 2.11-4.7 3.88-6.33 5.32s-2.74 2.4-3.31 2.88c-4.61 4.32-8.04 8.14-10.3 11.45s-3.77 6.36-4.54 9.15c-1.05 3.07-1.65 5.78-1.8 8.13-.14 2.35.46 4.63 1.8 6.84 2.4 1.83 5.02 2.19 7.85 1.08 2.83-1.1 5.45-2.81 7.85-5.11 2.78-3.17 5.04-7.61 6.77-13.32s2.69-13.08 2.88-22.1zm25.49-53.14c0 2.688-.03 5.376-.08 8.064-.04 2.688-.09 5.28-.14 7.776s-.1 4.848-.14 7.056c-.05 2.208-.12 4.176-.22 5.904 0-.384.22-1.32.65-2.808s1.03-3.192 1.8-5.112 1.61-3.96 2.52-6.12 1.89-4.08 2.95-5.76 2.14-3 3.24-3.96 2.14-1.248 3.1-.864c2.11.96 3.6 2.352 4.46 4.176s1.49 3.912 1.87 6.264c.39 2.352.77 4.968 1.15 7.848.39 2.88 1.25 5.904 2.6 9.072.57 1.44 1.41 2.496 2.52 3.168 1.1.672 2.16 1.152 3.16 1.44 1.01.288 1.83.456 2.45.504.63.048.84.216.65.504-2.4 1.824-4.46 2.448-6.19 1.872s-3.19-1.848-4.39-3.816-2.19-4.32-2.96-7.056c-.76-2.736-1.46-5.376-2.08-7.92-.63-2.544-1.18-4.704-1.66-6.48s-1.01-2.664-1.58-2.664c-.87.096-1.8.912-2.81 2.448s-2.04 3.456-3.1 5.76c-1.05 2.304-2.06 4.824-3.02 7.56s-1.85 5.304-2.67 7.704c-.81 2.4-1.46 4.464-1.94 6.192s-.77 2.784-.86 3.168c-1.44 0-2.33.05-2.67.14-.33.1-.89-.38-1.65-1.436.48-8.448.64-16.44.5-23.976s-.36-14.088-.65-19.656c0-.864.22-1.296.65-1.296s.91.192 1.44.576 1.08.768 1.66 1.152c.57.384 1.05.576 1.44.576z"/></g></g></g></svg>