<?xml version="1.0" encoding="UTF-8" standalone="no"?>
<svg width="133px" height="40px" viewBox="0 0 133 40" version="1.1" xmlns="http://www.w3.org/2000/svg" xmlns:xlink="http://www.w3.org/1999/xlink" xmlns:sketch="http://www.bohemiancoding.com/sketch/ns">
    <!-- Generator: Sketch 3.0.4 (8054) - http://www.bohemiancoding.com/sketch -->
    <title>logo 2</title>
    <desc>Created with Sketch.</desc>
    <defs></defs>
    <g id="Page-1" stroke="none" stroke-width="1" fill="none" fill-rule="evenodd" sketch:type="MSPage">
        <path d="M48.9719565,15.9287055 C48.9011875,15.8227704 48.8198691,15.7238691 48.728,15.632 C48.6079994,15.5119994 48.4880006,15.4400001 48.368,15.416 C48.1039987,15.416 47.8640011,15.4219999 47.648,15.434 C47.4319989,15.4460001 47.1980013,15.4579999 46.946,15.47 C46.6939987,15.4820001 46.4180015,15.4939999 46.118,15.506 C45.8179985,15.5180001 45.4400023,15.5359999 44.984,15.56 C45.0080001,15.0559975 45.02,14.402004 45.02,13.598 C45.02,12.793996 45.0499997,11.9540044 45.11,11.078 C45.1700003,10.2019956 45.2659993,9.33200432 45.398,8.468 C45.5300007,7.60399568 45.7339986,6.8420033 46.01,6.182 C46.2860014,5.5219967 46.6399978,5.01800174 47.072,4.67 C47.5040022,4.32199826 48.0559966,4.23199916 48.728,4.4 C49.0400016,4.4 49.3099989,4.51399886 49.538,4.742 C49.7660011,4.97000114 49.9519993,5.21599868 50.096,5.48 C50.2400007,5.74400132 50.3539996,5.98999886 50.438,6.218 C50.5220004,6.44600114 50.5879998,6.56 50.636,6.56 C50.6600001,6.60800024 50.672,6.64399988 50.672,6.668 C50.672,6.69200012 50.6899998,6.70999994 50.726,6.722 C50.7620002,6.73400006 50.8339995,6.74 50.942,6.74 L51.5,6.74 C51.6440007,6.64399952 51.6260009,6.33800258 51.446,5.822 C51.2659991,5.30599742 50.9600022,4.79600252 50.528,4.292 C50.0959978,3.78799748 49.5500033,3.3860015 48.89,3.086 C48.2299967,2.7859985 47.4800042,2.80399832 46.64,3.14 C46.3039983,3.28400072 45.9440019,3.58999766 45.56,4.058 C45.1759981,4.52600234 44.8340015,5.2399952 44.534,6.2 C44.2339985,7.1600048 44.0060008,8.41399226 43.85,9.962 C43.6939992,11.5100077 43.6759994,13.4359885 43.796,15.74 C42.9559958,15.8360005 42.1880035,15.9199996 41.492,15.992 C40.7959965,16.0640004 40.3760007,16.1239998 40.232,16.172 C40.2079999,16.2200002 40.1540004,16.3039994 40.07,16.424 C39.9859996,16.5440006 39.9140003,16.6699993 39.854,16.802 C39.7939997,16.9340007 39.764,17.0419996 39.764,17.126 C39.764,17.2100004 39.8479992,17.252 40.016,17.252 C40.3760018,17.2279999 40.6759988,17.216 40.916,17.216 C41.1560012,17.216 41.4019987,17.2100001 41.654,17.198 C41.9060013,17.1859999 42.1999983,17.1680001 42.536,17.144 C42.8720017,17.1199999 43.3159972,17.0840002 43.868,17.036 C44.0120007,18.9800097 44.1199996,20.6119934 44.192,21.932 C44.2640004,23.2520066 44.3179998,24.3319958 44.354,25.172 C44.3900002,26.0120042 44.4139999,26.6599977 44.426,27.116 C44.4380001,27.5720023 44.4499999,27.895999 44.462,28.088 C44.4740001,28.280001 44.4919999,28.3879999 44.516,28.412 C44.5400001,28.4360001 44.5879996,28.448 44.66,28.448 C44.8760011,28.4720001 45.085999,28.4899999 45.29,28.502 C45.494001,28.5140001 45.6199998,28.424001 45.668,28.232 C45.6439999,27.2959953 45.6020003,26.4080042 45.542,25.568 C45.4819997,24.7279958 45.4220003,23.8700044 45.362,22.994 C45.3019997,22.1179956 45.2360004,21.1940049 45.164,20.222 C45.0919996,19.2499951 45.0440001,18.1520061 45.02,16.928 C45.428002,16.9039999 45.7939984,16.8860001 46.118,16.874 C46.4420016,16.8619999 46.7599984,16.8440001 47.072,16.82 C47.3840016,16.7959999 47.7079983,16.7720001 48.044,16.748 C48.3260889,16.7278508 48.6420062,16.6907859 48.9917586,16.6368045 C49.0079196,17.3197899 49.016,18.0108504 49.016,18.71 L49.016,21.212 C49.016,22.0280041 49.0339998,22.7599968 49.07,23.408 C49.1060002,24.0560032 49.1539997,24.5899979 49.214,25.01 C49.2740003,25.4300021 49.3759993,25.6759996 49.52,25.748 C49.6160005,25.940001 49.7959987,26.0899995 50.06,26.198 C50.3240013,26.3060005 50.6959976,26.264001 51.176,26.072 C51.3200007,26.0239998 51.4999989,25.8440016 51.716,25.532 C51.9320011,25.2199984 52.1599988,24.8480022 52.4,24.416 C52.6400012,23.9839978 52.8799988,23.5280024 53.12,23.048 C53.3600012,22.5679976 53.575999,22.1360019 53.768,21.752 C53.8160002,22.0640016 53.8579998,22.4119981 53.894,22.796 C53.9300002,23.1800019 53.9779997,23.5399983 54.038,23.876 C54.0980003,24.2120017 54.1699996,24.5059987 54.254,24.758 C54.3380004,25.0100013 54.4519993,25.1479999 54.596,25.172 C54.9560018,25.3160007 55.3579978,25.3340005 55.802,25.226 C56.2460022,25.1179995 56.665998,24.9320013 57.062,24.668 C57.458002,24.4039987 57.8119984,24.0800019 58.124,23.696 C58.4360016,23.3119981 58.6399995,22.916002 58.736,22.508 C58.6639996,22.4359996 58.4960013,22.5139989 58.232,22.742 C57.9679987,22.9700011 57.6740016,23.2279986 57.35,23.516 C57.0259984,23.8040014 56.6900017,24.043999 56.342,24.236 C55.9939983,24.428001 55.6880013,24.4400008 55.424,24.272 C55.1119984,24.079999 54.9140004,23.6600032 54.83,23.012 C54.7459996,22.3639968 54.7159999,21.644004 54.74,20.852 C54.7640001,20.059996 54.8179996,19.262004 54.902,18.458 C54.9860004,17.653996 55.0519998,16.9880026 55.1,16.46 C55.0279996,16.4359999 54.9140008,16.4120001 54.758,16.388 C54.6019992,16.3639999 54.4460008,16.352 54.29,16.352 C54.1339992,16.352 53.9960006,16.3699998 53.876,16.406 C53.7559994,16.4420002 53.696,16.5319993 53.696,16.676 C53.7920005,17.3720035 53.7200012,18.1879953 53.48,19.124 C53.2399988,20.0600047 52.9400018,20.9419959 52.58,21.77 C52.2199982,22.5980041 51.8480019,23.2759974 51.464,23.804 C51.0799981,24.3320026 50.8040008,24.5360006 50.636,24.416 C50.4919993,24.3439996 50.3780004,24.2000011 50.294,23.984 C50.2099996,23.7679989 50.1500002,23.5400012 50.114,23.3 C50.0779998,23.0599988 50.0540001,22.838001 50.042,22.634 C50.0299999,22.429999 50.024,22.2920004 50.024,22.22 C50.0720002,20.2519902 50.1379996,18.572007 50.222,17.18 C50.3060004,15.787993 50.2880006,14.8160028 50.168,14.264 C50.0719995,14.1439994 49.9520007,14.0660002 49.808,14.03 C49.6639993,13.9939998 49.5200007,13.9640001 49.376,13.94 C49.2079992,13.9159999 49.0400008,13.904 48.872,13.904 C48.914908,14.526166 48.9482266,15.2010624 48.9719565,15.9287055 L48.9719565,15.9287055 Z M22.1553906,22.3617056 C22.0131813,22.2912348 21.8827191,22.256 21.764,22.256 C21.6439994,22.256 21.4400014,22.2260003 21.152,22.166 C20.8639986,22.1059997 20.4560026,21.9920008 19.928,21.824 C19.3999974,21.6559992 18.6560048,21.3800019 17.696,20.996 C16.9759964,20.587998 16.3460027,20.2220016 15.806,19.898 C15.2659973,19.5739984 14.7380026,19.2320018 14.222,18.872 C13.7059974,18.5119982 13.1600029,18.1100022 12.584,17.666 C12.0079971,17.2219978 11.324004,16.6880031 10.532,16.064 C10.0039974,15.5359974 9.57200168,15.0920018 9.236,14.732 C8.89999832,14.3719982 8.6120012,13.8680032 8.372,13.22 C9.04400336,13.0759993 9.86599514,12.8780013 10.838,12.626 C11.8100049,12.3739987 12.7819951,12.0800017 13.754,11.744 C14.7260049,11.4079983 15.613996,11.042002 16.418,10.646 C17.222004,10.249998 17.8039982,9.84800204 18.164,9.44 C18.6680025,9.00799784 18.9379998,8.48000312 18.974,7.856 C19.0100002,7.23199688 18.6440038,6.60800312 17.876,5.984 C17.1079962,5.35999688 15.8660086,4.76600282 14.15,4.202 C12.4339914,3.63799718 10.0880149,3.18800168 7.112,2.852 C6.72799808,2.82799988 6.23000306,2.79200024 5.618,2.744 C5.00599694,2.69599976 4.3700033,2.66000012 3.71,2.636 C3.0499967,2.61199988 2.40200318,2.59400006 1.766,2.582 C1.12999682,2.56999994 0.60800204,2.58799976 0.2,2.636 C0.15199976,3.02000192 0.18199946,3.25399958 0.29,3.338 C0.39800054,3.42200042 0.54799904,3.5239994 0.74,3.644 C1.86800564,3.66800012 2.8819955,3.69799982 3.782,3.734 C4.6820045,3.77000018 5.23999892,3.788 5.456,3.788 C5.55200048,4.53200372 5.63599964,5.2339967 5.708,5.894 C5.78000036,6.5540033 5.85199964,7.21999664 5.924,7.892 C5.99600036,8.56400336 6.06799964,9.25399646 6.14,9.962 C6.21200036,10.6700035 6.3079994,11.4319959 6.428,12.248 C6.0679982,12.3680006 5.7380015,12.4639996 5.438,12.536 C5.1379985,12.6080004 4.95200036,12.6919995 4.88,12.788 C5.19200156,13.1720019 5.43199916,13.4539991 5.6,13.634 C5.76800084,13.8140009 5.92399928,13.9759993 6.068,14.12 C6.21200072,14.2640007 6.36199922,14.4259991 6.518,14.606 C6.67400078,14.7860009 6.88399868,15.0559982 7.148,15.416 C7.19600024,15.5840008 7.22599994,15.6799999 7.238,15.704 C7.25000006,15.7280001 7.25000006,15.7280001 7.238,15.704 C7.22599994,15.6799999 7.21400006,15.6500002 7.202,15.614 C7.18999994,15.5779998 7.19599988,15.5959996 7.22,15.668 C7.36400072,17.7800106 7.54999886,19.7119912 7.778,21.464 C8.00600114,23.2160088 8.16799952,24.8839921 8.264,26.468 C8.43200084,26.4439999 8.68399832,26.4799995 9.02,26.576 C9.35600168,26.6720005 9.7039982,26.6480007 10.064,26.504 C9.99199964,26.2879989 9.90800048,25.9280025 9.812,25.424 C9.71599952,24.9199975 9.62000048,24.3440032 9.524,23.696 C9.42799952,23.0479968 9.32600054,22.3640036 9.218,21.644 C9.10999946,20.9239964 9.00800048,20.2280034 8.912,19.556 C8.81599952,18.8839966 8.72600042,18.2780027 8.642,17.738 C8.55799958,17.1979973 8.49200024,16.7840014 8.444,16.496 C8.6840012,16.6400007 8.93599868,16.807999 9.2,17 C9.4400012,17.1680008 9.72799832,17.3659989 10.064,17.594 C10.4000017,17.8220011 10.771998,18.0919984 11.18,18.404 C12.1640049,19.1720038 13.057996,19.8019975 13.862,20.294 C14.666004,20.7860025 15.3919968,21.1819985 16.04,21.482 C16.6880032,21.7820015 17.2519976,22.0159992 17.732,22.184 C18.2120024,22.3520008 18.6319982,22.4839995 18.992,22.58 C19.1600008,22.6280002 19.4299981,22.6699998 19.802,22.706 C20.1740019,22.7420002 20.5399982,22.76 20.9,22.76 C21.2600018,22.76 21.5719987,22.7300003 21.836,22.67 C22.0155533,22.6291924 22.1229451,22.5689576 22.1581763,22.4892947 C22.1720781,22.9845103 22.2206858,23.3987433 22.304,23.732 C22.3280001,23.8520006 22.3759996,23.9959992 22.448,24.164 C22.5200004,24.3320008 22.6339992,24.517999 22.79,24.722 C22.9460008,24.926001 23.1679986,25.123999 23.456,25.316 C23.7440014,25.508001 24.1279976,25.6879992 24.608,25.856 C25.1840029,25.9520005 25.6939978,25.9520005 26.138,25.856 C26.5820022,25.7599995 26.9899981,25.5920012 27.362,25.352 C27.7340019,25.1119988 28.0879983,24.8300016 28.424,24.506 C28.7600017,24.1819984 29.1079982,23.8520017 29.468,23.516 C29.7800016,23.1559982 30.0439989,22.8680011 30.26,22.652 C30.4760011,22.4359989 30.6499993,22.2500008 30.782,22.094 C30.9140007,21.9379992 31.0159996,21.7940007 31.088,21.662 C31.1600004,21.5299993 31.2319996,21.3800008 31.304,21.212 C31.3520002,20.9959989 31.3879999,20.8280006 31.412,20.708 C31.4360001,20.5879994 31.4420001,20.4980003 31.43,20.438 C31.4179999,20.3779997 31.3760004,20.3719998 31.304,20.42 C30.9679983,20.8520022 30.6500015,21.2179985 30.35,21.518 C30.0499985,21.8180015 29.6480025,22.1839978 29.144,22.616 C28.8319984,22.9040014 28.4240025,23.2399981 27.92,23.624 C27.4159975,24.0080019 26.9000026,24.3139989 26.372,24.542 C25.8439974,24.7700011 25.3400024,24.8480004 24.86,24.776 C24.3799976,24.7039996 24.0200012,24.3560031 23.78,23.732 C24.8120052,22.9879963 25.7059962,22.2080041 26.462,21.392 C27.2180038,20.5759959 27.8239977,19.5560061 28.28,18.332 C28.5920016,17.2279945 28.5620019,16.4840019 28.19,16.1 C27.8179981,15.7159981 27.2840035,15.5359999 26.588,15.56 C26.3719989,15.4879996 26.0960017,15.5059995 25.76,15.614 C25.4239983,15.7220005 25.2200004,15.7879999 25.148,15.812 C24.6679976,16.0760013 24.2480018,16.4419977 23.888,16.91 C23.5279982,17.3780023 23.1920016,17.9479966 22.88,18.62 C22.4239977,19.9160065 22.1840001,20.9719959 22.16,21.788 C22.1540742,21.9894776 22.1525377,22.1807127 22.1553906,22.3617056 L22.1553906,22.3617056 Z M7.832,12.104 C8.62400396,11.9599993 9.56599454,11.7260016 10.658,11.402 C11.7500055,11.0779984 12.793995,10.7300019 13.79,10.358 C14.786005,9.98599814 15.6319965,9.60200198 16.328,9.206 C17.0240035,8.80999802 17.3600001,8.44400168 17.336,8.108 L17.336,7.784 C17.2399995,7.4239982 16.8560034,7.05200192 16.184,6.668 C15.5119966,6.28399808 14.678005,5.92400168 13.682,5.588 C12.685995,5.25199832 11.6060058,4.94000144 10.442,4.652 C9.27799418,4.36399856 8.1560054,4.14800072 7.076,4.004 C7.17200048,5.06000528 7.26799952,6.25999328 7.364,7.604 C7.46000048,8.94800672 7.61599892,10.4479917 7.832,12.104 Z M22.1553906,22.3617056 C22.1569257,22.3624663 22.1584622,22.3632311 22.16,22.364 C22.1753542,22.4100625 22.1747463,22.4518274 22.1581763,22.4892947 C22.1569987,22.4473461 22.1560701,22.4048164 22.1553906,22.3617056 L22.1553906,22.3617056 Z M23.564,22.184 C23.8760016,22.0159992 24.2419979,21.7820015 24.662,21.482 C25.0820021,21.1819985 25.4779981,20.834002 25.85,20.438 C26.2220019,20.041998 26.5459986,19.6040024 26.822,19.124 C27.0980014,18.6439976 27.2479999,18.1400026 27.272,17.612 C27.3440004,17.2519982 27.3320005,17.0000007 27.236,16.856 C27.1879998,16.7839996 27.1400002,16.748 27.092,16.748 C26.683998,16.555999 26.276002,16.6159984 25.868,16.928 C25.459998,17.2400016 25.0880017,17.6839971 24.752,18.26 C24.4159983,18.8360029 24.1340011,19.4779965 23.906,20.186 C23.6779989,20.8940035 23.564,21.5599969 23.564,22.184 Z M34.868,14.66 C35.468003,14.7560005 35.965998,14.8879992 36.362,15.056 C36.758002,15.2240008 37.0699989,15.409999 37.298,15.614 C37.5260011,15.818001 37.7059993,16.0279989 37.838,16.244 C37.9700007,16.4600011 38.0959994,16.663999 38.216,16.856 C38.1919999,16.9520005 38.078001,16.9400006 37.874,16.82 C37.669999,16.6999994 37.472001,16.5800006 37.28,16.46 C36.7519974,16.1239983 36.1160037,15.9200004 35.372,15.848 C34.6279963,15.7759996 33.9380032,15.8179992 33.302,15.974 C32.6659968,16.1300008 32.1560019,16.3999981 31.772,16.784 C31.3879981,17.1680019 31.291999,17.6359972 31.484,18.188 C31.676001,18.7400028 32.0179975,19.219998 32.51,19.628 C33.0020025,20.036002 33.547997,20.4019984 34.148,20.726 C34.748003,21.0500016 35.347997,21.3439987 35.948,21.608 C36.548003,21.8720013 37.0399981,22.1359987 37.424,22.4 C37.9040024,22.1359987 38.3119983,21.9140009 38.648,21.734 C38.9840017,21.5539991 39.2839987,21.3860008 39.548,21.23 C39.8120013,21.0739992 40.0819986,20.9300007 40.358,20.798 C40.6340014,20.6659993 40.9519982,20.5160008 41.312,20.348 C41.3600002,20.3239999 41.4019998,20.312 41.438,20.312 C41.4740002,20.312 41.4740002,20.3419997 41.438,20.402 C41.4019998,20.4620003 41.3060008,20.5579993 41.15,20.69 C40.9939992,20.8220007 40.7480017,21.0079988 40.412,21.248 C40.2439992,21.3680006 39.9320023,21.5719986 39.476,21.86 C39.0199977,22.1480014 38.5280026,22.4599983 38,22.796 C38.2880014,23.0600013 38.5159992,23.3359986 38.684,23.624 C38.8280007,23.8880013 38.9299997,24.1699985 38.99,24.47 C39.0500003,24.7700015 38.9960008,25.0759984 38.828,25.388 C38.3479976,26.1560038 37.808003,26.7559978 37.208,27.188 C36.607997,27.6200022 36.0560025,27.9199992 35.552,28.088 C35.2159983,28.2080006 34.844002,28.2200005 34.436,28.124 C34.027998,28.0279995 33.7040012,27.8360014 33.464,27.548 C33.1999987,27.1639981 33.1339993,26.774002 33.266,26.378 C33.3980007,25.981998 33.6199984,25.5980019 33.932,25.226 C34.2440016,24.8539981 34.603998,24.5000017 35.012,24.164 C35.420002,23.8279983 35.7799984,23.5280013 36.092,23.264 C35.8759989,23.0239988 35.4560031,22.7300017 34.832,22.382 C34.2079969,22.0339983 33.5660033,21.6500021 32.906,21.23 C32.2459967,20.8099979 31.6520026,20.3600024 31.124,19.88 C30.5959974,19.3999976 30.3080002,18.9200024 30.26,18.44 C30.1639995,17.9119974 30.2299989,17.4020025 30.458,16.91 C30.6860011,16.4179975 31.0219978,15.9860019 31.466,15.614 C31.9100022,15.2419981 32.4259971,14.9660009 33.014,14.786 C33.6020029,14.6059991 34.2199968,14.5639995 34.868,14.66 Z M34.544,27.008 C34.8080013,27.1280006 35.1079983,27.1280006 35.444,27.008 C35.7800017,26.8879994 36.0979985,26.7140011 36.398,26.486 C36.6980015,26.2579989 36.9619989,26.0060014 37.19,25.73 C37.4180011,25.4539986 37.5679996,25.2080011 37.64,24.992 C37.7120004,24.799999 37.646001,24.5900011 37.442,24.362 C37.237999,24.1339989 37.0280011,23.9480007 36.812,23.804 C36.5479987,23.996001 36.2480017,24.2419985 35.912,24.542 C35.5759983,24.8420015 35.2820013,25.1479984 35.03,25.46 C34.7779987,25.7720016 34.5920006,26.0719986 34.472,26.36 C34.3519994,26.6480014 34.3759992,26.8639993 34.544,27.008 Z M48.9719565,15.9287055 C48.9936268,15.9611441 49.014308,15.9942422 49.034,16.028 C49.1180004,16.1720007 49.1779998,16.3039994 49.214,16.424 C49.2500002,16.5440006 49.2440002,16.604 49.196,16.604 C49.1266836,16.6155527 49.0586031,16.6264876 48.9917586,16.6368045 C48.9882253,16.4874837 48.9843058,16.3385489 48.98,16.19 C48.9774539,16.1021589 48.9747727,16.0150607 48.9719565,15.9287055 L48.9719565,15.9287055 Z M59.96,18.548 C59.96,18.6200004 59.9959996,18.955997 60.068,19.556 C60.1400004,20.156003 60.2239995,20.8879957 60.32,21.752 C60.4160005,22.6160043 60.5299993,23.545995 60.662,24.542 C60.7940007,25.538005 60.9139995,26.4859955 61.022,27.386 C61.1300005,28.2860045 61.2319995,29.0779966 61.328,29.762 C61.4240005,30.4460034 61.4839999,30.883999 61.508,31.076 C61.3639993,31.0519999 61.2440005,31.0280001 61.148,31.004 C61.0519995,30.9799999 60.9560005,30.9200005 60.86,30.824 C60.7639995,30.7279995 60.6500007,30.5900009 60.518,30.41 C60.3859993,30.2299991 60.2000012,29.9720017 59.96,29.636 C59.6479984,27.427989 59.4020009,25.5020082 59.222,23.858 C59.0419991,22.2139918 58.8920006,20.8760052 58.772,19.844 C58.3399978,20.4200029 58.028001,20.803999 57.836,20.996 C57.643999,21.188001 57.5240002,21.284 57.476,21.284 C57.4039996,21.284 57.3919998,21.1760011 57.44,20.96 C57.4640001,20.8399994 57.4879999,20.7200006 57.512,20.6 C57.5360001,20.4799994 57.5599999,20.3720005 57.584,20.276 C57.6080001,20.1799995 57.6439998,20.0960004 57.692,20.024 C57.8600008,19.7839988 58.0099993,19.5440012 58.142,19.304 C58.2740007,19.0639988 58.3759996,18.848001 58.448,18.656 C58.5440005,18.4159988 58.6159998,18.1880011 58.664,17.972 C58.6399999,17.7079987 58.6220001,17.480001 58.61,17.288 C58.5979999,17.095999 58.592,16.898001 58.592,16.694 C58.592,16.489999 58.5860001,16.2800011 58.574,16.064 C58.5619999,15.8479989 58.556,15.5720017 58.556,15.236 L58.556,13.814 L58.556,11.69 C58.556,10.9099961 58.5679999,10.0880043 58.592,9.224 C58.6160001,8.35999568 58.6459998,7.5380039 58.682,6.758 C58.7180002,5.9779961 58.7659997,5.27000318 58.826,4.634 C58.8860003,3.99799682 58.9519996,3.51200168 59.024,3.176 C59.1920008,2.47999652 59.4499983,1.94600186 59.798,1.574 C60.1460017,1.20199814 60.5119981,0.9860003 60.896,0.926 C61.2800019,0.8659997 61.6579981,0.96199874 62.03,1.214 C62.4020019,1.46600126 62.683999,1.85599736 62.876,2.384 C63.0920011,2.91200264 63.2,3.5959958 63.2,4.436 C63.2,5.2760042 63.1280007,6.19399502 62.984,7.19 C62.8399993,8.18600498 62.6420013,9.2239946 62.39,10.304 C62.1379987,11.3840054 61.8680014,12.4339949 61.58,13.454 C61.2919986,14.4740051 61.0040014,15.4279956 60.716,16.316 C60.4279986,17.2040044 60.1760011,17.947997 59.96,18.548 Z M59.672,16.496 C60.272003,14.7439912 60.7639981,13.0220085 61.148,11.33 C61.5320019,9.63799154 61.8139991,8.12000672 61.994,6.776 C62.1740009,5.43199328 62.2340003,4.34600414 62.174,3.518 C62.1139997,2.68999586 61.9400014,2.26400012 61.652,2.24 C61.1959977,2.07199916 60.8360013,2.2279976 60.572,2.708 C60.3079987,3.1880024 60.0980008,3.85999568 59.942,4.724 C59.7859992,5.58800432 59.6840002,6.57799442 59.636,7.694 C59.5879998,8.81000558 59.5699999,9.91999448 59.582,11.024 C59.5940001,12.1280055 59.6119999,13.1719951 59.636,14.156 C59.6600001,15.1400049 59.672,15.9199971 59.672,16.496 Z M74.432,1.124 C74.5760007,1.26800072 74.6779997,1.42399916 74.738,1.592 C74.7980003,1.76000084 74.8339999,1.93999904 74.846,2.132 C74.8580001,2.32400096 74.864,2.54599874 74.864,2.798 C74.864,3.05000126 74.8759999,3.34399832 74.9,3.68 C76.1480062,4.35200336 77.4919928,5.03599652 78.932,5.732 C80.3720072,6.42800348 81.7219937,7.17799598 82.982,7.982 C84.2420063,8.78600402 85.3399953,9.6679952 86.276,10.628 C87.2120047,11.5880048 87.8239986,12.6559941 88.112,13.832 C88.3520012,15.2960073 88.2380023,16.6879934 87.77,18.008 C87.3019977,19.3280066 86.564005,20.5219947 85.556,21.59 C84.547995,22.6580053 83.3240072,23.5579963 81.884,24.29 C80.4439928,25.0220037 78.8840084,25.5439984 77.204,25.856 C76.603997,25.9760006 76.0220028,26.0120002 75.458,25.964 C74.8939972,25.9159998 74.3780023,25.790001 73.91,25.586 C73.4419977,25.381999 73.0400017,25.1000018 72.704,24.74 C72.3679983,24.3799982 72.1280007,23.9600024 71.984,23.48 C71.9599999,23.1919986 72.0019995,22.946001 72.11,22.742 C72.2180005,22.537999 72.3319994,22.3940004 72.452,22.31 C72.5720006,22.2259996 72.6679996,22.1959999 72.74,22.22 C72.8120004,22.2440001 72.8000005,22.351999 72.704,22.544 C72.704,23.0480025 72.799999,23.4499985 72.992,23.75 C73.184001,24.0500015 73.4239986,24.2839992 73.712,24.452 C74.0000014,24.6200008 74.2999984,24.7459996 74.612,24.83 C74.9240016,24.9140004 75.1879989,24.9799998 75.404,25.028 C75.2839994,24.2839963 75.1760005,23.3540056 75.08,22.238 C74.9839995,21.1219944 74.8820005,19.9220064 74.774,18.638 C74.6659995,17.3539936 74.5640005,16.0340068 74.468,14.678 C74.3719995,13.3219932 74.2760005,12.0140063 74.18,10.754 C74.0839995,9.4939937 73.9820005,8.34200522 73.874,7.298 C73.7659995,6.25399478 73.6640005,5.40800324 73.568,4.76 C72.9199968,4.47199856 72.4040019,4.22600102 72.02,4.022 C71.6359981,3.81799898 71.3060014,3.63800078 71.03,3.482 C70.7539986,3.32599922 70.4840013,3.1880006 70.22,3.068 C69.9559987,2.9479994 69.620002,2.8280006 69.212,2.708 C69.019999,2.4679988 68.9659996,2.27600072 69.05,2.132 C69.1340004,1.98799928 69.1999998,1.78400132 69.248,1.52 C69.848003,1.66400072 70.3279982,1.80199934 70.688,1.934 C71.0480018,2.06600066 71.3539987,2.19799934 71.606,2.33 C71.8580013,2.46200066 72.1099987,2.58199946 72.362,2.69 C72.6140013,2.79800054 72.9559978,2.89999952 73.388,2.996 C73.388,2.77999892 73.3820001,2.61800054 73.37,2.51 C73.3579999,2.40199946 73.3460001,2.31200036 73.334,2.24 C73.3219999,2.16799964 73.3100001,2.1020003 73.298,2.042 C73.2859999,1.9819997 73.28,1.8920006 73.28,1.772 C73.4000006,1.21999724 73.7839968,1.0039994 74.432,1.124 Z M75.692,13.76 C75.7400002,14.168002 75.7939997,14.6899968 75.854,15.326 C75.9140003,15.9620032 75.9739997,16.6459963 76.034,17.378 C76.0940003,18.1100037 76.1599996,18.8599962 76.232,19.628 C76.3040004,20.3960038 76.3639998,21.1159966 76.412,21.788 C76.4600002,22.4600034 76.5079998,23.0599974 76.556,23.588 C76.6040002,24.1160026 76.6399999,24.4999988 76.664,24.74 C77.2160028,24.8120004 77.9659953,24.7160013 78.914,24.452 C79.8620047,24.1879987 80.8459949,23.7380032 81.866,23.102 C82.8860051,22.4659968 83.8459955,21.644005 84.746,20.636 C85.6460045,19.627995 86.3359976,18.4040072 86.816,16.964 C86.9840008,15.8599945 86.9240014,14.8640044 86.636,13.976 C86.3479986,13.0879956 85.9100029,12.2900035 85.322,11.582 C84.7339971,10.8739965 84.0200042,10.2380028 83.18,9.674 C82.3399958,9.10999718 81.4580046,8.58200246 80.534,8.09 C79.6099954,7.59799754 78.6680048,7.1420021 77.708,6.722 C76.7479952,6.3019979 75.8480042,5.87600216 75.008,5.444 C75.008,5.66000108 75.0319998,6.0079976 75.08,6.488 C75.1280002,6.9680024 75.1759998,7.507997 75.224,8.108 C75.2720002,8.708003 75.3199998,9.33199676 75.368,9.98 C75.4160002,10.6280032 75.4639998,11.2279972 75.512,11.78 C75.5600002,12.3320028 75.6019998,12.7879982 75.638,13.148 C75.6740002,13.5080018 75.692,13.7119998 75.692,13.76 Z M91.856,15.812 C91.9280004,15.7879999 92.1319983,15.7220005 92.468,15.614 C92.8040017,15.5059995 93.0799989,15.4879996 93.296,15.56 C93.9920035,15.5359999 94.5259981,15.7159981 94.898,16.1 C95.2700019,16.4840019 95.3000016,17.2279945 94.988,18.332 C94.5319977,19.5560061 93.9260038,20.5759959 93.17,21.392 C92.4139962,22.2080041 91.5200052,22.9879963 90.488,23.732 C90.7280012,24.3560031 91.0879976,24.7039996 91.568,24.776 C92.0480024,24.8480004 92.5519974,24.7700011 93.08,24.542 C93.6080026,24.3139989 94.1239975,24.0080019 94.628,23.624 C95.1320025,23.2399981 95.5399984,22.9040014 95.852,22.616 C96.3560025,22.1839978 96.7579985,21.8180015 97.058,21.518 C97.3580015,21.2179985 97.6759983,20.8520022 98.012,20.42 C98.0840004,20.3719998 98.1259999,20.3779997 98.138,20.438 C98.1500001,20.4980003 98.1440001,20.5879994 98.12,20.708 C98.0959999,20.8280006 98.0600002,20.9959989 98.012,21.212 C97.9399996,21.3800008 97.8680004,21.5299993 97.796,21.662 C97.7239996,21.7940007 97.6220007,21.9379992 97.49,22.094 C97.3579993,22.2500008 97.1840011,22.4359989 96.968,22.652 C96.7519989,22.8680011 96.4880016,23.1559982 96.176,23.516 C95.8159982,23.8520017 95.4680017,24.1819984 95.132,24.506 C94.7959983,24.8300016 94.4420019,25.1119988 94.07,25.352 C93.6979981,25.5920012 93.2900022,25.7599995 92.846,25.856 C92.4019978,25.9520005 91.8920029,25.9520005 91.316,25.856 C90.8359976,25.6879992 90.4520014,25.508001 90.164,25.316 C89.8759986,25.123999 89.6540008,24.926001 89.498,24.722 C89.3419992,24.517999 89.2280004,24.3320008 89.156,24.164 C89.0839996,23.9959992 89.0360001,23.8520006 89.012,23.732 C88.8919994,23.2519976 88.8439999,22.6040041 88.868,21.788 C88.8920001,20.9719959 89.1319977,19.9160065 89.588,18.62 C89.9000016,17.9479966 90.2359982,17.3780023 90.596,16.91 C90.9560018,16.4419977 91.3759976,16.0760013 91.856,15.812 Z M90.272,22.184 C90.5840016,22.0159992 90.9499979,21.7820015 91.37,21.482 C91.7900021,21.1819985 92.1859981,20.834002 92.558,20.438 C92.9300019,20.041998 93.2539986,19.6040024 93.53,19.124 C93.8060014,18.6439976 93.9559999,18.1400026 93.98,17.612 C94.0520004,17.2519982 94.0400005,17.0000007 93.944,16.856 C93.8959998,16.7839996 93.8480002,16.748 93.8,16.748 C93.391998,16.555999 92.984002,16.6159984 92.576,16.928 C92.167998,17.2400016 91.7960017,17.6839971 91.46,18.26 C91.1239983,18.8360029 90.8420011,19.4779965 90.614,20.186 C90.3859989,20.8940035 90.272,21.5599969 90.272,22.184 Z M101.576,14.66 C102.176003,14.7560005 102.673998,14.8879992 103.07,15.056 C103.466002,15.2240008 103.777999,15.409999 104.006,15.614 C104.234001,15.818001 104.413999,16.0279989 104.546,16.244 C104.678001,16.4600011 104.803999,16.663999 104.924,16.856 C104.9,16.9520005 104.786001,16.9400006 104.582,16.82 C104.377999,16.6999994 104.180001,16.5800006 103.988,16.46 C103.459997,16.1239983 102.824004,15.9200004 102.08,15.848 C101.335996,15.7759996 100.646003,15.8179992 100.01,15.974 C99.3739968,16.1300008 98.8640019,16.3999981 98.48,16.784 C98.0959981,17.1680019 97.999999,17.6359972 98.192,18.188 C98.384001,18.7400028 98.7259975,19.219998 99.218,19.628 C99.7100025,20.036002 100.255997,20.4019984 100.856,20.726 C101.456003,21.0500016 102.055997,21.3439987 102.656,21.608 C103.256003,21.8720013 103.747998,22.1359987 104.132,22.4 C104.612002,22.1359987 105.019998,21.9140009 105.356,21.734 C105.692002,21.5539991 105.991999,21.3860008 106.256,21.23 C106.520001,21.0739992 106.789999,20.9300007 107.066,20.798 C107.342001,20.6659993 107.659998,20.5160008 108.02,20.348 C108.068,20.3239999 108.11,20.312 108.146,20.312 C108.182,20.312 108.182,20.3419997 108.146,20.402 C108.11,20.4620003 108.014001,20.5579993 107.858,20.69 C107.701999,20.8220007 107.456002,21.0079988 107.12,21.248 C106.951999,21.3680006 106.640002,21.5719986 106.184,21.86 C105.727998,22.1480014 105.236003,22.4599983 104.708,22.796 C104.996001,23.0600013 105.223999,23.3359986 105.392,23.624 C105.536001,23.8880013 105.638,24.1699985 105.698,24.47 C105.758,24.7700015 105.704001,25.0759984 105.536,25.388 C105.055998,26.1560038 104.516003,26.7559978 103.916,27.188 C103.315997,27.6200022 102.764003,27.9199992 102.26,28.088 C101.923998,28.2080006 101.552002,28.2200005 101.144,28.124 C100.735998,28.0279995 100.412001,27.8360014 100.172,27.548 C99.9079987,27.1639981 99.8419993,26.774002 99.974,26.378 C100.106001,25.981998 100.327998,25.5980019 100.64,25.226 C100.952002,24.8539981 101.311998,24.5000017 101.72,24.164 C102.128002,23.8279983 102.487998,23.5280013 102.8,23.264 C102.583999,23.0239988 102.164003,22.7300017 101.54,22.382 C100.915997,22.0339983 100.274003,21.6500021 99.614,21.23 C98.9539967,20.8099979 98.3600026,20.3600024 97.832,19.88 C97.3039974,19.3999976 97.0160002,18.9200024 96.968,18.44 C96.8719995,17.9119974 96.9379989,17.4020025 97.166,16.91 C97.3940011,16.4179975 97.7299978,15.9860019 98.174,15.614 C98.6180022,15.2419981 99.1339971,14.9660009 99.722,14.786 C100.310003,14.6059991 100.927997,14.5639995 101.576,14.66 Z M101.252,27.008 C101.516001,27.1280006 101.815998,27.1280006 102.152,27.008 C102.488002,26.8879994 102.805999,26.7140011 103.106,26.486 C103.406002,26.2579989 103.669999,26.0060014 103.898,25.73 C104.126001,25.4539986 104.276,25.2080011 104.348,24.992 C104.42,24.799999 104.354001,24.5900011 104.15,24.362 C103.945999,24.1339989 103.736001,23.9480007 103.52,23.804 C103.255999,23.996001 102.956002,24.2419985 102.62,24.542 C102.283998,24.8420015 101.990001,25.1479984 101.738,25.46 C101.485999,25.7720016 101.300001,26.0719986 101.18,26.36 C101.059999,26.6480014 101.083999,26.8639993 101.252,27.008 Z M109.208,10.16 C109.448001,10.1119998 109.592,10.2559983 109.64,10.592 C109.688,10.9280017 109.640001,11.1799992 109.496,11.348 C109.231999,11.5640011 109.064,11.7499992 108.992,11.906 C108.92,12.0620008 108.752001,12.1639998 108.488,12.212 C108.343999,12.1879999 108.218001,12.1819999 108.11,12.194 C108.001999,12.2060001 107.912,12.008002 107.84,11.6 C107.936,11.3359987 108.085999,11.0720013 108.29,10.808 C108.494001,10.5439987 108.799998,10.3280008 109.208,10.16 Z M109.316,14.84 C109.436001,15.9920058 109.52,17.2579931 109.568,18.638 C109.616,20.0180069 109.699999,21.4639924 109.82,22.976 C109.916,23.7440038 110.012,24.3439978 110.108,24.776 C110.204,25.2080022 110.276,25.6159981 110.324,26 C109.939998,26.0720004 109.640001,26.0660004 109.424,25.982 C109.207999,25.8979996 109.004001,25.7960006 108.812,25.676 C108.764,25.2919981 108.71,24.6560044 108.65,23.768 C108.59,22.8799956 108.53,21.9140052 108.47,20.87 C108.41,19.8259948 108.35,18.8120049 108.29,17.828 C108.23,16.8439951 108.176,16.0640029 108.128,15.488 C108.224,15.4399998 108.302,15.3680005 108.362,15.272 C108.422,15.1759995 108.488,15.0920004 108.56,15.02 C108.632,14.9479996 108.727999,14.8880002 108.848,14.84 C108.968001,14.7919998 109.123999,14.7919998 109.316,14.84 Z M122.744,22.076 C122.792,22.1240002 122.786,22.2079994 122.726,22.328 C122.666,22.4480006 122.582001,22.5799993 122.474,22.724 C122.365999,22.8680007 122.258001,23.0059993 122.15,23.138 C122.041999,23.2700007 121.964,23.3599998 121.916,23.408 C121.339997,24.0560032 120.824002,24.6139977 120.368,25.082 C119.911998,25.5500023 119.540001,25.9519983 119.252,26.288 C119.252,26.3120001 119.246,26.4499987 119.234,26.702 C119.222,26.9540013 119.216,27.0919999 119.216,27.116 C119.168,27.9320041 119.15,28.7539959 119.162,29.582 C119.174,30.4100041 119.120001,31.2439958 119,32.084 C118.855999,33.0440048 118.706001,33.8179971 118.55,34.406 C118.393999,34.9940029 118.232001,35.4739981 118.064,35.846 C117.895999,36.2180019 117.722001,36.5299987 117.542,36.782 C117.361999,37.0340013 117.164001,37.3159984 116.948,37.628 C116.755999,37.8920013 116.540001,38.119999 116.3,38.312 C116.059999,38.504001 115.736002,38.7319987 115.328,38.996 C114.775997,39.3320017 114.200003,39.5839992 113.6,39.752 C112.999997,39.9200008 112.448003,39.9500005 111.944,39.842 C111.439997,39.7339995 111.014002,39.4640022 110.666,39.032 C110.317998,38.5999978 110.12,37.9520043 110.072,37.088 C110.024,36.1279952 110.191998,35.1800047 110.576,34.244 C110.960002,33.3079953 111.415997,32.4560038 111.944,31.688 C112.472003,30.9199962 112.987997,30.2720026 113.492,29.744 C113.996003,29.2159974 114.343999,28.856001 114.536,28.664 C114.848002,28.3279983 115.129999,28.0400012 115.382,27.8 C115.634001,27.5599988 115.891999,27.338001 116.156,27.134 C116.420001,26.929999 116.701999,26.7080012 117.002,26.468 C117.302001,26.2279988 117.655998,25.9400017 118.064,25.604 C118.16,25.0279971 118.22,24.4220032 118.244,23.786 C118.268,23.1499968 118.268,22.4960034 118.244,21.824 C117.811998,22.7120044 117.350002,23.4079975 116.858,23.912 C116.365998,24.4160025 115.922002,24.7939987 115.526,25.046 C115.129998,25.2980013 114.806001,25.4539997 114.554,25.514 C114.301999,25.5740003 114.2,25.604 114.248,25.604 C113.791998,25.6760004 113.426001,25.6940002 113.15,25.658 C112.873999,25.6219998 112.658001,25.5500005 112.502,25.442 C112.345999,25.3339995 112.226,25.2080007 112.142,25.064 C112.058,24.9199993 111.992,24.7760007 111.944,24.632 C111.823999,24.0079969 111.829999,23.3660033 111.962,22.706 C112.094001,22.0459967 112.291999,21.416003 112.556,20.816 C112.820001,20.215997 113.107998,19.6640025 113.42,19.16 C113.732002,18.6559975 114.019999,18.2480016 114.284,17.936 C114.332,17.8879998 114.445999,17.762001 114.626,17.558 C114.806001,17.353999 115.039999,17.1260013 115.328,16.874 C115.616001,16.6219987 115.969998,16.3640013 116.39,16.1 C116.810002,15.8359987 117.295997,15.5960011 117.848,15.38 C118.400003,15.2599994 118.963997,15.2059999 119.54,15.218 C120.116003,15.2300001 120.583998,15.3679987 120.944,15.632 C120.751999,15.7040004 120.458002,15.7939995 120.062,15.902 C119.665998,16.0100005 119.408001,16.0879998 119.288,16.136 L119.288,16.208 C119.288,16.2800004 119.312,16.316 119.36,16.316 C118.951998,16.2199995 118.316004,16.3879978 117.452,16.82 C116.587996,17.2520022 115.652005,18.0799939 114.644,19.304 C114.187998,19.9520032 113.840001,20.5339974 113.6,21.05 C113.359999,21.5660026 113.186001,22.0099981 113.078,22.382 C112.969999,22.7540019 112.916,23.0719987 112.916,23.336 C112.916,23.6000013 112.928,23.8039993 112.952,23.948 C112.976,24.0440005 113.059999,24.1279996 113.204,24.2 C113.348001,24.2720004 113.527999,24.2840002 113.744,24.236 C114.368003,24.0919993 114.949997,23.7740025 115.49,23.282 C116.030003,22.7899975 116.521998,22.2320031 116.966,21.608 C117.410002,20.9839969 117.787998,20.372003 118.1,19.772 C118.412002,19.171997 118.639999,18.6920018 118.784,18.332 C119.024001,17.7799972 119.15,17.2700023 119.162,16.802 C119.174,16.3339977 119.156,16.1 119.108,16.1 L119.162,16.1 L119.252,16.1 C119.276,16.1 119.282,16.1059999 119.27,16.118 C119.258,16.1300001 119.180001,16.1479999 119.036,16.172 C119.084,16.1239998 119.132,16.0940001 119.18,16.082 C119.228,16.0699999 119.276,16.0520001 119.324,16.028 C119.3,16.0039999 119.306,15.9740002 119.342,15.938 C119.378,15.9019998 119.42,15.884 119.468,15.884 C119.468,15.8359998 119.527999,15.7880002 119.648,15.74 L119.864,15.668 L119.972,15.596 C120.068,15.5479998 120.128,15.5120001 120.152,15.488 C120.176,15.4639999 120.206,15.452 120.242,15.452 C120.278,15.452 120.344,15.4699998 120.44,15.506 C120.536,15.5420002 120.703999,15.5959996 120.944,15.668 C120.727999,16.2440029 120.542001,16.9459959 120.386,17.774 C120.229999,18.6020041 120.092001,19.4359958 119.972,20.276 C119.851999,21.1160042 119.75,21.9139962 119.666,22.67 C119.582,23.4260038 119.504,24.0199978 119.432,24.452 C119.624001,24.259999 119.905998,24.0320013 120.278,23.768 C120.650002,23.5039987 121.015998,23.2400013 121.376,22.976 C121.808002,22.6879986 122.263998,22.3880016 122.744,22.076 Z M118.208,28.304 C118.28,27.7519972 118.268,27.4160006 118.172,27.296 C118.124,27.2239996 118.064,27.1999999 117.992,27.224 C117.343997,27.7520026 116.816002,28.1959982 116.408,28.556 C115.999998,28.9160018 115.724001,29.1559994 115.58,29.276 C114.427994,30.3560054 113.570003,31.3099959 113.006,32.138 C112.441997,32.9660041 112.064001,33.7279965 111.872,34.424 C111.607999,35.1920038 111.458,35.8699971 111.422,36.458 C111.386,37.0460029 111.535998,37.6159972 111.872,38.168 C112.472003,38.6240023 113.125996,38.7140014 113.834,38.438 C114.542004,38.1619986 115.195997,37.7360029 115.796,37.16 C116.492003,36.367996 117.055998,35.2580071 117.488,33.83 C117.920002,32.4019929 118.16,30.5600113 118.208,28.304 Z M124.58,15.02 C124.58,15.6920034 124.574,16.3639966 124.562,17.036 C124.55,17.7080034 124.538,18.3559969 124.526,18.98 C124.514,19.6040031 124.502,20.1919972 124.49,20.744 C124.478,21.2960028 124.46,21.7879978 124.436,22.22 C124.436,22.1239995 124.489999,21.8900019 124.598,21.518 C124.706001,21.1459981 124.855999,20.7200024 125.048,20.24 C125.240001,19.7599976 125.449999,19.2500027 125.678,18.71 C125.906001,18.1699973 126.151999,17.6900021 126.416,17.27 C126.680001,16.8499979 126.949999,16.5200012 127.226,16.28 C127.502001,16.0399988 127.759999,15.9679995 128,16.064 C128.528003,16.3040012 128.899999,16.6519977 129.116,17.108 C129.332001,17.5640023 129.488,18.0859971 129.584,18.674 C129.68,19.2620029 129.776,19.9159964 129.872,20.636 C129.968,21.3560036 130.183998,22.111996 130.52,22.904 C130.664001,23.2640018 130.873999,23.5279992 131.15,23.696 C131.426001,23.8640008 131.689999,23.9839996 131.942,24.056 C132.194001,24.1280004 132.397999,24.1699999 132.554,24.182 C132.710001,24.1940001 132.764,24.2359996 132.716,24.308 C132.115997,24.7640023 131.600002,24.9200007 131.168,24.776 C130.735998,24.6319993 130.370001,24.3140025 130.07,23.822 C129.769998,23.3299975 129.524001,22.7420034 129.332,22.058 C129.139999,21.3739966 128.966001,20.7140032 128.81,20.078 C128.653999,19.4419968 128.516001,18.9020022 128.396,18.458 C128.275999,18.0139978 128.144001,17.792 128,17.792 C127.783999,17.8160001 127.550001,18.0199981 127.298,18.404 C127.045999,18.7880019 126.788001,19.2679971 126.524,19.844 C126.259999,20.4200029 126.008001,21.0499966 125.768,21.734 C125.527999,22.4180034 125.306001,23.059997 125.102,23.66 C124.897999,24.260003 124.736001,24.7759978 124.616,25.208 C124.495999,25.6400022 124.424,25.9039995 124.4,26 C124.039998,26 123.818,26.0119999 123.734,26.036 C123.65,26.0600001 123.512001,25.9400013 123.32,25.676 C123.440001,23.5639894 123.482,21.5660094 123.446,19.682 C123.41,17.7979906 123.356,16.160007 123.284,14.768 C123.284,14.5519989 123.337999,14.444 123.446,14.444 C123.554001,14.444 123.673999,14.4919995 123.806,14.588 C123.938001,14.6840005 124.075999,14.7799995 124.22,14.876 C124.364001,14.9720005 124.484,15.02 124.58,15.02 L124.58,15.02 Z" id="" fill="#4A4A4A" sketch:type="MSShapeGroup"></path>
    </g>
</svg>