<svg xmlns="http://www.w3.org/2000/svg" xmlns:xlink="http://www.w3.org/1999/xlink" xmlns:sketch="http://www.bohemiancoding.com/sketch/ns" width="568px" height="158px" viewBox="0 0 568 158" version="1.1"><title>Restful Design</title><desc>Created with Sketch.</desc><defs/><g stroke="none" stroke-width="1" fill="none" fill-rule="evenodd" sketch:type="MSPage"><g sketch:type="MSLayerGroup" transform="translate(-40.000000, -162.000000)" fill="#3F3F3F"><g sketch:type="MSShapeGroup"><path d="M271.7 222.7 C271.5 222.3 271.1 221.9 270.8 221.5 C270.3 221 269.8 220.8 269.3 220.7 C268.3 220.7 267.3 220.7 266.4 220.7 C265.6 220.8 264.6 220.8 263.6 220.9 C262.6 220.9 261.5 221 260.3 221 C259.1 221.1 257.6 221.1 255.8 221.2 C255.9 219.2 255.9 216.6 255.9 213.4 C255.9 210.2 256.1 206.8 256.3 203.3 C256.5 199.8 256.9 196.3 257.4 192.9 C258 189.4 258.8 186.4 259.9 183.7 C261 181.1 262.4 179.1 264.1 177.7 C265.9 176.3 268.1 175.9 270.8 176.6 C272 176.6 273.1 177.1 274 178 C274.9 178.9 275.7 179.9 276.2 180.9 C276.8 182 277.3 183 277.6 183.9 C277.9 184.8 278.2 185.2 278.4 185.2 C278.5 185.4 278.5 185.6 278.5 185.7 C278.5 185.8 278.6 185.8 278.8 185.9 C278.9 185.9 279.2 186 279.6 186 C280.1 186 280.8 186 281.9 186 C282.4 185.6 282.4 184.4 281.6 182.3 C280.9 180.2 279.7 178.2 278 176.2 C276.2 174.2 274.1 172.5 271.4 171.3 C268.8 170.1 265.8 170.2 262.4 171.6 C261.1 172.1 259.6 173.4 258.1 175.2 C256.6 177.1 255.2 180 254 183.8 C252.8 187.6 251.9 192.7 251.3 198.8 C250.6 205 250.6 212.7 251 222 C247.7 222.3 244.6 222.7 241.8 223 C239 223.3 237.4 223.5 236.8 223.7 C236.7 223.9 236.5 224.2 236.1 224.7 C235.8 225.2 235.5 225.7 235.3 226.2 C235 226.7 234.9 227.2 234.9 227.5 C234.9 227.8 235.2 228 235.9 228 C237.4 227.9 238.6 227.9 239.5 227.9 C240.5 227.9 241.5 227.8 242.5 227.8 C243.5 227.7 244.7 227.7 246 227.6 C247.3 227.5 249.1 227.3 251.3 227.1 C251.9 234.9 252.3 241.4 252.6 246.7 C252.9 252 253.1 256.3 253.3 259.7 C253.4 263 253.5 265.6 253.6 267.5 C253.6 269.3 253.7 270.6 253.7 271.4 C253.8 272.1 253.8 272.6 253.9 272.6 C254 272.7 254.2 272.8 254.5 272.8 C255.4 272.9 256.2 273 257 273 C257.8 273.1 258.3 272.7 258.5 271.9 C258.4 268.2 258.3 264.6 258 261.3 C257.8 257.9 257.5 254.5 257.3 251 C257.1 247.5 256.8 243.8 256.5 239.9 C256.2 236 256 231.6 255.9 226.7 C257.6 226.6 259 226.5 260.3 226.5 C261.6 226.4 262.9 226.4 264.1 226.3 C265.4 226.2 266.7 226.1 268 226 C269.2 225.9 270.4 225.8 271.8 225.5 C271.9 228.3 271.9 231 271.9 233.8 C271.9 237.2 271.9 240.6 271.9 243.8 C271.9 247.1 272 250 272.1 252.6 C272.3 255.2 272.5 257.4 272.7 259 C273 260.7 273.4 261.7 273.9 262 C274.3 262.8 275 263.4 276.1 263.8 C277.2 264.2 278.6 264.1 280.6 263.3 C281.1 263.1 281.9 262.4 282.7 261.1 C283.6 259.9 284.5 258.4 285.5 256.7 C286.4 254.9 287.4 253.1 288.3 251.2 C289.3 249.3 290.2 247.5 290.9 246 C291.1 247.3 291.3 248.6 291.4 250.2 C291.6 251.7 291.8 253.2 292 254.5 C292.2 255.8 292.5 257 292.9 258 C293.2 259 293.7 259.6 294.2 259.7 C295.7 260.3 297.3 260.3 299.1 259.9 C300.8 259.5 302.5 258.7 304.1 257.7 C305.7 256.6 307.1 255.3 308.4 253.8 C309.6 252.2 310.4 250.7 310.8 249 C310.5 248.7 309.8 249.1 308.8 250 C307.7 250.9 306.6 251.9 305.3 253.1 C304 254.2 302.6 255.2 301.2 255.9 C299.8 256.7 298.6 256.8 297.6 256.1 C296.3 255.3 295.5 253.6 295.2 251 C294.8 248.5 294.7 245.6 294.8 242.4 C294.9 239.2 295.1 236 295.5 232.8 C295.8 229.6 296.1 227 296.3 224.8 C296 224.7 295.5 224.6 294.9 224.6 C294.3 224.5 293.6 224.4 293 224.4 C292.4 224.4 291.8 224.5 291.4 224.6 C290.9 224.8 290.6 225.1 290.6 225.7 C291 228.5 290.7 231.8 289.8 235.5 C288.8 239.2 287.6 242.8 286.2 246.1 C284.7 249.4 283.2 252.1 281.7 254.2 C280.2 256.3 279.1 257.1 278.4 256.7 C277.8 256.4 277.4 255.8 277 254.9 C276.7 254.1 276.5 253.2 276.3 252.2 C276.2 251.2 276.1 250.4 276 249.5 C276 248.7 276 248.2 276 247.9 C276.1 240 276.4 233.3 276.7 227.7 C277.1 222.2 277 218.3 276.5 216.1 C276.1 215.6 275.7 215.3 275.1 215.1 C274.5 215 273.9 214.9 273.4 214.8 C272.7 214.7 272 214.6 271.3 214.6 C271.5 217.1 271.6 219.8 271.7 222.7 L271.7 222.7 ZM128.6 248.4 C128.1 248.2 127.5 248 127.1 248 C126.6 248 125.8 247.9 124.6 247.7 C123.5 247.4 121.8 247 119.7 246.3 C117.6 245.6 114.6 244.5 110.8 243 C107.9 241.4 105.4 239.9 103.2 238.6 C101.1 237.3 99 235.9 96.9 234.5 C94.8 233 92.6 231.4 90.3 229.7 C88 227.9 85.3 225.8 82.1 223.3 C80 221.1 78.3 219.4 76.9 217.9 C75.6 216.5 74.4 214.5 73.5 211.9 C76.2 211.3 79.5 210.5 83.4 209.5 C87.2 208.5 91.1 207.3 95 206 C98.9 204.6 102.5 203.2 105.7 201.6 C108.9 200 111.2 198.4 112.7 196.8 C114.7 195 115.8 192.9 115.9 190.4 C116 187.9 114.6 185.4 111.5 182.9 C108.4 180.4 103.5 178.1 96.6 175.8 C89.7 173.6 80.4 171.8 68.4 170.4 C66.9 170.3 64.9 170.2 62.5 170 C60 169.8 57.5 169.6 54.8 169.5 C52.2 169.4 49.6 169.4 47.1 169.3 C44.5 169.3 42.4 169.4 40.8 169.5 C40.6 171.1 40.7 172 41.2 172.4 C41.6 172.7 42.2 173.1 43 173.6 C47.5 173.7 51.5 173.8 55.1 173.9 C58.7 174.1 61 174.2 61.8 174.2 C62.2 177.1 62.5 179.9 62.8 182.6 C63.1 185.2 63.4 187.9 63.7 190.6 C64 193.3 64.3 196 64.6 198.8 C64.8 201.7 65.2 204.7 65.7 208 C64.3 208.5 63 208.9 61.8 209.1 C60.6 209.4 59.8 209.8 59.5 210.2 C60.8 211.7 61.7 212.8 62.4 213.5 C63.1 214.3 63.7 214.9 64.3 215.5 C64.8 216.1 65.4 216.7 66.1 217.4 C66.7 218.1 67.5 219.2 68.6 220.7 C68.8 221.3 68.9 221.7 69 221.8 C69 221.9 69 221.9 69 221.8 C68.9 221.7 68.9 221.6 68.8 221.5 C68.8 221.3 68.8 221.4 68.9 221.7 C69.5 230.1 70.2 237.8 71.1 244.9 C72 251.9 72.7 258.5 73.1 264.9 C73.7 264.8 74.7 264.9 76.1 265.3 C77.4 265.7 78.8 265.6 80.3 265 C80 264.2 79.6 262.7 79.2 260.7 C78.9 258.7 78.5 256.4 78.1 253.8 C77.7 251.2 77.3 248.5 76.9 245.6 C76.4 242.7 76 239.9 75.6 237.2 C75.3 234.5 74.9 232.1 74.6 230 C74.2 227.8 74 226.1 73.8 225 C74.7 225.6 75.7 226.2 76.8 227 C77.8 227.7 78.9 228.5 80.3 229.4 C81.6 230.3 83.1 231.4 84.7 232.6 C88.7 235.7 92.2 238.2 95.4 240.2 C98.7 242.1 101.6 243.7 104.2 244.9 C106.8 246.1 109 247.1 110.9 247.7 C112.8 248.4 114.5 248.9 116 249.3 C116.6 249.5 117.7 249.7 119.2 249.8 C120.7 250 122.2 250 123.6 250 C125 250 126.3 249.9 127.3 249.7 C128.1 249.5 128.5 249.3 128.6 249 C128.7 250.9 128.9 252.6 129.2 253.9 C129.3 254.4 129.5 255 129.8 255.7 C130.1 256.3 130.5 257.1 131.2 257.9 C131.8 258.7 132.7 259.5 133.8 260.3 C135 261 136.5 261.8 138.4 262.4 C140.7 262.8 142.8 262.8 144.6 262.4 C146.3 262 148 261.4 149.4 260.4 C150.9 259.4 152.4 258.3 153.7 257 C155 255.7 156.4 254.4 157.9 253.1 C159.1 251.6 160.2 250.5 161 249.6 C161.9 248.7 162.6 248 163.1 247.4 C163.7 246.8 164.1 246.2 164.4 245.6 C164.6 245.1 164.9 244.5 165.2 243.8 C165.4 243 165.6 242.3 165.6 241.8 C165.7 241.4 165.8 241 165.7 240.8 C165.7 240.5 165.5 240.5 165.2 240.7 C163.9 242.4 162.6 243.9 161.4 245.1 C160.2 246.3 158.6 247.7 156.6 249.5 C155.3 250.6 153.7 252 151.7 253.5 C149.7 255 147.6 256.3 145.5 257.2 C143.4 258.1 141.4 258.4 139.4 258.1 C137.5 257.8 136.1 256.4 135.1 253.9 C139.2 251 142.8 247.8 145.8 244.6 C148.9 241.3 151.3 237.2 153.1 232.3 C154.4 227.9 154.2 224.9 152.8 223.4 C151.3 221.9 149.1 221.1 146.4 221.2 C145.5 221 144.4 221 143 221.5 C141.7 221.9 140.9 222.2 140.6 222.2 C138.7 223.3 137 224.8 135.6 226.6 C134.1 228.5 132.8 230.8 131.5 233.5 C129.7 238.7 128.7 242.9 128.6 246.2 C128.6 247 128.6 247.7 128.6 248.4 L128.6 248.4 ZM71.3 207.4 C74.5 206.8 78.3 205.9 82.6 204.6 C87 203.3 91.2 201.9 95.2 200.4 C99.1 198.9 102.5 197.4 105.3 195.8 C108.1 194.2 109.4 192.8 109.3 191.4 L109.3 190.1 C109 188.7 107.4 187.2 104.7 185.7 C102 184.1 98.7 182.7 94.7 181.4 C90.7 180 86.4 178.8 81.8 177.6 C77.1 176.5 72.6 175.6 68.3 175 C68.7 179.2 69.1 184 69.5 189.4 C69.8 194.8 70.5 200.8 71.3 207.4 ZM128.6 248.4 C128.6 248.4 128.6 248.5 128.6 248.5 C128.7 248.6 128.7 248.8 128.6 249 C128.6 248.8 128.6 248.6 128.6 248.4 L128.6 248.4 ZM134.3 247.7 C135.5 247.1 137 246.1 138.6 244.9 C140.3 243.7 141.9 242.3 143.4 240.8 C144.9 239.2 146.2 237.4 147.3 235.5 C148.4 233.6 149 231.6 149.1 229.4 C149.4 228 149.3 227 148.9 226.4 C148.8 226.1 148.6 226 148.4 226 C146.7 225.2 145.1 225.5 143.5 226.7 C141.8 228 140.4 229.7 139 232 C137.7 234.3 136.5 236.9 135.6 239.7 C134.7 242.6 134.3 245.2 134.3 247.7 ZM179.5 217.6 C181.9 218 183.9 218.6 185.4 219.2 C187 219.9 188.3 220.6 189.2 221.5 C190.1 222.3 190.8 223.1 191.4 224 C191.9 224.8 192.4 225.7 192.9 226.4 C192.8 226.8 192.3 226.8 191.5 226.3 C190.7 225.8 189.9 225.3 189.1 224.8 C187 223.5 184.5 222.7 181.5 222.4 C178.5 222.1 175.8 222.3 173.2 222.9 C170.7 223.5 168.6 224.6 167.1 226.1 C165.6 227.7 165.2 229.5 165.9 231.8 C166.7 234 168.1 235.9 170 237.5 C172 239.1 174.2 240.6 176.6 241.9 C179 243.2 181.4 244.4 183.8 245.4 C186.2 246.5 188.2 247.5 189.7 248.6 C191.6 247.5 193.2 246.7 194.6 245.9 C195.9 245.2 197.1 244.5 198.2 243.9 C199.2 243.3 200.3 242.7 201.4 242.2 C202.5 241.7 203.8 241.1 205.2 240.4 C205.4 240.3 205.6 240.2 205.8 240.2 C205.9 240.2 205.9 240.4 205.8 240.6 C205.6 240.8 205.2 241.2 204.6 241.8 C204 242.3 203 243 201.6 244 C201 244.5 199.7 245.3 197.9 246.4 C196.1 247.6 194.1 248.8 192 250.2 C193.2 251.2 194.1 252.3 194.7 253.5 C195.3 254.6 195.7 255.7 196 256.9 C196.2 258.1 196 259.3 195.3 260.6 C193.4 263.6 191.2 266 188.8 267.8 C186.4 269.5 184.2 270.7 182.2 271.4 C180.9 271.8 179.4 271.9 177.7 271.5 C176.1 271.1 174.8 270.3 173.9 269.2 C172.8 267.7 172.5 266.1 173.1 264.5 C173.6 262.9 174.5 261.4 175.7 259.9 C177 258.4 178.4 257 180 255.7 C181.7 254.3 183.1 253.1 184.4 252.1 C183.5 251.1 181.8 249.9 179.3 248.5 C176.8 247.1 174.3 245.6 171.6 243.9 C169 242.2 166.6 240.4 164.5 238.5 C162.4 236.6 161.2 234.7 161 232.8 C160.7 230.6 160.9 228.6 161.8 226.6 C162.7 224.7 164.1 222.9 165.9 221.5 C167.6 220 169.7 218.9 172.1 218.1 C174.4 217.4 176.9 217.3 179.5 217.6 ZM178.2 267 C179.2 267.5 180.4 267.5 181.8 267 C183.1 266.6 184.4 265.9 185.6 264.9 C186.8 264 187.8 263 188.8 261.9 C189.7 260.8 190.3 259.8 190.6 259 C190.8 258.2 190.6 257.4 189.8 256.4 C189 255.5 188.1 254.8 187.2 254.2 C186.2 255 185 256 183.6 257.2 C182.3 258.4 181.1 259.6 180.1 260.8 C179.1 262.1 178.4 263.3 177.9 264.4 C177.4 265.6 177.5 266.5 178.2 267 ZM220.4 220.1 C224.5 219.8 228.6 219.5 232.5 219.2 C236.5 218.8 240.7 218.5 245 218.1 C246 218.2 246.6 218.7 246.9 219.6 C247.2 220.5 246.8 221 245.7 221.2 C242.2 221.6 238.1 222.2 233.5 222.8 C228.9 223.5 224.5 224.4 220.4 225.4 C220.6 228.4 220.7 231.4 220.7 234.6 C220.7 237.7 220.7 240.8 220.9 243.8 C221 246.8 221.3 249.7 221.7 252.6 C222.2 255.4 222.9 258 223.8 260.4 C225.2 262 226.5 263 227.9 263.3 C229.2 263.6 230.5 263.5 231.7 263.1 C232.9 262.6 234 262 235 261.1 C236 260.1 236.9 259.3 237.6 258.4 C238.3 257.7 238.9 257.7 239.3 258.4 C239.7 259.1 239.3 260.1 238.1 261.4 C237.5 262.1 236.8 262.8 235.9 263.6 C235.1 264.3 234 265 232.8 265.5 C231.6 266 230.3 266.4 228.8 266.5 C227.3 266.7 225.7 266.5 224 266 C221.8 265.4 220.1 263.7 219.1 260.7 C218 257.7 217.2 254.2 216.7 250.3 C216.2 246.3 215.8 242.1 215.6 237.8 C215.4 233.5 215.2 229.6 214.9 226.1 C210.7 226.5 207.6 226.9 205.6 227.1 C203.6 227.4 202.2 227.6 201.4 227.7 C200.5 227.8 199.9 227.8 199.6 227.6 C199.3 227.4 198.8 227 198 226.3 C198.1 225.8 198.2 225.3 198.1 224.9 C198.1 224.5 198.1 224.1 198.1 223.8 C198.2 223.5 198.4 223.3 198.7 223 C199 222.7 199.7 222.4 200.6 222.2 C202.1 221.9 204.2 221.6 206.9 221.6 C209.6 221.6 212.3 221.3 214.9 221 C214.8 217.9 214.7 215.5 214.6 213.8 C214.5 212 214.4 210.5 214.3 209.2 C214.2 207.9 214.2 206.6 214.1 205.4 C214.1 204.2 214 202.5 214 200.5 C214 200 214.3 199.7 214.8 199.4 C215.4 199.2 216 199 216.6 199 C217.3 198.9 217.9 199 218.5 199.3 C219.1 199.5 219.5 199.9 219.6 200.4 C219.9 201.2 220.1 202.5 220.2 204.2 C220.3 205.9 220.4 207.6 220.4 209.5 C220.5 211.4 220.5 213.3 220.5 215.2 C220.5 217.1 220.5 218.7 220.4 220.1 ZM271.7 222.7 C271.8 222.8 271.9 223 272 223.1 C272.3 223.7 272.6 224.2 272.7 224.7 C272.9 225.2 272.8 225.4 272.6 225.4 C272.4 225.5 272.1 225.5 271.8 225.5 C271.8 224.9 271.8 224.4 271.8 223.8 C271.8 223.4 271.8 223.1 271.7 222.7 L271.7 222.7 ZM315.7 233.2 C315.7 233.5 315.8 234.8 316.1 237.2 C316.4 239.6 316.8 242.6 317.1 246 C317.5 249.5 318 253.2 318.5 257.2 C319 261.2 319.5 264.9 319.9 268.5 C320.4 272.1 320.8 275.3 321.2 278 C321.6 280.8 321.8 282.5 321.9 283.3 C321.3 283.2 320.8 283.1 320.4 283 C320.1 282.9 319.7 282.7 319.3 282.3 C318.9 281.9 318.5 281.4 317.9 280.6 C317.4 279.9 316.7 278.9 315.7 277.5 C314.4 268.7 313.5 261 312.7 254.4 C312 247.9 311.4 242.5 310.9 238.4 C309.2 240.7 308 242.2 307.2 243 C306.4 243.8 306 244.1 305.8 244.1 C305.5 244.1 305.4 243.7 305.6 242.8 C305.7 242.4 305.8 241.9 305.9 241.4 C306 240.9 306.1 240.5 306.2 240.1 C306.3 239.7 306.4 239.4 306.6 239.1 C307.3 238.1 307.9 237.2 308.4 236.2 C309 235.3 309.4 234.4 309.6 233.6 C310 232.7 310.3 231.8 310.5 230.9 C310.4 229.8 310.3 228.9 310.3 228.2 C310.2 227.4 310.2 226.6 310.2 225.8 C310.2 225 310.2 224.1 310.2 223.3 C310.1 222.4 310.1 221.3 310.1 219.9 L310.1 214.3 L310.1 205.8 C310.1 202.6 310.1 199.4 310.2 195.9 C310.3 192.4 310.4 189.2 310.6 186 C310.7 182.9 310.9 180.1 311.2 177.5 C311.4 175 311.7 173 312 171.7 C312.6 168.9 313.7 166.8 315 165.3 C316.4 163.8 317.9 162.9 319.4 162.7 C321 162.5 322.5 162.8 324 163.9 C325.5 164.9 326.6 166.4 327.4 168.5 C328.2 170.6 328.7 173.4 328.7 176.7 C328.7 180.1 328.4 183.8 327.8 187.8 C327.2 191.7 326.4 195.9 325.4 200.2 C324.4 204.5 323.3 208.7 322.2 212.8 C321 216.9 319.9 220.7 318.7 224.3 C317.6 227.8 316.6 230.8 315.7 233.2 ZM314.5 225 C316.9 218 318.9 211.1 320.4 204.3 C322 197.6 323.1 191.5 323.8 186.1 C324.6 180.7 324.8 176.4 324.6 173.1 C324.3 169.8 323.6 168.1 322.5 168 C320.6 167.3 319.2 167.9 318.1 169.8 C317.1 171.8 316.2 174.4 315.6 177.9 C315 181.4 314.6 185.3 314.4 189.8 C314.2 194.2 314.1 198.7 314.2 203.1 C314.2 207.5 314.3 211.7 314.4 215.6 C314.5 219.6 314.5 222.7 314.5 225 ZM373.6 163.5 C374.2 164.1 374.6 164.7 374.8 165.4 C375 166 375.2 166.8 375.2 167.5 C375.3 168.3 375.3 169.2 375.3 170.2 C375.3 171.2 375.4 172.4 375.5 173.7 C380.4 176.4 385.8 179.1 391.6 181.9 C397.3 184.7 402.7 187.7 407.8 190.9 C412.8 194.1 417.2 197.7 421 201.5 C424.7 205.4 427.2 209.6 428.3 214.3 C429.3 220.2 428.8 225.8 426.9 231 C425.1 236.3 422.1 241.1 418.1 245.4 C414 249.6 409.2 253.2 403.4 256.2 C397.6 259.1 391.4 261.2 384.7 262.4 C382.3 262.9 379.9 263 377.7 262.9 C375.4 262.7 373.4 262.2 371.5 261.3 C369.6 260.5 368 259.4 366.7 258 C365.3 256.5 364.4 254.8 363.8 252.9 C363.7 251.8 363.9 250.8 364.3 250 C364.7 249.2 365.2 248.6 365.7 248.2 C366.1 247.9 366.5 247.8 366.8 247.9 C367.1 248 367.1 248.4 366.7 249.2 C366.7 251.2 367.1 252.8 367.8 254 C368.6 255.2 369.6 256.1 370.7 256.8 C371.9 257.5 373.1 258 374.3 258.3 C375.6 258.7 376.6 258.9 377.5 259.1 C377 256.1 376.6 252.4 376.2 248 C375.8 243.5 375.4 238.7 375 233.6 C374.5 228.4 374.1 223.1 373.7 217.7 C373.3 212.3 373 207.1 372.6 202 C372.2 197 371.8 192.4 371.4 188.2 C370.9 184 370.5 180.6 370.1 178 C367.5 176.9 365.5 175.9 363.9 175.1 C362.4 174.3 361.1 173.6 360 172.9 C358.9 172.3 357.8 171.8 356.7 171.3 C355.7 170.8 354.3 170.3 352.7 169.8 C351.9 168.9 351.7 168.1 352.1 167.5 C352.4 167 352.7 166.1 352.8 165.1 C355.2 165.7 357.2 166.2 358.6 166.7 C360 167.3 361.3 167.8 362.3 168.3 C363.3 168.8 364.3 169.3 365.3 169.8 C366.3 170.2 367.7 170.6 369.4 171 C369.4 170.1 369.4 169.5 369.3 169 C369.3 168.6 369.2 168.2 369.2 168 C369.1 167.7 369.1 167.4 369 167.2 C369 166.9 369 166.6 369 166.1 C369.5 163.9 371 163 373.6 163.5 ZM378.6 214 C378.8 215.7 379 217.8 379.3 220.3 C379.5 222.8 379.8 225.6 380 228.5 C380.2 231.4 380.5 234.4 380.8 237.5 C381.1 240.6 381.3 243.5 381.5 246.2 C381.7 248.8 381.9 251.2 382.1 253.4 C382.3 255.5 382.4 257 382.5 258 C384.7 258.2 387.7 257.9 391.5 256.8 C395.3 255.8 399.2 254 403.3 251.4 C407.4 248.9 411.2 245.6 414.8 241.5 C418.4 237.5 421.2 232.6 423.1 226.9 C423.8 222.4 423.6 218.5 422.4 214.9 C421.2 211.4 419.5 208.2 417.1 205.3 C414.8 202.5 411.9 200 408.6 197.7 C405.2 195.4 401.7 193.3 398 191.4 C394.3 189.4 390.5 187.6 386.7 185.9 C382.8 184.2 379.2 182.5 375.9 180.8 C375.9 181.6 376 183 376.2 185 C376.4 186.9 376.6 189 376.8 191.4 C376.9 193.8 377.1 196.3 377.3 198.9 C377.5 201.5 377.7 203.9 377.9 206.1 C378.1 208.3 378.3 210.2 378.4 211.6 C378.6 213 378.6 213.8 378.6 214 ZM443.3 222.2 C443.6 222.2 444.4 221.9 445.7 221.5 C447.1 221 448.2 221 449 221.2 C451.8 221.1 454 221.9 455.4 223.4 C456.9 224.9 457.1 227.9 455.8 232.3 C454 237.2 451.6 241.3 448.5 244.6 C445.5 247.8 441.9 251 437.8 253.9 C438.8 256.4 440.2 257.8 442.1 258.1 C444 258.4 446.1 258.1 448.2 257.2 C450.3 256.3 452.4 255 454.4 253.5 C456.4 252 458 250.6 459.3 249.5 C461.3 247.7 462.9 246.3 464.1 245.1 C465.3 243.9 466.6 242.4 467.9 240.7 C468.2 240.5 468.4 240.5 468.4 240.8 C468.5 241 468.4 241.4 468.3 241.8 C468.2 242.3 468.1 243 467.9 243.8 C467.6 244.5 467.3 245.1 467 245.6 C466.8 246.2 466.3 246.8 465.8 247.4 C465.3 248 464.6 248.7 463.7 249.6 C462.9 250.5 461.8 251.6 460.6 253.1 C459.1 254.4 457.7 255.7 456.4 257 C455 258.3 453.6 259.4 452.1 260.4 C450.6 261.4 449 262 447.2 262.4 C445.5 262.8 443.4 262.8 441.1 262.4 C439.2 261.8 437.7 261 436.5 260.3 C435.4 259.5 434.5 258.7 433.8 257.9 C433.2 257.1 432.8 256.3 432.5 255.7 C432.2 255 432 254.4 431.9 253.9 C431.4 252 431.2 249.4 431.3 246.2 C431.4 242.9 432.4 238.7 434.2 233.5 C435.5 230.8 436.8 228.5 438.2 226.6 C439.7 224.8 441.4 223.3 443.3 222.2 ZM436.9 247.7 C438.2 247.1 439.7 246.1 441.3 244.9 C443 243.7 444.6 242.3 446.1 240.8 C447.6 239.2 448.9 237.4 450 235.5 C451.1 233.6 451.7 231.6 451.8 229.4 C452.1 228 452 227 451.6 226.4 C451.4 226.1 451.2 226 451.1 226 C449.4 225.2 447.8 225.5 446.2 226.7 C444.5 228 443 229.7 441.7 232 C440.4 234.3 439.2 236.9 438.3 239.7 C437.4 242.6 436.9 245.2 436.9 247.7 ZM482.2 217.6 C484.6 218 486.6 218.6 488.1 219.2 C489.7 219.9 491 220.6 491.9 221.5 C492.8 222.3 493.5 223.1 494 224 C494.6 224.8 495.1 225.7 495.6 226.4 C495.5 226.8 495 226.8 494.2 226.3 C493.4 225.8 492.6 225.3 491.8 224.8 C489.7 223.5 487.2 222.7 484.2 222.4 C481.2 222.1 478.4 222.3 475.9 222.9 C473.4 223.5 471.3 224.6 469.8 226.1 C468.2 227.7 467.9 229.5 468.6 231.8 C469.4 234 470.8 235.9 472.7 237.5 C474.7 239.1 476.9 240.6 479.3 241.9 C481.7 243.2 484.1 244.4 486.5 245.4 C488.9 246.5 490.8 247.5 492.4 248.6 C494.3 247.5 495.9 246.7 497.3 245.9 C498.6 245.2 499.8 244.5 500.9 243.9 C501.9 243.3 503 242.7 504.1 242.2 C505.2 241.7 506.5 241.1 507.9 240.4 C508.1 240.3 508.3 240.2 508.4 240.2 C508.6 240.2 508.6 240.4 508.4 240.6 C508.3 240.8 507.9 241.2 507.3 241.8 C506.7 242.3 505.7 243 504.3 244 C503.7 244.5 502.4 245.3 500.6 246.4 C498.8 247.6 496.8 248.8 494.7 250.2 C495.8 251.2 496.8 252.3 497.4 253.5 C498 254.6 498.4 255.7 498.6 256.9 C498.9 258.1 498.7 259.3 498 260.6 C496.1 263.6 493.9 266 491.5 267.8 C489.1 269.5 486.9 270.7 484.9 271.4 C483.6 271.8 482.1 271.9 480.4 271.5 C478.8 271.1 477.5 270.3 476.5 269.2 C475.5 267.7 475.2 266.1 475.8 264.5 C476.3 262.9 477.2 261.4 478.4 259.9 C479.7 258.4 481.1 257 482.7 255.7 C484.4 254.3 485.8 253.1 487.1 252.1 C486.2 251.1 484.5 249.9 482 248.5 C479.5 247.1 477 245.6 474.3 243.9 C471.7 242.2 469.3 240.4 467.2 238.5 C465.1 236.6 463.9 234.7 463.7 232.8 C463.3 230.6 463.6 228.6 464.5 226.6 C465.4 224.7 466.8 222.9 468.6 221.5 C470.3 220 472.4 218.9 474.7 218.1 C477.1 217.4 479.6 217.3 482.2 217.6 ZM480.9 267 C481.9 267.5 483.1 267.5 484.5 267 C485.8 266.6 487.1 265.9 488.3 264.9 C489.5 264 490.5 263 491.4 261.9 C492.4 260.8 493 259.8 493.2 259 C493.5 258.2 493.3 257.4 492.5 256.4 C491.6 255.5 490.8 254.8 489.9 254.2 C488.9 255 487.7 256 486.3 257.2 C485 258.4 483.8 259.6 482.8 260.8 C481.8 262.1 481.1 263.3 480.6 264.4 C480.1 265.6 480.2 266.5 480.9 267 ZM512.7 199.6 C513.6 199.4 514.2 200 514.4 201.4 C514.6 202.7 514.4 203.7 513.8 204.4 C512.8 205.3 512.1 206 511.8 206.6 C511.5 207.2 510.9 207.7 509.8 207.8 C509.2 207.8 508.7 207.7 508.3 207.8 C507.9 207.8 507.5 207 507.2 205.4 C507.6 204.3 508.2 203.3 509 202.2 C509.8 201.2 511.1 200.3 512.7 199.6 ZM513.1 218.4 C513.6 223 513.9 228 514.1 233.6 C514.3 239.1 514.7 244.9 515.1 250.9 C515.5 254 515.9 256.4 516.3 258.1 C516.7 259.8 517 261.5 517.2 263 C515.6 263.3 514.4 263.3 513.6 262.9 C512.7 262.6 511.9 262.2 511.1 261.7 C510.9 260.2 510.7 257.6 510.5 254.1 C510.2 250.5 510 246.7 509.7 242.5 C509.5 238.3 509.3 234.2 509 230.3 C508.8 226.4 508.6 223.3 508.4 221 C508.8 220.8 509.1 220.5 509.3 220.1 C509.5 219.7 509.8 219.4 510.1 219.1 C510.4 218.8 510.8 218.6 511.2 218.4 C511.7 218.2 512.4 218.2 513.1 218.4 ZM566.8 247.3 C567 247.5 567 247.8 566.8 248.3 C566.5 248.8 566.2 249.3 565.8 249.9 C565.3 250.5 564.9 251 564.5 251.6 C564 252.1 563.7 252.4 563.5 252.6 C561.2 255.2 559.2 257.5 557.3 259.3 C555.5 261.2 554 262.8 552.9 264.2 C552.9 264.2 552.8 264.8 552.8 265.8 C552.7 266.8 552.7 267.4 552.7 267.5 C552.5 270.7 552.5 274 552.5 277.3 C552.6 280.6 552.3 284 551.9 287.3 C551.3 291.2 550.7 294.3 550.1 296.6 C549.4 299 548.8 300.9 548.1 302.4 C547.4 303.9 546.7 305.1 546 306.1 C545.3 307.1 544.5 308.3 543.6 309.5 C542.9 310.6 542 311.5 541.1 312.2 C540.1 313 538.8 313.9 537.2 315 C535 316.3 532.7 317.3 530.3 318 C527.9 318.7 525.6 318.8 523.6 318.4 C521.6 317.9 519.9 316.9 518.5 315.1 C517.1 313.4 516.3 310.8 516.1 307.4 C516 303.5 516.6 299.7 518.2 296 C519.7 292.2 521.5 288.8 523.6 285.8 C525.7 282.7 527.8 280.1 529.8 278 C531.8 275.9 533.2 274.4 534 273.7 C535.2 272.3 536.4 271.2 537.4 270.2 C538.4 269.2 539.4 268.4 540.5 267.5 C541.5 266.7 542.7 265.8 543.9 264.9 C545.1 263.9 546.5 262.8 548.1 261.4 C548.5 259.1 548.7 256.7 548.8 254.1 C548.9 251.6 548.9 249 548.8 246.3 C547.1 249.8 545.3 252.6 543.3 254.6 C541.3 256.7 539.5 258.2 538 259.2 C536.4 260.2 535.1 260.8 534.1 261.1 C533.1 261.3 532.7 261.4 532.8 261.4 C531 261.7 529.6 261.8 528.5 261.6 C527.4 261.5 526.5 261.2 525.9 260.8 C525.2 260.3 524.8 259.8 524.4 259.3 C524.1 258.7 523.8 258.1 523.6 257.5 C523.2 255 523.2 252.5 523.7 249.8 C524.2 247.2 525 244.7 526.1 242.3 C527.1 239.9 528.3 237.7 529.5 235.6 C530.8 233.6 531.9 232 533 230.7 C533.2 230.6 533.6 230 534.4 229.2 C535.1 228.4 536 227.5 537.2 226.5 C538.3 225.5 539.7 224.5 541.4 223.4 C543.1 222.3 545 221.4 547.2 220.5 C549.5 220 551.7 219.8 554 219.9 C556.3 219.9 558.2 220.5 559.6 221.5 C558.9 221.8 557.7 222.2 556.1 222.6 C554.5 223 553.5 223.4 553 223.5 L553 223.8 C553 224.1 553.1 224.3 553.3 224.3 C551.7 223.9 549.1 224.6 545.7 226.3 C542.2 228 538.5 231.3 534.4 236.2 C532.6 238.8 531.2 241.1 530.3 243.2 C529.3 245.3 528.6 247 528.2 248.5 C527.7 250 527.5 251.3 527.5 252.3 C527.5 253.4 527.6 254.2 527.7 254.8 C527.8 255.2 528.1 255.5 528.7 255.8 C529.2 256.1 530 256.1 530.8 255.9 C533.3 255.4 535.7 254.1 537.8 252.1 C540 250.2 541.9 247.9 543.7 245.4 C545.5 242.9 547 240.5 548.3 238.1 C549.5 235.7 550.4 233.8 551 232.3 C552 230.1 552.5 228.1 552.5 226.2 C552.6 224.3 552.5 223.4 552.3 223.4 L552.5 223.4 L552.9 223.4 C553 223.4 553 223.4 552.9 223.5 C552.9 223.5 552.6 223.6 552 223.7 C552.2 223.5 552.4 223.4 552.6 223.3 C552.8 223.3 553 223.2 553.2 223.1 C553.1 223 553.1 222.9 553.2 222.8 C553.4 222.6 553.5 222.5 553.7 222.5 C553.7 222.3 554 222.2 554.4 222 L555.3 221.7 L555.7 221.4 C556.1 221.2 556.4 221 556.5 221 C556.6 220.9 556.7 220.8 556.8 220.8 C557 220.8 557.2 220.9 557.6 221 C558 221.2 558.7 221.4 559.6 221.7 C558.8 224 558 226.8 557.4 230.1 C556.8 233.4 556.2 236.7 555.7 240.1 C555.3 243.5 554.9 246.7 554.5 249.7 C554.2 252.7 553.9 255.1 553.6 256.8 C554.4 256 555.5 255.1 557 254.1 C558.5 253 559.9 252 561.4 250.9 C563.1 249.8 564.9 248.6 566.8 247.3 ZM548.7 272.2 C549 270 548.9 268.7 548.5 268.2 C548.4 267.9 548.1 267.8 547.8 267.9 C545.2 270 543.1 271.8 541.5 273.2 C539.9 274.7 538.8 275.6 538.2 276.1 C533.6 280.4 530.1 284.2 527.9 287.6 C525.6 290.9 524.1 293.9 523.3 296.7 C522.3 299.8 521.7 302.5 521.5 304.8 C521.4 307.2 522 309.5 523.3 311.7 C525.7 313.5 528.4 313.9 531.2 312.8 C534 311.6 536.6 309.9 539 307.6 C541.8 304.5 544.1 300 545.8 294.3 C547.5 288.6 548.5 281.2 548.7 272.2 ZM574.2 219.1 C574.2 221.8 574.2 224.5 574.1 227.1 C574.1 229.8 574 232.4 574 234.9 C573.9 237.4 573.9 239.8 573.8 242 C573.8 244.2 573.7 246.2 573.6 247.9 C573.6 247.5 573.8 246.6 574.2 245.1 C574.7 243.6 575.3 241.9 576 240 C576.8 238 577.7 236 578.6 233.8 C579.5 231.7 580.5 229.8 581.5 228.1 C582.6 226.4 583.7 225.1 584.8 224.1 C585.9 223.2 586.9 222.9 587.9 223.3 C590 224.2 591.5 225.6 592.3 227.4 C593.2 229.3 593.8 231.3 594.2 233.7 C594.6 236 595 238.7 595.3 241.5 C595.7 244.4 596.6 247.4 597.9 250.6 C598.5 252.1 599.4 253.1 600.5 253.8 C601.6 254.5 602.6 254.9 603.6 255.2 C604.6 255.5 605.4 255.7 606.1 255.7 C606.7 255.8 606.9 255.9 606.7 256.2 C604.3 258.1 602.3 258.7 600.5 258.1 C598.8 257.5 597.3 256.3 596.1 254.3 C594.9 252.3 594 250 593.2 247.2 C592.4 244.5 591.7 241.9 591.1 239.3 C590.5 236.8 589.9 234.6 589.4 232.8 C589 231.1 588.4 230.2 587.9 230.2 C587 230.3 586.1 231.1 585 232.6 C584 234.2 583 236.1 582 238.4 C580.9 240.7 579.9 243.2 578.9 245.9 C578 248.7 577.1 251.2 576.3 253.6 C575.4 256 574.8 258.1 574.3 259.8 C573.8 261.6 573.6 262.6 573.5 263 C572 263 571.1 263 570.8 263.1 C570.5 263.2 569.9 262.8 569.1 261.7 C569.6 253.3 569.8 245.3 569.6 237.7 C569.5 230.2 569.3 223.6 569 218.1 C569 217.2 569.2 216.8 569.6 216.8 C570.1 216.8 570.6 217 571.1 217.4 C571.6 217.7 572.2 218.1 572.7 218.5 C573.3 218.9 573.8 219.1 574.2 219.1 L574.2 219.1 Z"/></g></g></g></svg>