<svg width="1048" height="127" viewBox="0 0 1048 127" xmlns="http://www.w3.org/2000/svg" xmlns:xlink="http://www.w3.org/1999/xlink"><title>Slice 1</title><desc>Created with Sketch.</desc><defs><linearGradient x1="84.698%" y1="111.399%" x2="58.242%" y2="64.584%" id="a"><stop stop-color="#FB7655" offset="0%"/><stop stop-color="#FB7655" offset="0%"/><stop stop-color="#E42B1E" offset="41%"/><stop stop-color="#900" offset="99%"/><stop stop-color="#900" offset="100%"/></linearGradient><linearGradient x1="116.651%" y1="53.17%" x2="1.746%" y2="41.06%" id="b"><stop stop-color="#871101" offset="0%"/><stop stop-color="#871101" offset="0%"/><stop stop-color="#911209" offset="99%"/><stop stop-color="#911209" offset="100%"/></linearGradient><linearGradient x1="50.351%" y1="219.327%" x2="49.85%" y2="7.829%" id="c"><stop stop-color="#871101" offset="0%"/><stop stop-color="#871101" offset="0%"/><stop stop-color="#911209" offset="99%"/><stop stop-color="#911209" offset="100%"/></linearGradient><linearGradient x1="50.012%" y1="30.705%" x2="66.483%" y2="63.145%" id="d"><stop stop-color="#fff" offset="0%"/><stop stop-color="#fff" offset="0%"/><stop stop-color="#E57252" offset="23%"/><stop stop-color="#DE3B20" offset="46%"/><stop stop-color="#A60003" offset="99%"/><stop stop-color="#A60003" offset="100%"/></linearGradient><linearGradient x1="46.174%" y1="17.29%" x2="49.932%" y2="82.122%" id="e"><stop stop-color="#fff" offset="0%"/><stop stop-color="#fff" offset="0%"/><stop stop-color="#E4714E" offset="23%"/><stop stop-color="#BE1A0D" offset="56%"/><stop stop-color="#A80D00" offset="99%"/><stop stop-color="#A80D00" offset="100%"/></linearGradient><linearGradient x1="43.537%" y1="15.594%" x2="49.766%" y2="92.478%" id="f"><stop stop-color="#fff" offset="0%"/><stop stop-color="#fff" offset="0%"/><stop stop-color="#E46342" offset="18%"/><stop stop-color="#C82410" offset="40%"/><stop stop-color="#A80D00" offset="99%"/><stop stop-color="#A80D00" offset="100%"/></linearGradient><linearGradient x1="45.709%" y1="58.346%" x2="54.217%" y2="-46.717%" id="g"><stop stop-color="#fff" offset="0%"/><stop stop-color="#fff" offset="0%"/><stop stop-color="#C81F11" offset="54%"/><stop stop-color="#BF0905" offset="99%"/><stop stop-color="#BF0905" offset="100%"/></linearGradient><linearGradient x1="27.624%" y1="48.193%" x2="50.745%" y2="51.819%" id="h"><stop stop-color="#fff" offset="0%"/><stop stop-color="#fff" offset="0%"/><stop stop-color="#DE4024" offset="31%"/><stop stop-color="#BF190B" offset="99%"/><stop stop-color="#BF190B" offset="100%"/></linearGradient><linearGradient x1="-20.466%" y1="122.282%" x2="104.087%" y2="-6.342%" id="i"><stop stop-color="#BD0012" offset="0%"/><stop stop-color="#BD0012" offset="0%"/><stop stop-color="#fff" offset="7%"/><stop stop-color="#fff" offset="17%"/><stop stop-color="#C82F1C" offset="27%"/><stop stop-color="#820C01" offset="33%"/><stop stop-color="#A31601" offset="46%"/><stop stop-color="#B31301" offset="72%"/><stop stop-color="#E82609" offset="99%"/><stop stop-color="#E82609" offset="100%"/></linearGradient><linearGradient x1="55.166%" y1="65.205%" x2="27.65%" y2="50.128%" id="j"><stop stop-color="#8C0C01" offset="0%"/><stop stop-color="#8C0C01" offset="0%"/><stop stop-color="#990C00" offset="54%"/><stop stop-color="#A80D0E" offset="99%"/><stop stop-color="#A80D0E" offset="100%"/></linearGradient><linearGradient x1="79.319%" y1="60.108%" x2="23.088%" y2="24.551%" id="k"><stop stop-color="#7E110B" offset="0%"/><stop stop-color="#7E110B" offset="0%"/><stop stop-color="#9E0C00" offset="99%"/><stop stop-color="#9E0C00" offset="100%"/></linearGradient><linearGradient x1="92.88%" y1="72.906%" x2="59.841%" y2="40.223%" id="l"><stop stop-color="#79130D" offset="0%"/><stop stop-color="#79130D" offset="0%"/><stop stop-color="#9E120B" offset="99%"/><stop stop-color="#9E120B" offset="100%"/></linearGradient><radialGradient cx="32.001%" cy="40.21%" fx="32.001%" fy="40.21%" r="69.573%" id="m"><stop stop-color="#A80D00" offset="0%"/><stop stop-color="#A80D00" offset="0%"/><stop stop-color="#7E0E08" offset="99%"/><stop stop-color="#7E0E08" offset="100%"/></radialGradient><radialGradient cx="13.549%" cy="40.86%" fx="13.549%" fy="40.86%" r="88.386%" id="n"><stop stop-color="#A30C00" offset="0%"/><stop stop-color="#A30C00" offset="0%"/><stop stop-color="#800E08" offset="99%"/><stop stop-color="#800E08" offset="100%"/></radialGradient><linearGradient x1="56.57%" y1="62.653%" x2="3.105%" y2="40.701%" id="o"><stop stop-color="#8B2114" offset="0%"/><stop stop-color="#8B2114" offset="0%"/><stop stop-color="#9E100A" offset="43%"/><stop stop-color="#B3100C" offset="99%"/><stop stop-color="#B3100C" offset="100%"/></linearGradient><linearGradient x1="46.662%" y1="35.599%" x2="57.411%" y2="100.694%" id="p"><stop stop-color="#B31000" offset="0%"/><stop stop-color="#B31000" offset="0%"/><stop stop-color="#910F08" offset="44%"/><stop stop-color="#791C12" offset="99%"/><stop stop-color="#791C12" offset="100%"/></linearGradient><path id="path-17" d="M.018.107h102.467v114.677H.018"/><path id="path-19" d="M.018.107h102.467v114.677H.018"/><path id="u" d="M.018.107h102.467v114.677H.018"/><path id="w" d="M.018.107h102.467v114.677H.018"/><path id="y" d="M.018.107h102.467v114.677H.018"/><path id="A" d="M.018.107h102.467v114.677H.018"/><path id="C" d="M.018.107h102.467v114.677H.018"/><path id="E" d="M.018.107h102.467v114.677H.018"/></defs><g id="Page-1" fill="none" fill-rule="evenodd"><g><g><g id="Group"><g fill="#353128"><path d="M474.028 54.063c-.496-3.47-3.47-5.455-4.958-6.942-1.983-.99-4.463-1.487-7.438-1.487-6.445 0-12.395 1.984-12.395 5.454 0 2.48 1.487 3.967 6.445 4.463l12.892.992c5.454.495 8.43 1.983 11.404 3.47 3.967 1.984 5.95 6.446 5.95 10.91 0 5.453-2.48 9.42-6.94 11.9-3.968 1.982-8.926 2.974-16.364 2.974-8.925 0-15.37-1.984-19.337-5.454-2.975-2.975-3.967-5.95-4.463-11.9h8.43c.495 2.975.99 4.462 2.974 5.95 2.48 1.983 8.43 2.975 12.892 2.975 6.942 0 12.396-1.984 12.396-5.95 0-2.975-3.47-4.463-8.43-4.96l-12.395-1.486c-9.42-.99-14.874-5.453-14.874-12.89 0-9.422 8.43-15.372 21.817-15.372 6.94 0 12.89 1.488 16.858 4.463 4.96 3.472 4.96 8.926 4.96 12.397h-9.422v.495zM496.34 26.792L452.71 1.504c-2.976-1.487-6.446-1.983-9.42 0l-43.635 25.288c-2.975 1.487-4.958 4.958-4.958 8.43v50.574c0 3.47 1.983 6.446 4.958 8.43l43.634 25.287c2.975 1.487 6.445 1.983 9.42 0l43.634-25.288c2.976-1.487 4.96-4.958 4.96-8.43V35.222c0-3.47-1.984-6.445-4.96-8.428zm-3.47 59.995l-45.12 25.784-20.826-12.395c3.47-1.983 5.454-5.95 5.95-9.917V37.204h-8.925v50.078c0 3.968-2.976 6.943-6.943 6.943-.99 0-1.983 0-2.48-.496h-.495l-11.404-6.447V35.22l45.12-25.782 45.122 26.28v51.07z" id="Shape"/></g><g fill="#F03C2E"><path d="M659.906 57.242L610.16 7.502c-2.86-2.864-7.507-2.864-10.373 0l-10.33 10.33 13.103 13.103c3.046-1.03 6.537-.34 8.964 2.088 2.44 2.442 3.124 5.963 2.07 9.02l12.628 12.628c3.055-1.052 6.58-.372 9.02 2.072 3.41 3.41 3.41 8.934 0 12.345-3.412 3.41-8.937 3.41-12.35 0-2.564-2.567-3.2-6.335-1.9-9.494l-11.777-11.777v30.99c.83.412 1.615.962 2.308 1.65 3.41 3.41 3.41 8.935 0 12.35-3.41 3.41-8.938 3.41-12.345 0-3.41-3.415-3.41-8.94 0-12.35.843-.84 1.818-1.477 2.86-1.903v-31.28c-1.042-.424-2.016-1.056-2.86-1.904-2.583-2.582-3.205-6.373-1.88-9.545L584.38 22.907l-34.105 34.105c-2.865 2.867-2.865 7.513 0 10.378l49.742 49.74c2.864 2.864 7.51 2.864 10.376 0l49.512-49.505c2.865-2.866 2.865-7.514 0-10.38" id="Shape"/></g><g><g id="Group"><path d="M245.348 2h105.3l-9.4 107.6-43.3 11.8-43.2-11.8-9.4-107.6z" id="Shape" fill="#0A71B9"/><path d="M297.948 10.9h43.9l-8.4 91.7-35.5 10.2V10.9z" id="Shape" fill="#28A7DE"/><path d="M325.148 24.2h-60.1l1.3 13.1h50.2l-1.6 13.2h-47.4l1.2 12.9h45.5l-1.7 17.8-14.8 3.6-14.5-3.6-.8-10.6h-13l2 21.3 26.9 7.3 26.8-7.3 6.3-67.7h-6.3z" id="Shape" fill="#EBEBEB"/><g id="Shape"><path d="M314.948 50.5l1.6-13.2h-18.3v13.2h16.7zM312.548 81.2l1.7-17.8h-16v21.2l14.3-3.4z"/><path d="M325.048 24.2h-27.1v13.1h18.5l-1.6 13.2h-16.9v12.9h16.2l-1.7 17.8-14.5 3.4v14.6h.2l26.9-7.3 6.4-67.7h-6.4z" fill="#fff"/></g></g></g><g><g id="Group"><path d="M95 1.5h105.9l-9.4 108.2-43.6 11.9-43.5-11.9L95 1.5z" id="Shape" fill="#E55025"/><path d="M191.8 10.5h-43.5v102.2l35.1-10 8.4-92.2z" id="Shape" fill="#F26722"/><path d="M129.4 37h51l1.2-13.2h-66.7l3.7 39.4h45.9l-1.7 17.9-15 3.7-14.5-3.7-.9-10.6h-13.1l2 21.4 27.1 7.4 26.8-7.4 3.9-41.6H131L129.4 37z" id="Shape" fill="#fff"/><g id="Shape"><path d="M147.8 84.8l-14.5-3.7-.9-10.6h-13.1l2 21.4 27 7.4V84.7l-.5.1z" fill="#E6E6E6"/><path d="M131 50.3L129.4 37h18.9V23.8h-33.4l3.7 39.4h29.7V50.3H131z" fill="#EBEBEB"/></g></g></g><g><g id="Group"><g><path d="M734.574 69.9v-10c0-.7.4-1.3 1-1.6l8.7-5c.6-.3 1.3-.3 1.9 0l8.6 5c.6.3.9 1 .9 1.7v10c0 .7-.4 1.3-1 1.6l-8.7 5c-.6.3-1.3.3-1.9 0l-8.6-5c-.5-.4-.9-1-.9-1.7zM799.474 66v-1.9c0-.1.1-.3.2-.3l1.7-1c.1-.1.3-.1.4 0l1.7 1c.1.1.2.2.2.3V66c0 .1-.1.3-.2.3l-1.7 1c-.1.1-.3.1-.4 0l-1.7-1c-.1-.1-.2-.2-.2-.3z" fill="#8CC644"/><path d="M783.074 43.1l-5.5-3c-.3-.2-.7.1-.7.4v14.1c0 .2-.3.4-.5.4l-.3-.1-1.7-1c-.6-.3-1.3-.3-1.9 0l-8.5 4.9c-.6.3-.9.9-.9 1.6v9.8c0 .7.4 1.3.9 1.6l8.4 4.9c.6.3 1.3.3 1.9 0l8.5-4.9c.6-.3.9-.9.9-1.6v-26c.1-.5-.2-.9-.6-1.1zm-6.2 24.1l-3.5 2-3.4-2v-4l3.5-2 3.4 2v4zM706.474 73.9V59.7c0-.3.2-.6.5-.8l9.7-5.4c.3-.1.6-.1.9 0l9.5 5.4c.3.2.5.5.5.8v14.2c0 .3-.3.5-.6.4l-5.9-3.3c-.3-.1-.4-.4-.4-.7v-6.5c0-.3-.2-.6-.4-.8l-2.8-1.6c-.2-.1-.5-.1-.8 0l-2.7 1.6c-.3.2-.4.5-.4.8v6.4c0 .3-.2.6-.4.7l-6 3.2c-.4.3-.7.1-.7-.2zM791.574 58.9l9.4-5.3c.3-.2.7-.2 1.1 0l9.5 5.3c.3.2.5.5.5.9v2.6c0 .4-.2.8-.6.9l-6 3.3c-.3.1-.5-.1-.5-.3v-2.7c0-.3-.1-.5-.4-.7l-2.7-1.6c-.3-.2-.6-.2-.8 0l-2.7 1.6c-.2.1-.4.4-.4.7v3c0 .3.2.6.4.7l9.4 5.5c.2.1.2.5 0 .6l-5.9 3.3c-.3.1-.6.1-.8 0l-9.5-5.3c-.3-.2-.6-.6-.6-.9V59.8c0-.4.2-.8.6-.9z" fill="#353128"/></g></g></g><g><path d="M75.436 64.088l-55.592 33.01 71.98-4.884 5.545-72.58-21.934 44.454z" fill="url(#a)" transform="translate(-52) translate(906.585 13.74)"/><path d="M91.943 92.164l-6.187-42.7-16.852 22.252 23.04 20.448z" fill="url(#b)" transform="translate(-52) translate(906.585 13.74)"/><path d="M92.026 92.164L46.7 88.606l-26.615 8.4 71.94-4.842z" fill="url(#c)" transform="translate(-52) translate(906.585 13.74)"/><path d="M20.15 97.015L31.47 59.92 6.556 65.25 20.15 97.014z" fill="url(#d)" transform="translate(-52) translate(906.585 13.74)"/><path d="M68.9 71.838l-10.42-40.81-29.814 27.95L68.9 71.837z" fill="url(#e)" transform="translate(-52) translate(906.585 13.74)"/><path d="M95.005 31.604L66.82 8.584 58.974 33.96l36.032-2.354z" fill="url(#f)" transform="translate(-52) translate(906.585 13.74)"/><path d="M81.824.378l-16.576 9.16L54.79.257l27.034.122z" fill="url(#g)" transform="translate(-52) translate(906.585 13.74)"/><path d="M0 77.69l6.944-12.663L1.327 49.94 0 77.69z" fill="url(#h)" transform="translate(-52) translate(906.585 13.74)"/><path d="M855.538 63.203l5.652 16.03 24.557-5.51 28.037-26.055 7.912-25.13-12.46-8.798-21.18 7.927c-6.673 6.207-19.622 18.488-20.09 18.72-.46.235-8.55 15.523-12.428 22.816z" fill="#fff"/><path d="M20.798 20.665C35.26 6.325 53.906-2.148 61.06 5.072c7.152 7.22-.43 24.763-14.894 39.098C31.703 58.506 13.288 67.445 6.138 60.226c-7.155-7.215.197-25.226 14.66-39.56z" fill="url(#i)" transform="translate(-52) translate(906.585 13.74)"/><path d="M20.15 97l11.233-37.212 37.31 11.986C55.203 84.424 40.2 95.118 20.15 97z" fill="url(#j)" transform="translate(-52) translate(906.585 13.74)"/><path d="M59.248 33.855l9.578 37.94c11.27-11.85 21.382-24.587 26.336-40.343l-35.914 2.403z" fill="url(#k)" transform="translate(-52) translate(906.585 13.74)"/><path d="M95.064 31.644C98.897 20.074 99.782 3.48 81.706.398L66.874 8.59l28.19 23.054z" fill="url(#l)" transform="translate(-52) translate(906.585 13.74)"/><path d="M854.585 91.264c.53 19.093 14.306 19.378 20.174 19.545l-13.555-31.655-6.62 12.11z" fill="#9E1209"/><path d="M59.3 33.914c8.66 5.322 26.112 16.01 26.466 16.208.55.31 7.524-11.76 9.106-18.582l-35.57 2.374z" fill="url(#m)" transform="translate(-52) translate(906.585 13.74)"/><path d="M31.368 59.788l15.02 28.975c8.88-4.816 15.833-10.683 22.202-16.97L31.368 59.79z" fill="url(#n)" transform="translate(-52) translate(906.585 13.74)"/><path d="M6.56 65.455L4.434 90.793c4.015 5.485 9.54 5.96 15.333 5.534C15.574 85.894 7.2 65.032 6.56 65.455z" fill="url(#o)" transform="translate(-52) translate(906.585 13.74)"/><path d="M66.786 8.654l29.836 4.187C95.03 6.095 90.14 1.74 81.805.38l-15.02 8.276z" fill="url(#p)" transform="translate(-52) translate(906.585 13.74)"/></g><g id="c"><g><g id="Group-6"><g id="mask-18" fill="#fff"><path d="M-51.982 5.107H50.485v114.677H-51.982" id="q"/></g><g id="Fill-1-Clipped" transform="translate(-52) translate(0 5)"><mask id="r"><use xlink:href="#q"/></mask><path d="M51.242 40.573c-9.36 0-16.947 7.554-16.947 16.872 0 3.047.816 5.904 2.235 8.37L65.9 48.98c-2.936-5.025-8.4-8.407-14.658-8.407" id="Fill-1" fill="#5C8DBC" mask="url(#r)"/></g><g id="Fill-3-Clipped" transform="translate(-52) translate(0 5)"><mask id="mask-20"><use xlink:href="#s"/></mask><path d="M17.21 57.445c0-18.713 15.236-33.883 34.032-33.883 12.59 0 23.583 6.807 29.47 16.926l20.515-11.76c-.823-1.44-2.055-2.644-3.708-3.597C83.874 17.3 70.22 9.49 56.58 1.65 52.9-.462 49.336-.385 45.686 1.76c-5.43 3.188-32.62 18.697-40.72 23.37-3.338 1.922-4.96 4.865-4.962 8.69C0 49.57.005 65.32 0 81.072c0 1.886.397 3.557 1.198 4.998l20.518-11.762c-2.867-4.966-4.507-10.724-4.507-16.863" id="Fill-3" fill="#5C8DBC" mask="url(#t)"/></g><g id="Fill-4-Clipped" transform="translate(-52) translate(0 5)"><mask id="v"><use xlink:href="#u"/></mask><path d="M36.53 65.816c2.92 5.077 8.413 8.502 14.712 8.502 6.34 0 11.86-3.468 14.768-8.6L51.4 57.292l-14.87 8.524" id="Fill-4" fill="#1A4674" mask="url(#v)"/></g><g id="Fill-5-Clipped" transform="translate(-52) translate(0 5)"><mask id="x"><use xlink:href="#w"/></mask><path d="M51.242 91.33c-12.63 0-23.653-6.85-29.526-17.022L1.198 86.07c.823 1.48 2.073 2.72 3.764 3.694 8.102 4.672 35.294 20.18 40.724 23.37 3.65 2.143 7.216 2.22 10.895.106 13.64-7.84 27.298-15.65 40.943-23.48 1.69-.975 2.94-2.214 3.764-3.695L80.8 74.25c-5.864 10.202-16.905 17.08-29.558 17.08" id="Fill-5" fill="#1A4674" mask="url(#x)"/></g></g><path d="M47.736 64.35h-3.898v3.88h-3.9v-3.88h-3.897v-3.882h3.9v-3.88h3.898v3.88h3.898v3.88zm-14.224 0h-3.898v3.88h-3.9v-3.88h-3.897v-3.882h3.898v-3.88h3.9v3.88h3.897v3.88zm15.715-30.622L-.83 62.396 49.228 91.18c.8-1.44 1.257-3.226 1.258-5.112 0 0 0-31.494-.006-47.246 0-1.928-.416-3.632-1.253-5.094z" fill="#1B598E"/><path d="M43.838 56.587h-3.9v3.88h-3.897v3.882h3.9v3.88h3.898v-3.88h3.898v-3.882h-3.898v-3.88" fill="#fff"/><path d="M29.614 56.587h-3.9v3.88h-3.897v3.882h3.898v3.88h3.9v-3.88h3.897v-3.882h-3.898v-3.88" fill="#fff"/><path d="M14.01 70.718c-2.907 5.132-8.43 8.6-14.768 8.6-6.3 0-11.79-3.425-14.712-8.502-1.42-2.467-2.235-5.324-2.235-8.37 0-9.32 7.588-16.873 16.947-16.873 6.26 0 11.722 3.382 14.657 8.407l14.812-8.492c-5.887-10.12-16.88-16.926-29.47-16.926-18.796 0-34.033 15.17-34.033 33.883 0 6.14 1.64 11.897 4.506 16.863 5.873 10.172 16.896 17.02 29.526 17.02 12.653 0 23.694-6.876 29.56-17.078L14.01 70.718" id="Fill-10" fill="#fff"/></g></g><g><g><g><g id="t" fill="#fff"><path d="M995.907 5.107h102.467v114.677H995.907" id="s"/></g><g transform="translate(-52) translate(1047.889 5)"><mask id="z"><use xlink:href="#y"/></mask><path d="M51.242 40.573c-9.36 0-16.947 7.554-16.947 16.872 0 3.047.816 5.904 2.235 8.37L65.9 48.98c-2.936-5.025-8.4-8.407-14.658-8.407" fill="#5C8DBC" mask="url(#z)"/></g><g transform="translate(-52) translate(1047.889 5)"><mask id="B"><use xlink:href="#A"/></mask><path d="M17.21 57.445c0-18.713 15.236-33.883 34.032-33.883 12.59 0 23.583 6.807 29.47 16.926l20.515-11.76c-.823-1.44-2.055-2.644-3.708-3.597C83.874 17.3 70.22 9.49 56.58 1.65 52.9-.462 49.336-.385 45.686 1.76c-5.43 3.188-32.62 18.697-40.72 23.37-3.338 1.922-4.96 4.865-4.962 8.69C0 49.57.005 65.32 0 81.072c0 1.886.397 3.557 1.198 4.998l20.518-11.762c-2.867-4.966-4.507-10.724-4.507-16.863" fill="#5C8DBC" mask="url(#B)"/></g><g transform="translate(-52) translate(1047.889 5)"><mask id="D"><use xlink:href="#C"/></mask><path d="M36.53 65.816c2.92 5.077 8.413 8.502 14.712 8.502 6.34 0 11.86-3.468 14.768-8.6L51.4 57.292l-14.87 8.524" fill="#1A4674" mask="url(#D)"/></g><g transform="translate(-52) translate(1047.889 5)"><mask id="F"><use xlink:href="#E"/></mask><path d="M51.242 91.33c-12.63 0-23.653-6.85-29.526-17.022L1.198 86.07c.823 1.48 2.073 2.72 3.764 3.694 8.102 4.672 35.294 20.18 40.724 23.37 3.65 2.143 7.216 2.22 10.895.106 13.64-7.84 27.298-15.65 40.943-23.48 1.69-.975 2.94-2.214 3.764-3.695L80.8 74.25c-5.864 10.202-16.905 17.08-29.558 17.08" fill="#1A4674" mask="url(#F)"/></g></g><path d="M1061.9 70.718c-2.908 5.132-8.43 8.6-14.77 8.6-6.298 0-11.79-3.425-14.71-8.502-1.42-2.467-2.236-5.324-2.236-8.37 0-9.32 7.588-16.873 16.947-16.873 6.26 0 11.723 3.382 14.658 8.407l14.813-8.492c-5.886-10.12-16.88-16.926-29.47-16.926-18.795 0-34.032 15.17-34.032 33.883 0 6.14 1.64 11.897 4.507 16.863 5.873 10.172 16.896 17.02 29.526 17.02 12.654 0 23.695-6.876 29.56-17.078l-14.79-8.532" fill="#fff"/></g></g></g></g></g></g></svg>