<?xml version="1.0" encoding="UTF-8" standalone="no"?>
<svg width="409px" height="256px" viewBox="0 0 409 256" version="1.1" xmlns="http://www.w3.org/2000/svg" xmlns:xlink="http://www.w3.org/1999/xlink" xmlns:sketch="http://www.bohemiancoding.com/sketch/ns">
    <!-- Generator: Sketch 3.2.2 (9983) - http://www.bohemiancoding.com/sketch -->
    <title>Group</title>
    <desc>Created with Sketch.</desc>
    <defs>
        <linearGradient x1="84.6434177%" y1="111.399%" x2="58.2290348%" y2="64.584%" id="linearGradient-1">
            <stop stop-color="#FB7655" offset="0%"></stop>
            <stop stop-color="#FB7655" offset="0%"></stop>
            <stop stop-color="#E42B1E" offset="41%"></stop>
            <stop stop-color="#990000" offset="99%"></stop>
            <stop stop-color="#990000" offset="100%"></stop>
        </linearGradient>
        <linearGradient x1="116.651%" y1="50.9229294%" x2="1.746%" y2="47.3971645%" id="linearGradient-2">
            <stop stop-color="#871101" offset="0%"></stop>
            <stop stop-color="#871101" offset="0%"></stop>
            <stop stop-color="#911209" offset="99%"></stop>
            <stop stop-color="#911209" offset="100%"></stop>
        </linearGradient>
        <linearGradient x1="50.0047853%" y1="219.327%" x2="49.997955%" y2="7.829%" id="linearGradient-3">
            <stop stop-color="#871101" offset="0%"></stop>
            <stop stop-color="#871101" offset="0%"></stop>
            <stop stop-color="#911209" offset="99%"></stop>
            <stop stop-color="#911209" offset="100%"></stop>
        </linearGradient>
        <linearGradient x1="50.012%" y1="41.2963593%" x2="66.483%" y2="55.9294821%" id="linearGradient-4">
            <stop stop-color="#FFFFFF" offset="0%"></stop>
            <stop stop-color="#FFFFFF" offset="0%"></stop>
            <stop stop-color="#E57252" offset="23%"></stop>
            <stop stop-color="#DE3B20" offset="46%"></stop>
            <stop stop-color="#A60003" offset="99%"></stop>
            <stop stop-color="#A60003" offset="100%"></stop>
        </linearGradient>
        <linearGradient x1="46.174%" y1="18.206834%" x2="49.932%" y2="81.2216472%" id="linearGradient-5">
            <stop stop-color="#FFFFFF" offset="0%"></stop>
            <stop stop-color="#FFFFFF" offset="0%"></stop>
            <stop stop-color="#E4714E" offset="23%"></stop>
            <stop stop-color="#BE1A0D" offset="56%"></stop>
            <stop stop-color="#A80D00" offset="99%"></stop>
            <stop stop-color="#A80D00" offset="100%"></stop>
        </linearGradient>
        <linearGradient x1="46.7944412%" y1="15.594%" x2="49.8839392%" y2="92.478%" id="linearGradient-6">
            <stop stop-color="#FFFFFF" offset="0%"></stop>
            <stop stop-color="#FFFFFF" offset="0%"></stop>
            <stop stop-color="#E46342" offset="18%"></stop>
            <stop stop-color="#C82410" offset="40%"></stop>
            <stop stop-color="#A80D00" offset="99%"></stop>
            <stop stop-color="#A80D00" offset="100%"></stop>
        </linearGradient>
        <linearGradient x1="49.4942598%" y1="58.346%" x2="50.4970185%" y2="-46.717%" id="linearGradient-7">
            <stop stop-color="#FFFFFF" offset="0%"></stop>
            <stop stop-color="#FFFFFF" offset="0%"></stop>
            <stop stop-color="#C81F11" offset="54%"></stop>
            <stop stop-color="#BF0905" offset="99%"></stop>
            <stop stop-color="#BF0905" offset="100%"></stop>
        </linearGradient>
        <linearGradient x1="27.624%" y1="49.8868508%" x2="50.745%" y2="50.1139006%" id="linearGradient-8">
            <stop stop-color="#FFFFFF" offset="0%"></stop>
            <stop stop-color="#FFFFFF" offset="0%"></stop>
            <stop stop-color="#DE4024" offset="31%"></stop>
            <stop stop-color="#BF190B" offset="99%"></stop>
            <stop stop-color="#BF190B" offset="100%"></stop>
        </linearGradient>
        <linearGradient x1="-20.2671083%" y1="122.282%" x2="103.934338%" y2="-6.342%" id="linearGradient-9">
            <stop stop-color="#BD0012" offset="0%"></stop>
            <stop stop-color="#BD0012" offset="0%"></stop>
            <stop stop-color="#FFFFFF" offset="7%"></stop>
            <stop stop-color="#FFFFFF" offset="17%"></stop>
            <stop stop-color="#C82F1C" offset="27%"></stop>
            <stop stop-color="#820C01" offset="33%"></stop>
            <stop stop-color="#A31601" offset="46%"></stop>
            <stop stop-color="#B31301" offset="72%"></stop>
            <stop stop-color="#E82609" offset="99%"></stop>
            <stop stop-color="#E82609" offset="100%"></stop>
        </linearGradient>
        <linearGradient x1="53.0357584%" y1="65.205%" x2="36.8662022%" y2="50.128%" id="linearGradient-10">
            <stop stop-color="#8C0C01" offset="0%"></stop>
            <stop stop-color="#8C0C01" offset="0%"></stop>
            <stop stop-color="#990C00" offset="54%"></stop>
            <stop stop-color="#A80D0E" offset="99%"></stop>
            <stop stop-color="#A80D0E" offset="100%"></stop>
        </linearGradient>
        <linearGradient x1="79.319%" y1="58.0104407%" x2="23.088%" y2="29.8320434%" id="linearGradient-11">
            <stop stop-color="#7E110B" offset="0%"></stop>
            <stop stop-color="#7E110B" offset="0%"></stop>
            <stop stop-color="#9E0C00" offset="99%"></stop>
            <stop stop-color="#9E0C00" offset="100%"></stop>
        </linearGradient>
        <linearGradient x1="92.88%" y1="71.7508854%" x2="59.841%" y2="40.7160392%" id="linearGradient-12">
            <stop stop-color="#79130D" offset="0%"></stop>
            <stop stop-color="#79130D" offset="0%"></stop>
            <stop stop-color="#9E120B" offset="99%"></stop>
            <stop stop-color="#9E120B" offset="100%"></stop>
        </linearGradient>
        <radialGradient cx="32.001%" cy="40.21%" fx="32.001%" fy="40.21%" r="69.573%" id="radialGradient-13">
            <stop stop-color="#A80D00" offset="0%"></stop>
            <stop stop-color="#A80D00" offset="0%"></stop>
            <stop stop-color="#7E0E08" offset="99%"></stop>
            <stop stop-color="#7E0E08" offset="100%"></stop>
        </radialGradient>
        <radialGradient cx="13.549%" cy="40.86%" fx="13.549%" fy="40.86%" r="88.386%" id="radialGradient-14">
            <stop stop-color="#A30C00" offset="0%"></stop>
            <stop stop-color="#A30C00" offset="0%"></stop>
            <stop stop-color="#800E08" offset="99%"></stop>
            <stop stop-color="#800E08" offset="100%"></stop>
        </radialGradient>
        <linearGradient x1="56.57%" y1="53.0959951%" x2="3.105%" y2="47.7246773%" id="linearGradient-15">
            <stop stop-color="#8B2114" offset="0%"></stop>
            <stop stop-color="#8B2114" offset="0%"></stop>
            <stop stop-color="#9E100A" offset="43%"></stop>
            <stop stop-color="#B3100C" offset="99%"></stop>
            <stop stop-color="#B3100C" offset="100%"></stop>
        </linearGradient>
        <linearGradient x1="49.4177871%" y1="35.599%" x2="51.2926242%" y2="100.694%" id="linearGradient-16">
            <stop stop-color="#B31000" offset="0%"></stop>
            <stop stop-color="#B31000" offset="0%"></stop>
            <stop stop-color="#910F08" offset="44%"></stop>
            <stop stop-color="#791C12" offset="99%"></stop>
            <stop stop-color="#791C12" offset="100%"></stop>
        </linearGradient>
    </defs>
    <g id="Page-1" stroke="none" stroke-width="1" fill="none" fill-rule="evenodd" sketch:type="MSPage">
        <g id="Group" sketch:type="MSLayerGroup">
            <g transform="translate(311.000000, 158.000000)" id="Shape" sketch:type="MSShapeGroup">
                <path d="M76.021,64.828 L20.429,97.838 L92.409,92.954 L97.954,20.374 L76.02,64.828 L76.021,64.828 Z" fill="url(#linearGradient-1)"></path>
                <path d="M92.528,92.904 L86.341,50.204 L69.489,72.456 L92.529,92.904 L92.528,92.904 Z" fill="url(#linearGradient-2)"></path>
                <path d="M92.611,92.904 L47.285,89.346 L20.67,97.746 L92.61,92.904 L92.611,92.904 Z" fill="url(#linearGradient-3)"></path>
                <path d="M20.735,97.755 L32.055,60.66 L7.141,65.99 L20.735,97.754 L20.735,97.755 Z" fill="url(#linearGradient-4)"></path>
                <path d="M69.485,72.578 L59.065,31.768 L29.251,59.718 L69.485,72.577 L69.485,72.578 Z" fill="url(#linearGradient-5)"></path>
                <path d="M95.59,32.344 L67.405,9.324 L59.559,34.7 L95.591,32.346 L95.59,32.344 Z" fill="url(#linearGradient-6)"></path>
                <path d="M82.409,1.118 L65.833,10.278 L55.375,0.997 L82.409,1.119 L82.409,1.118 Z" fill="url(#linearGradient-7)"></path>
                <path d="M0.585,78.43 L7.529,65.767 L1.912,50.68 L0.585,78.43 L0.585,78.43 Z" fill="url(#linearGradient-8)"></path>
                <path d="M1.538,50.203 L7.19,66.233 L31.747,60.723 L59.784,34.668 L67.696,9.538 L55.236,0.74 L34.056,8.667 C27.383,14.874 14.434,27.155 13.966,27.387 C13.506,27.622 5.416,42.91 1.538,50.203 L1.538,50.203 Z" fill="#FFFFFF"></path>
                <path d="M21.383,21.405 C35.845,7.065 54.491,-1.408 61.645,5.812 C68.797,13.032 61.215,30.575 46.751,44.91 C32.288,59.246 13.873,68.185 6.723,60.966 C-0.432,53.751 6.92,35.74 21.383,21.406 L21.383,21.405 Z" fill="url(#linearGradient-9)"></path>
                <path d="M20.735,97.74 L31.968,60.528 L69.278,72.514 C55.788,85.164 40.785,95.858 20.735,97.74 L20.735,97.74 Z" fill="url(#linearGradient-10)"></path>
                <path d="M59.833,34.595 L69.411,72.535 C80.681,60.685 90.793,47.948 95.747,32.192 L59.833,34.595 L59.833,34.595 Z" fill="url(#linearGradient-11)"></path>
                <path d="M95.649,32.384 C99.482,20.814 100.367,4.22 82.291,1.138 L67.459,9.33 L95.649,32.384 L95.649,32.384 Z" fill="url(#linearGradient-12)"></path>
                <path d="M0.585,78.264 C1.115,97.357 14.891,97.642 20.759,97.809 L7.204,66.154 L0.584,78.264 L0.585,78.264 Z" fill="#9E1209"></path>
                <path d="M59.885,34.654 C68.545,39.976 85.997,50.664 86.351,50.862 C86.901,51.172 93.875,39.102 95.457,32.28 L59.887,34.654 L59.885,34.654 Z" fill="url(#radialGradient-13)"></path>
                <path d="M31.953,60.528 L46.973,89.503 C55.853,84.687 62.806,78.82 69.175,72.533 L31.953,60.53 L31.953,60.528 Z" fill="url(#radialGradient-14)"></path>
                <path d="M7.145,66.195 L5.019,91.533 C9.034,97.018 14.559,97.493 20.352,97.067 C16.159,86.634 7.785,65.772 7.145,66.195 L7.145,66.195 Z" fill="url(#linearGradient-15)"></path>
                <path d="M67.371,9.394 L97.207,13.581 C95.615,6.835 90.725,2.48 82.39,1.12 L67.37,9.396 L67.371,9.394 Z" fill="url(#linearGradient-16)"></path>
            </g>
            <g transform="translate(163.000000, 185.000000)" id="Shape" sketch:type="MSShapeGroup">
                <g>
                    <path d="M28.574,29.9 L28.574,19.9 C28.574,19.2 28.974,18.6 29.574,18.3 L38.274,13.3 C38.874,13 39.574,13 40.174,13.3 L48.774,18.3 C49.374,18.6 49.674,19.3 49.674,20 L49.674,30 C49.674,30.7 49.274,31.3 48.674,31.6 L39.974,36.6 C39.374,36.9 38.674,36.9 38.074,36.6 L29.474,31.6 C28.974,31.2 28.574,30.6 28.574,29.9 L28.574,29.9 Z M93.474,26 L93.474,24.1 C93.474,24 93.574,23.8 93.674,23.8 L95.374,22.8 C95.474,22.7 95.674,22.7 95.774,22.8 L97.474,23.8 C97.574,23.9 97.674,24 97.674,24.1 L97.674,26 C97.674,26.1 97.574,26.3 97.474,26.3 L95.774,27.3 C95.674,27.4 95.474,27.4 95.374,27.3 L93.674,26.3 C93.574,26.2 93.474,26.1 93.474,26 L93.474,26 Z" fill="#8CC644"></path>
                    <path d="M77.074,3.1 L71.574,0.1 C71.274,-0.1 70.874,0.2 70.874,0.5 L70.874,14.6 C70.874,14.8 70.574,15 70.374,15 L70.074,14.9 L68.374,13.9 C67.774,13.6 67.074,13.6 66.474,13.9 L57.974,18.8 C57.374,19.1 57.074,19.7 57.074,20.4 L57.074,30.2 C57.074,30.9 57.474,31.5 57.974,31.8 L66.374,36.7 C66.974,37 67.674,37 68.274,36.7 L76.774,31.8 C77.374,31.5 77.674,30.9 77.674,30.2 L77.674,4.2 C77.774,3.7 77.474,3.3 77.074,3.1 L77.074,3.1 Z M70.874,27.2 L67.374,29.2 L63.974,27.2 L63.974,23.2 L67.474,21.2 L70.874,23.2 L70.874,27.2 L70.874,27.2 Z M0.474,33.9 L0.474,19.7 C0.474,19.4 0.674,19.1 0.974,18.9 L10.674,13.5 C10.974,13.4 11.274,13.4 11.574,13.5 L21.074,18.9 C21.374,19.1 21.574,19.4 21.574,19.7 L21.574,33.9 C21.574,34.2 21.274,34.4 20.974,34.3 L15.074,31 C14.774,30.9 14.674,30.6 14.674,30.3 L14.674,23.8 C14.674,23.5 14.474,23.2 14.274,23 L11.474,21.4 C11.274,21.3 10.974,21.3 10.674,21.4 L7.974,23 C7.674,23.2 7.574,23.5 7.574,23.8 L7.574,30.2 C7.574,30.5 7.374,30.8 7.174,30.9 L1.174,34.1 C0.774,34.4 0.474,34.2 0.474,33.9 L0.474,33.9 Z M85.574,18.9 L94.974,13.6 C95.274,13.4 95.674,13.4 96.074,13.6 L105.574,18.9 C105.874,19.1 106.074,19.4 106.074,19.8 L106.074,22.4 C106.074,22.8 105.874,23.2 105.474,23.3 L99.474,26.6 C99.174,26.7 98.974,26.5 98.974,26.3 L98.974,23.6 C98.974,23.3 98.874,23.1 98.574,22.9 L95.874,21.3 C95.574,21.1 95.274,21.1 95.074,21.3 L92.374,22.9 C92.174,23 91.974,23.3 91.974,23.6 L91.974,26.6 C91.974,26.9 92.174,27.2 92.374,27.3 L101.774,32.8 C101.974,32.9 101.974,33.3 101.774,33.4 L95.874,36.7 C95.574,36.8 95.274,36.8 95.074,36.7 L85.574,31.4 C85.274,31.2 84.974,30.8 84.974,30.5 L84.974,19.8 C84.974,19.4 85.174,19 85.574,18.9 L85.574,18.9 Z" fill="#353128"></path>
                </g>
            </g>
            <g transform="translate(0.000000, 141.000000)" id="Shape" fill="#F03C2E" sketch:type="MSShapeGroup">
                <path d="M111.906,52.242 L62.16,2.502 C59.3,-0.362 54.653,-0.362 51.787,2.502 L41.457,12.832 L54.56,25.935 C57.606,24.905 61.097,25.595 63.524,28.023 C65.964,30.465 66.648,33.986 65.594,37.043 L78.222,49.671 C81.277,48.619 84.802,49.299 87.242,51.743 C90.652,55.153 90.652,60.677 87.242,64.088 C83.83,67.498 78.305,67.498 74.892,64.088 C72.328,61.521 71.692,57.753 72.992,54.594 L61.215,42.817 L61.215,73.807 C62.045,74.219 62.83,74.769 63.523,75.457 C66.933,78.867 66.933,84.392 63.523,87.807 C60.113,91.217 54.585,91.217 51.178,87.807 C47.768,84.392 47.768,78.867 51.178,75.457 C52.021,74.617 52.996,73.98 54.038,73.554 L54.038,42.274 C52.996,41.85 52.022,41.218 51.178,40.37 C48.595,37.788 47.973,33.997 49.298,30.825 L36.38,17.907 L2.275,52.012 C-0.59,54.879 -0.59,59.525 2.275,62.39 L52.017,112.13 C54.881,114.994 59.527,114.994 62.393,112.13 L111.905,62.625 C114.77,59.759 114.77,55.111 111.905,52.245"></path>
            </g>
            <g transform="translate(301.000000, 0.000000)" id="Shape" fill="#353128" sketch:type="MSShapeGroup">
                <path d="M80.028,54.063 C79.532,50.593 76.558,48.608 75.07,47.121 C73.087,46.131 70.607,45.634 67.632,45.634 C61.187,45.634 55.237,47.618 55.237,51.088 C55.237,53.568 56.724,55.055 61.682,55.551 L74.574,56.543 C80.028,57.038 83.004,58.526 85.978,60.013 C89.945,61.997 91.928,66.459 91.928,70.923 C91.928,76.376 89.448,80.343 84.988,82.823 C81.02,84.805 76.062,85.797 68.624,85.797 C59.699,85.797 53.254,83.813 49.287,80.343 C46.312,77.368 45.32,74.393 44.824,68.443 L53.254,68.443 C53.749,71.418 54.244,72.905 56.228,74.393 C58.708,76.376 64.658,77.368 69.12,77.368 C76.062,77.368 81.516,75.384 81.516,71.418 C81.516,68.443 78.046,66.955 73.086,66.458 L60.691,64.972 C51.271,63.982 45.817,59.519 45.817,52.082 C45.817,42.66 54.247,36.71 67.634,36.71 C74.574,36.71 80.524,38.198 84.492,41.173 C89.452,44.645 89.452,50.099 89.452,53.57 L80.03,53.57 L80.03,54.065 L80.028,54.063 Z M102.34,26.792 L58.71,1.504 C55.734,0.017 52.264,-0.479 49.29,1.504 L5.655,26.792 C2.68,28.279 0.697,31.75 0.697,35.222 L0.697,85.796 C0.697,89.266 2.68,92.242 5.655,94.226 L49.289,119.513 C52.264,121 55.734,121.496 58.709,119.513 L102.343,94.225 C105.319,92.738 107.303,89.267 107.303,85.795 L107.303,35.222 C107.303,31.752 105.319,28.777 102.343,26.794 L102.34,26.792 Z M98.87,86.787 L53.75,112.571 L32.924,100.176 C36.394,98.193 38.378,94.226 38.874,90.259 L38.874,37.204 L29.949,37.204 L29.949,87.282 C29.949,91.25 26.973,94.225 23.006,94.225 C22.016,94.225 21.023,94.225 20.526,93.729 L20.031,93.729 L8.627,87.282 L8.627,35.22 L53.747,9.438 L98.869,35.718 L98.869,86.788 L98.87,86.787 Z"></path>
            </g>
            <g transform="translate(152.000000, 2.000000)" id="Shape" sketch:type="MSShapeGroup">
                <path d="M0.348,0 L105.648,0 L96.248,107.6 L52.948,119.4 L9.748,107.6 L0.348,0 L0.348,0 Z" fill="#0A71B9"></path>
                <path d="M52.948,8.9 L96.848,8.9 L88.448,100.6 L52.948,110.8 L52.948,8.9 L52.948,8.9 Z" fill="#28A7DE"></path>
                <path d="M80.148,22.2 L20.048,22.2 L21.348,35.3 L71.548,35.3 L69.948,48.5 L22.548,48.5 L23.748,61.4 L69.248,61.4 L67.548,79.2 L52.748,82.8 L38.248,79.2 L37.448,68.6 L24.448,68.6 L26.448,89.9 L53.348,97.2 L80.148,89.9 L86.448,22.2 L80.148,22.2 L80.148,22.2 Z" fill="#EBEBEB"></path>
                <g transform="translate(52.000000, 22.000000)">
                    <path d="M17.948,26.5 L19.548,13.3 L1.248,13.3 L1.248,26.5 L17.948,26.5 L17.948,26.5 Z M15.548,57.2 L17.248,39.4 L1.248,39.4 L1.248,60.6 L15.548,57.2 L15.548,57.2 Z"></path>
                    <path d="M28.048,0.2 L0.948,0.2 L0.948,13.3 L19.448,13.3 L17.848,26.5 L0.948,26.5 L0.948,39.4 L17.148,39.4 L15.448,57.2 L0.948,60.6 L0.948,75.2 L1.148,75.2 L28.048,67.9 L34.448,0.2 L28.048,0.2 L28.048,0.2 Z" fill="#FFFFFF"></path>
                </g>
            </g>
            <g transform="translate(2.000000, 1.000000)" id="Shape" sketch:type="MSShapeGroup">
                <path d="M-1.42108547e-14,0.5 L105.9,0.5 L96.5,108.7 L52.9,120.6 L9.4,108.7 L-1.42108547e-14,0.5 L-1.42108547e-14,0.5 Z" fill="#E55025"></path>
                <path d="M96.8,9.5 L53.3,9.5 L53.3,111.7 L88.4,101.7 L96.8,9.5 L96.8,9.5 Z" fill="#F26722"></path>
                <path d="M34.4,36 L85.4,36 L86.6,22.8 L19.9,22.8 L23.6,62.2 L69.5,62.2 L67.8,80.1 L52.8,83.8 L38.3,80.1 L37.4,69.5 L24.3,69.5 L26.3,90.9 L53.4,98.3 L80.2,90.9 L84.1,49.3 L36,49.3 L34.4,36 L34.4,36 Z" fill="#FFFFFF"></path>
                <g transform="translate(19.000000, 22.000000)">
                    <path d="M33.8,61.8 L19.3,58.1 L18.4,47.5 L5.3,47.5 L7.3,68.9 L34.3,76.3 L34.3,61.7 L33.8,61.8 L33.8,61.8 Z" fill="#E6E6E6"></path>
                    <path d="M17,27.3 L15.4,14 L34.3,14 L34.3,0.8 L0.9,0.8 L4.6,40.2 L34.3,40.2 L34.3,27.3 L17,27.3 L17,27.3 Z" fill="#EBEBEB"></path>
                </g>
            </g>
        </g>
    </g>
</svg>