<?xml version="1.0" encoding="UTF-8" standalone="no"?>
<svg width="1048px" height="127px" viewBox="0 0 1048 127" version="1.1" xmlns="http://www.w3.org/2000/svg" xmlns:xlink="http://www.w3.org/1999/xlink" xmlns:sketch="http://www.bohemiancoding.com/sketch/ns">
    <!-- Generator: Sketch 3.0.4 (8054) - http://www.bohemiancoding.com/sketch -->
    <title>Slice 1</title>
    <desc>Created with Sketch.</desc>
    <defs>
        <linearGradient x1="84.6975156%" y1="111.399353%" x2="58.2418428%" y2="64.5837087%" id="linearGradient-1">
            <stop stop-color="#FB7655" offset="0%"></stop>
            <stop stop-color="#FB7655" offset="0%"></stop>
            <stop stop-color="#E42B1E" offset="41%"></stop>
            <stop stop-color="#990000" offset="99%"></stop>
            <stop stop-color="#990000" offset="100%"></stop>
        </linearGradient>
        <linearGradient x1="116.651024%" y1="53.1701243%" x2="1.74616041%" y2="41.0598581%" id="linearGradient-2">
            <stop stop-color="#871101" offset="0%"></stop>
            <stop stop-color="#871101" offset="0%"></stop>
            <stop stop-color="#911209" offset="99%"></stop>
            <stop stop-color="#911209" offset="100%"></stop>
        </linearGradient>
        <linearGradient x1="50.3513231%" y1="219.327131%" x2="49.8497643%" y2="7.82868176%" id="linearGradient-3">
            <stop stop-color="#871101" offset="0%"></stop>
            <stop stop-color="#871101" offset="0%"></stop>
            <stop stop-color="#911209" offset="99%"></stop>
            <stop stop-color="#911209" offset="100%"></stop>
        </linearGradient>
        <linearGradient x1="50.012428%" y1="30.7049594%" x2="66.4830414%" y2="63.1453853%" id="linearGradient-4">
            <stop stop-color="#FFFFFF" offset="0%"></stop>
            <stop stop-color="#FFFFFF" offset="0%"></stop>
            <stop stop-color="#E57252" offset="23%"></stop>
            <stop stop-color="#DE3B20" offset="46%"></stop>
            <stop stop-color="#A60003" offset="99%"></stop>
            <stop stop-color="#A60003" offset="100%"></stop>
        </linearGradient>
        <linearGradient x1="46.1741749%" y1="17.2895152%" x2="49.9323342%" y2="82.122172%" id="linearGradient-5">
            <stop stop-color="#FFFFFF" offset="0%"></stop>
            <stop stop-color="#FFFFFF" offset="0%"></stop>
            <stop stop-color="#E4714E" offset="23%"></stop>
            <stop stop-color="#BE1A0D" offset="56%"></stop>
            <stop stop-color="#A80D00" offset="99%"></stop>
            <stop stop-color="#A80D00" offset="100%"></stop>
        </linearGradient>
        <linearGradient x1="43.5366381%" y1="15.5936471%" x2="49.7660692%" y2="92.4776332%" id="linearGradient-6">
            <stop stop-color="#FFFFFF" offset="0%"></stop>
            <stop stop-color="#FFFFFF" offset="0%"></stop>
            <stop stop-color="#E46342" offset="18%"></stop>
            <stop stop-color="#C82410" offset="40%"></stop>
            <stop stop-color="#A80D00" offset="99%"></stop>
            <stop stop-color="#A80D00" offset="100%"></stop>
        </linearGradient>
        <linearGradient x1="45.7087957%" y1="58.3456855%" x2="54.2171845%" y2="-46.7167814%" id="linearGradient-7">
            <stop stop-color="#FFFFFF" offset="0%"></stop>
            <stop stop-color="#FFFFFF" offset="0%"></stop>
            <stop stop-color="#C81F11" offset="54%"></stop>
            <stop stop-color="#BF0905" offset="99%"></stop>
            <stop stop-color="#BF0905" offset="100%"></stop>
        </linearGradient>
        <linearGradient x1="27.6242038%" y1="48.1927154%" x2="50.7445145%" y2="51.8192036%" id="linearGradient-8">
            <stop stop-color="#FFFFFF" offset="0%"></stop>
            <stop stop-color="#FFFFFF" offset="0%"></stop>
            <stop stop-color="#DE4024" offset="31%"></stop>
            <stop stop-color="#BF190B" offset="99%"></stop>
            <stop stop-color="#BF190B" offset="100%"></stop>
        </linearGradient>
        <linearGradient x1="-20.4661873%" y1="122.281897%" x2="104.087285%" y2="-6.34211007%" id="linearGradient-9">
            <stop stop-color="#BD0012" offset="0%"></stop>
            <stop stop-color="#BD0012" offset="0%"></stop>
            <stop stop-color="#FFFFFF" offset="7%"></stop>
            <stop stop-color="#FFFFFF" offset="17%"></stop>
            <stop stop-color="#C82F1C" offset="27%"></stop>
            <stop stop-color="#820C01" offset="33%"></stop>
            <stop stop-color="#A31601" offset="46%"></stop>
            <stop stop-color="#B31301" offset="72%"></stop>
            <stop stop-color="#E82609" offset="99%"></stop>
            <stop stop-color="#E82609" offset="100%"></stop>
        </linearGradient>
        <linearGradient x1="55.1661726%" y1="65.2049657%" x2="27.6497731%" y2="50.1275621%" id="linearGradient-10">
            <stop stop-color="#8C0C01" offset="0%"></stop>
            <stop stop-color="#8C0C01" offset="0%"></stop>
            <stop stop-color="#990C00" offset="54%"></stop>
            <stop stop-color="#A80D0E" offset="99%"></stop>
            <stop stop-color="#A80D0E" offset="100%"></stop>
        </linearGradient>
        <linearGradient x1="79.3194899%" y1="60.1075178%" x2="23.088288%" y2="24.5506709%" id="linearGradient-11">
            <stop stop-color="#7E110B" offset="0%"></stop>
            <stop stop-color="#7E110B" offset="0%"></stop>
            <stop stop-color="#9E0C00" offset="99%"></stop>
            <stop stop-color="#9E0C00" offset="100%"></stop>
        </linearGradient>
        <linearGradient x1="92.8800277%" y1="72.9056075%" x2="59.8414537%" y2="40.223338%" id="linearGradient-12">
            <stop stop-color="#79130D" offset="0%"></stop>
            <stop stop-color="#79130D" offset="0%"></stop>
            <stop stop-color="#9E120B" offset="99%"></stop>
            <stop stop-color="#9E120B" offset="100%"></stop>
        </linearGradient>
        <radialGradient cx="32.0008013%" cy="40.2100469%" fx="32.0008013%" fy="40.2100469%" r="69.5729556%" id="radialGradient-13">
            <stop stop-color="#A80D00" offset="0%"></stop>
            <stop stop-color="#A80D00" offset="0%"></stop>
            <stop stop-color="#7E0E08" offset="99%"></stop>
            <stop stop-color="#7E0E08" offset="100%"></stop>
        </radialGradient>
        <radialGradient cx="13.5493795%" cy="40.859922%" fx="13.5493795%" fy="40.859922%" r="88.3861936%" id="radialGradient-14">
            <stop stop-color="#A30C00" offset="0%"></stop>
            <stop stop-color="#A30C00" offset="0%"></stop>
            <stop stop-color="#800E08" offset="99%"></stop>
            <stop stop-color="#800E08" offset="100%"></stop>
        </radialGradient>
        <linearGradient x1="56.5701955%" y1="62.6534953%" x2="3.10480737%" y2="40.7008938%" id="linearGradient-15">
            <stop stop-color="#8B2114" offset="0%"></stop>
            <stop stop-color="#8B2114" offset="0%"></stop>
            <stop stop-color="#9E100A" offset="43%"></stop>
            <stop stop-color="#B3100C" offset="99%"></stop>
            <stop stop-color="#B3100C" offset="100%"></stop>
        </linearGradient>
        <linearGradient x1="46.6619266%" y1="35.5989756%" x2="57.4108511%" y2="100.693616%" id="linearGradient-16">
            <stop stop-color="#B31000" offset="0%"></stop>
            <stop stop-color="#B31000" offset="0%"></stop>
            <stop stop-color="#910F08" offset="44%"></stop>
            <stop stop-color="#791C12" offset="99%"></stop>
            <stop stop-color="#791C12" offset="100%"></stop>
        </linearGradient>
        <path id="path-17" d="M0.0184959178,0.106804349 L102.484647,0.106804349 L102.484647,114.783984 L0.0184959178,114.783984"></path>
        <path id="path-19" d="M0.0184959178,0.106804349 L102.484647,0.106804349 L102.484647,114.783984 L0.0184959178,114.783984"></path>
        <path id="path-21" d="M0.0184959178,0.106804349 L102.484647,0.106804349 L102.484647,114.783984 L0.0184959178,114.783984"></path>
        <path id="path-23" d="M0.0184959178,0.106804349 L102.484647,0.106804349 L102.484647,114.783984 L0.0184959178,114.783984"></path>
        <path id="path-25" d="M0.0184959178,0.106804349 L102.484647,0.106804349 L102.484647,114.783984 L0.0184959178,114.783984"></path>
        <path id="path-27" d="M0.0184959178,0.106804349 L102.484647,0.106804349 L102.484647,114.783984 L0.0184959178,114.783984"></path>
        <path id="path-29" d="M0.0184959178,0.106804349 L102.484647,0.106804349 L102.484647,114.783984 L0.0184959178,114.783984"></path>
        <path id="path-31" d="M0.0184959178,0.106804349 L102.484647,0.106804349 L102.484647,114.783984 L0.0184959178,114.783984"></path>
    </defs>
    <g id="Page-1" stroke="none" stroke-width="1" fill="none" fill-rule="evenodd" sketch:type="MSPage">
        <g id="Slice" sketch:type="MSLayerGroup" transform="translate(-52.000000, 0.000000)">
            <g id="Page-1">
                <g id="Group">
                    <g id="Group-2" transform="translate(446.695312, 0.000000)" fill="#353128" sketch:type="MSShapeGroup">
                        <path d="M79.3333333,54.0625 C78.8375,50.5916667 75.8625,48.6083333 74.375,47.1208333 C72.3916667,46.1291667 69.9125,45.6333333 66.9375,45.6333333 C60.4916667,45.6333333 54.5416667,47.6166667 54.5416667,51.0875 C54.5416667,53.5666667 56.0291667,55.0541667 60.9875,55.55 L73.8791667,56.5416667 C79.3333333,57.0375 82.3083333,58.525 85.2833333,60.0125 C89.25,61.9958333 91.2333333,66.4583333 91.2333333,70.9208333 C91.2333333,76.375 88.7541667,80.3416667 84.2916667,82.8208333 C80.325,84.8041667 75.3666667,85.7958333 67.9291667,85.7958333 C59.0041667,85.7958333 52.5583333,83.8125 48.5916667,80.3416667 C45.6166667,77.3666667 44.625,74.3916667 44.1291667,68.4416667 L52.5583333,68.4416667 C53.0541667,71.4166667 53.55,72.9041667 55.5333333,74.3916667 C58.0125,76.375 63.9625,77.3666667 68.425,77.3666667 C75.3666667,77.3666667 80.8208333,75.3833333 80.8208333,71.4166667 C80.8208333,68.4416667 77.35,66.9541667 72.3916667,66.4583333 L59.9958333,64.9708333 C50.575,63.9791667 45.1208333,59.5166667 45.1208333,52.0791667 C45.1208333,42.6583333 53.55,36.7083333 66.9375,36.7083333 C73.8791667,36.7083333 79.8291667,38.1958333 83.7958333,41.1708333 C88.7541667,44.6416667 88.7541667,50.0958333 88.7541667,53.5666667 L79.3333333,53.5666667 L79.3333333,54.0625 L79.3333333,54.0625 Z" id="Shape"></path>
                        <path d="M101.645833,26.7916667 L58.0125,1.50416667 C55.0375,0.01666667 51.5666667,-0.47916667 48.5916667,1.50416667 L4.95833333,26.7916667 C1.98333333,28.2791667 0,31.75 0,35.2208333 L0,85.7958333 C0,89.2666667 1.98333333,92.2416667 4.95833333,94.225 L48.5916667,119.5125 C51.5666667,121 55.0375,121.495833 58.0125,119.5125 L101.645833,94.225 C104.620833,92.7375 106.604167,89.2666667 106.604167,85.7958333 L106.604167,35.2208333 C106.604167,31.75 104.620833,28.775 101.645833,26.7916667 L101.645833,26.7916667 L101.645833,26.7916667 Z M98.175,86.7875 L53.0541667,112.570833 L32.2291667,100.175 C35.7,98.1916667 37.6833333,94.225 38.1791667,90.2583333 L38.1791667,90.2583333 L38.1791667,37.2041667 L29.2541667,37.2041667 L29.2541667,77.8625 L29.2541667,79.35 L29.2541667,86.2916667 L29.2541667,87.2833333 C29.2541667,91.25 26.2791667,94.225 22.3125,94.225 C21.3208333,94.225 20.3291667,94.225 19.8333333,93.7291667 L19.3375,93.7291667 L7.93333333,87.2833333 L7.93333333,35.2208333 L53.0541667,9.4375 L98.175,35.7166667 L98.175,86.7875 L98.175,86.7875 Z" id="Shape"></path>
                    </g>
                    <g id="Git-logo" transform="translate(600.126302, 5.000000)" fill="#F03C2E" sketch:type="MSShapeGroup">
                        <path d="M111.78,52.2416 L62.035,2.5027 C59.1728,-0.3621 54.5268,-0.3621 51.661,2.5027 L41.332,12.8327 L54.434,25.9347 C57.4799,24.9063 60.9711,25.59582 63.3979,28.0231 C65.8373,30.4655 66.5219,33.9865 65.4677,37.0426 L78.0957,49.6706 C81.1508,48.6178 84.6757,49.29798 87.1152,51.7418 C90.5258,55.1514 90.5258,60.6763 87.1152,64.0868 C83.7041,67.4984 78.1792,67.4984 74.7662,64.0868 C72.2017,61.5203 71.5674,57.7523 72.8663,54.5926 L61.0893,42.8156 L61.0883,73.8066 C61.9198,74.21822 62.7045,74.7676 63.3974,75.4575 C66.807,78.8667 66.807,84.3906 63.3974,87.8055 C59.9868,91.2146 54.4594,91.2146 51.0524,87.8055 C47.6423,84.3909 47.6423,78.867 51.0524,75.4575 C51.89515,74.61625 52.8703,73.9795 53.9108,73.5527 L53.9108,42.2737 C52.8698,41.8487 51.8958,41.2167 51.0518,40.3687 C48.4688,37.7877 47.8467,33.9967 49.1714,30.8248 L36.2554,17.9068 L2.1494,52.0118 C-0.7163,54.8788 -0.7163,59.5248 2.1494,62.3898 L51.8914,112.1288 C54.7552,114.9936 59.3996,114.9936 62.2674,112.1288 L111.7794,62.6248 C114.6442,59.7586 114.6442,55.1112 111.7794,52.2458" id="Shape"></path>
                    </g>
                    <g id="css3-color" transform="translate(297.347656, 2.000000)" sketch:type="MSShapeGroup">
                        <g id="Group">
                            <path d="M0,0 L105.3,0 L95.9,107.6 L52.6,119.4 L9.4,107.6 L0,0 L0,0 Z" id="Shape" fill="#0A71B9"></path>
                            <path d="M52.6,8.9 L96.5,8.9 L88.1,100.6 L52.6,110.8 L52.6,8.9 L52.6,8.9 Z" id="Shape" fill="#28A7DE"></path>
                            <path d="M79.8,22.2 L19.7,22.2 L21,35.3 L71.2,35.3 L69.6,48.5 L22.2,48.5 L23.4,61.4 L68.9,61.4 L67.2,79.2 L52.4,82.8 L37.9,79.2 L37.1,68.6 L24.1,68.6 L26.1,89.9 L53,97.2 L79.8,89.9 L86.1,22.2 L79.8,22.2 L79.8,22.2 Z" id="Shape" fill="#EBEBEB"></path>
                            <g id="Shape" transform="translate(53.000000, 22.000000)">
                                <path d="M16.6,26.5 L18.2,13.3 L-0.1,13.3 L-0.1,26.5 L16.6,26.5 L16.6,26.5 Z"></path>
                                <path d="M14.2,57.2 L15.9,39.4 L-0.1,39.4 L-0.1,60.6 L14.2,57.2 L14.2,57.2 Z"></path>
                                <path d="M26.7,0.2 L-0.4,0.2 L-0.4,13.3 L18.1,13.3 L16.5,26.5 L-0.4,26.5 L-0.4,39.4 L15.8,39.4 L14.1,57.2 L-0.4,60.6 L-0.4,75.2 L-0.2,75.2 L26.7,67.9 L33.1,0.2 L26.7,0.2 L26.7,0.2 Z" fill="#FFFFFF"></path>
                            </g>
                        </g>
                    </g>
                    <g id="html5-color" transform="translate(147.000000, 1.500000)" sketch:type="MSShapeGroup">
                        <g id="Group">
                            <path d="M0,0 L105.9,0 L96.5,108.2 L52.9,120.1 L9.4,108.2 L0,0 L0,0 Z" id="Shape" fill="#E55025"></path>
                            <path d="M96.8,9 L53.3,9 L53.3,111.2 L88.4,101.2 L96.8,9 L96.8,9 Z" id="Shape" fill="#F26722"></path>
                            <path d="M34.4,35.5 L85.4,35.5 L86.6,22.3 L80.2,22.3 L19.9,22.3 L23.6,61.7 L69.5,61.7 L67.8,79.6 L52.8,83.3 L38.3,79.6 L37.4,69 L24.3,69 L26.3,90.4 L53.4,97.8 L80.2,90.4 L84.1,48.8 L36,48.8 L34.4,35.5 L34.4,35.5 Z" id="Shape" fill="#FFFFFF"></path>
                            <g id="Shape" transform="translate(20.000000, 22.000000)">
                                <path d="M32.8,61.3 L18.3,57.6 L17.4,47 L4.3,47 L6.3,68.4 L33.3,75.8 L33.3,61.2 L32.8,61.3 L32.8,61.3 Z" fill="#E6E6E6"></path>
                                <path d="M16,26.8 L14.4,13.5 L33.3,13.5 L33.3,0.3 L-0.1,0.3 L3.6,39.7 L33.3,39.7 L33.3,26.8 L16,26.8 L16,26.8 Z" fill="#EBEBEB"></path>
                            </g>
                        </g>
                    </g>
                    <g id="nodejs-color" transform="translate(758.473958, 40.000000)" sketch:type="MSShapeGroup">
                        <g id="Group">
                            <g id="Shape">
                                <path d="M28.1,29.9 L28.1,19.9 C28.1,19.2 28.5,18.6 29.1,18.3 L37.8,13.3 C38.4,13 39.1,13 39.7,13.3 L48.3,18.3 C48.9,18.6 49.2,19.3 49.2,20 L49.2,30 C49.2,30.7 48.8,31.3 48.2,31.6 L39.5,36.6 C38.9,36.9 38.2,36.9 37.6,36.6 L29,31.6 C28.5,31.2 28.1,30.6 28.1,29.9 L28.1,29.9 L28.1,29.9 Z" fill="#8CC644"></path>
                                <path d="M93,26 L93,24.1 C93,24 93.1,23.8 93.2,23.8 L94.9,22.8 C95,22.7 95.2,22.7 95.3,22.8 L97,23.8 C97.1,23.9 97.2,24 97.2,24.1 L97.2,26 C97.2,26.1 97.1,26.3 97,26.3 L95.3,27.3 C95.2,27.4 95,27.4 94.9,27.3 L93.2,26.3 C93.1,26.2 93,26.1 93,26 L93,26 L93,26 Z" fill="#8CC644"></path>
                                <path d="M76.6,3.1 L71.1,0.1 C70.8,-0.1 70.4,0.2 70.4,0.5 L70.4,14.6 C70.4,14.8 70.1,15 69.9,15 L69.6,14.9 L67.9,13.9 C67.3,13.6 66.6,13.6 66,13.9 L57.5,18.8 C56.9,19.1 56.6,19.7 56.6,20.4 L56.6,30.2 C56.6,30.9 57,31.5 57.5,31.8 L65.9,36.7 C66.5,37 67.2,37 67.8,36.7 L76.3,31.8 C76.9,31.5 77.2,30.9 77.2,30.2 L77.2,22.5 L77.2,4.2 C77.3,3.7 77,3.3 76.6,3.1 L76.6,3.1 L76.6,3.1 Z M70.4,27.2 L66.9,29.2 L63.5,27.2 L63.5,23.2 L67,21.2 L70.4,23.2 L70.4,27.2 L70.4,27.2 Z" fill="#353128"></path>
                                <path d="M0,33.9 L0,19.7 C0,19.4 0.2,19.1 0.5,18.9 L10.2,13.5 C10.5,13.4 10.8,13.4 11.1,13.5 L20.6,18.9 C20.9,19.1 21.1,19.4 21.1,19.7 L21.1,33.9 C21.1,34.2 20.8,34.4 20.5,34.3 L14.6,31 C14.3,30.9 14.2,30.6 14.2,30.3 L14.2,23.8 C14.2,23.5 14,23.2 13.8,23 L11,21.4 C10.8,21.3 10.5,21.3 10.2,21.4 L7.5,23 C7.2,23.2 7.1,23.5 7.1,23.8 L7.1,30.2 C7.1,30.5 6.9,30.8 6.7,30.9 L0.7,34.1 C0.3,34.4 0,34.2 0,33.9 L0,33.9 L0,33.9 Z" fill="#353128"></path>
                                <path d="M85.1,18.9 L94.5,13.6 C94.8,13.4 95.2,13.4 95.6,13.6 L105.1,18.9 C105.4,19.1 105.6,19.4 105.6,19.8 L105.6,22.4 C105.6,22.8 105.4,23.2 105,23.3 L99,26.6 C98.7,26.7 98.5,26.5 98.5,26.3 L98.5,23.6 C98.5,23.3 98.4,23.1 98.1,22.9 L95.4,21.3 C95.1,21.1 94.8,21.1 94.6,21.3 L91.9,22.9 C91.7,23 91.5,23.3 91.5,23.6 L91.5,26.6 C91.5,26.9 91.7,27.2 91.9,27.3 L101.3,32.8 C101.5,32.9 101.5,33.3 101.3,33.4 L95.4,36.7 C95.1,36.8 94.8,36.8 94.6,36.7 L85.1,31.4 C84.8,31.2 84.5,30.8 84.5,30.5 L84.5,19.8 C84.5,19.4 84.7,19 85.1,18.9 L85.1,18.9 L85.1,18.9 Z" fill="#353128"></path>
                            </g>
                        </g>
                    </g>
                    <g id="Ruby_logo" transform="translate(906.584635, 13.739648)" sketch:type="MSShapeGroup">
                        <path d="M75.4357047,64.0884055 L19.844259,97.0982836 L91.8246644,92.2138832 L97.3685744,19.6329407 L75.4357047,64.0884055 L75.4357047,64.0884055 Z" id="polygon3282" fill="url(#linearGradient-1)"></path>
                        <path d="M91.9426095,92.1642479 L85.7558988,49.4632161 L68.9040047,71.7155204 L91.9426095,92.1642479 L91.9426095,92.1642479 Z" id="polygon3293" fill="url(#linearGradient-2)"></path>
                        <path d="M92.0261539,92.1642479 L46.7013356,88.6062382 L20.0850635,97.0054019 L92.0261539,92.1642479 L92.0261539,92.1642479 Z" id="polygon3304" fill="url(#linearGradient-3)"></path>
                        <path d="M20.1489504,97.0147392 L31.4716777,59.9210129 L6.55578046,65.2486902 L20.1489504,97.0147392 L20.1489504,97.0147392 Z" id="polygon3319" fill="url(#linearGradient-4)"></path>
                        <path d="M68.8995818,71.8383799 L58.4811001,31.0293837 L28.6655678,58.9774523 L68.8995818,71.8383799 L68.8995818,71.8383799 Z" id="polygon3334" fill="url(#linearGradient-5)"></path>
                        <path d="M95.0047585,31.6043659 L66.8207998,8.58541864 L58.9725379,33.9583531 L95.0047585,31.6043659 L95.0047585,31.6043659 Z" id="polygon3349" fill="url(#linearGradient-6)"></path>
                        <path d="M81.8243963,0.378407118 L65.2481988,9.538808 L54.7904021,0.255547664 L81.8243963,0.378407118 L81.8243963,0.378407118 Z" id="polygon3362" fill="url(#linearGradient-7)"></path>
                        <path d="M0,77.6914043 L6.94401634,65.0270518 L1.3268821,49.9399108 L0,77.6914043 L0,77.6914043 Z" id="polygon3375" fill="url(#linearGradient-8)"></path>
                        <path d="M0.953389362,49.4632161 L6.60492424,65.4939177 L31.1620719,59.9844083 L59.1985993,33.9283754 L67.1107481,8.7967369 L54.652308,0 L33.4713382,7.92689197 C26.7981041,14.1337516 13.8487176,26.4147826 13.3818517,26.6457584 C12.9199002,26.8816485 4.83083373,42.170279 0.953389362,49.4632161 L0.953389362,49.4632161 L0.953389362,49.4632161 Z" id="path3377" fill="#FFFFFF"></path>
                        <path d="M20.7976484,20.6649601 C35.2606633,6.32480469 53.905814,-2.14758325 61.0611486,5.07163826 C68.2120603,12.2908598 60.6286833,29.8351898 46.1656684,44.1704309 C31.7026535,58.505672 13.2884785,67.4449258 6.13805832,60.2257043 C-1.01727628,53.0113972 6.33463344,35.0002012 20.7976484,20.6649601 L20.7976484,20.6649601 L20.7976484,20.6649601 Z" id="path3400" fill="url(#linearGradient-9)"></path>
                        <path d="M20.1489504,96.9999961 L31.3832189,59.7883247 L68.6931779,71.774493 C55.2032098,84.4241024 40.1996133,95.1177892 20.1489504,96.9999961 L20.1489504,96.9999961 L20.1489504,96.9999961 Z" id="path3413" fill="url(#linearGradient-10)"></path>
                        <path d="M59.2477431,33.8551511 L68.8258661,71.7941505 C80.0945352,59.9455848 90.2083254,47.2075166 95.1615272,31.4520202 L59.2477431,33.8551511 L59.2477431,33.8551511 Z" id="path3424" fill="url(#linearGradient-11)"></path>
                        <path d="M95.0637311,31.643681 C98.896946,20.0752348 99.7815341,3.47937973 81.7059598,0.398064631 L66.8743665,8.59033302 L95.0637311,31.643681 L95.0637311,31.643681 Z" id="path3435" fill="url(#linearGradient-12)"></path>
                        <path d="M0,77.5243154 C0.530752841,96.617166 14.3057548,96.9017085 20.1735223,97.0692888 L6.61966738,65.4152876 L0,77.5243154 L0,77.5243154 Z" id="path3437" fill="#9E1209"></path>
                        <path d="M59.3013098,33.9141237 C67.9604441,39.2363952 85.4118924,49.9251677 85.7657276,50.1217428 C86.3156465,50.4313486 93.2896405,38.3616359 94.8720703,31.540479 L59.3013098,33.9141237 L59.3013098,33.9141237 Z" id="path3448" fill="url(#radialGradient-13)"></path>
                        <path d="M31.3684758,59.7883247 L46.3868154,88.7634983 C55.2670967,83.9474077 62.2209418,78.0796402 68.5899759,71.7941505 L31.3684758,59.7883247 L31.3684758,59.7883247 Z" id="path3459" fill="url(#radialGradient-14)"></path>
                        <path d="M6.56069484,65.4546027 L4.4327691,90.7931364 C8.44781605,96.2775825 13.9715771,96.7542771 19.7656289,96.3267262 C15.5736644,85.8935014 7.199564,65.0319661 6.56069484,65.4546027 L6.56069484,65.4546027 L6.56069484,65.4546027 Z" id="path3472" fill="url(#linearGradient-15)"></path>
                        <path d="M66.7863991,8.65421993 L96.6215889,12.8412701 C95.0293304,6.09382891 90.1395241,1.73968987 81.8047388,0.378407118 L66.7863991,8.65421993 L66.7863991,8.65421993 Z" id="path3485" fill="url(#linearGradient-16)"></path>
                    </g>
                    <g id="c" transform="translate(0.000000, 5.000000)">
                        <g id="Group">
                            <g id="Group-6">
                                <g id="mask-18" fill="#FFFFFF" sketch:type="MSShapeGroup">
                                    <path d="M0.0184959178,0.106804349 L102.484647,0.106804349 L102.484647,114.783984 L0.0184959178,114.783984" id="path-17"></path>
                                </g>
                                <g id="Clip-2"></g>
                                <g id="Fill-1-Clipped">
                                    <mask id="mask-18" sketch:name="path-17" fill="white">
                                        <use xlink:href="#path-17"></use>
                                    </mask>
                                    <g id="path-17"></g>
                                    <path d="M51.2423237,40.5730694 C41.883081,40.5730694 34.2951308,48.1270218 34.2951308,57.4450875 C34.2951308,60.4923874 35.111109,63.3487899 36.5303624,65.8160318 L65.8994138,48.9799221 C62.9638034,43.9545933 57.5013423,40.5730694 51.2423237,40.5730694" id="Fill-1" fill="#5C8DBC" sketch:type="MSShapeGroup" mask="url(#mask-18)"></path>
                                </g>
                                <g id="Fill-3-Clipped">
                                    <mask id="mask-20" sketch:name="path-17" fill="white">
                                        <use xlink:href="#path-19"></use>
                                    </mask>
                                    <g id="path-17"></g>
                                    <path d="M17.2086019,57.4450875 C17.2086019,38.731922 32.4458473,23.5617146 51.2423237,23.5617146 C63.832495,23.5617146 74.8249272,30.3692642 80.7124861,40.4880556 L101.226925,28.7276077 C100.404165,27.2894319 99.1717203,26.0842001 97.51911,25.1312475 C83.875288,17.2992355 70.2188271,9.49085544 56.5793208,1.65055687 C52.9023323,-0.463125755 49.3372442,-0.386091584 45.6873831,1.75766812 C40.2569816,4.94645314 13.0679825,20.4548743 4.96615393,25.1269508 C1.62949036,27.0500429 0.00585704063,29.9929937 0.00524051004,33.8183081 C0,49.5698013 0.00524051004,65.3206806 0,81.0721737 C0.000616530593,82.9584367 0.397353967,84.6289427 1.19822721,86.0695737 L21.7160571,74.3075913 C18.8491898,69.3418029 17.2086019,63.5844961 17.2086019,57.4450875" id="Fill-3" fill="#5C8DBC" sketch:type="MSShapeGroup" mask="url(#mask-20)"></path>
                                </g>
                                <g id="Fill-4-Clipped">
                                    <mask id="mask-22" sketch:name="path-17" fill="white">
                                        <use xlink:href="#path-21"></use>
                                    </mask>
                                    <g id="path-17"></g>
                                    <path d="M36.5303624,65.8160318 C39.4514844,70.8932282 44.9429224,74.3177193 51.2423237,74.3177193 C57.5808747,74.3177193 63.1034475,70.849954 66.0097727,65.7184347 L51.3992308,57.2919398 L36.5303624,65.8160318" id="Fill-4" fill="#1A4674" sketch:type="MSShapeGroup" mask="url(#mask-22)"></path>
                                </g>
                                <g id="Fill-5-Clipped">
                                    <mask id="mask-24" sketch:name="path-17" fill="white">
                                        <use xlink:href="#path-23"></use>
                                    </mask>
                                    <g id="path-17"></g>
                                    <path d="M51.2423237,91.3290741 C38.6123862,91.3290741 27.5891275,84.4797849 21.7160571,74.3075913 L1.19822721,86.0695737 C2.02129555,87.5507168 3.2706948,88.7890948 4.96183821,89.763838 C13.0642833,94.4359144 40.2563651,109.943108 45.6858417,113.132507 C49.3372442,115.277494 52.9023323,115.354221 56.5805539,113.239925 C70.2203684,105.399319 83.8777541,97.5912464 97.5234257,89.7589274 C99.2142609,88.7847981 100.463968,87.5458063 101.287037,86.065277 L80.8006499,74.2498924 C74.9362109,84.452163 63.8953811,91.3290741 51.2423237,91.3290741" id="Fill-5" fill="#1A4674" sketch:type="MSShapeGroup" mask="url(#mask-24)"></path>
                                </g>
                            </g>
                            <path d="M99.7364623,59.3488443 L95.8381394,59.3488443 L95.8381394,63.2306299 L91.9388916,63.2306299 L91.9388916,59.3488443 L88.040877,59.3488443 L88.040877,55.4676724 L91.9388916,55.4676724 L91.9388916,51.5865006 L95.8381394,51.5865006 L95.8381394,55.4676724 L99.7364623,55.4676724 L99.7364623,59.3488443 L99.7364623,59.3488443 Z M85.5115602,59.3488443 L81.6135455,59.3488443 L81.6135455,63.2306299 L77.7149143,63.2306299 L77.7149143,59.3488443 L73.8165914,59.3488443 L73.8165914,55.4676724 L77.7149143,55.4676724 L77.7149143,51.5865006 L81.6135455,51.5865006 L81.6135455,55.4676724 L85.5115602,55.4676724 L85.5115602,59.3488443 L85.5115602,59.3488443 Z M101.226925,28.7276077 L51.1706763,57.3964419 L101.226926,86.1801465 C102.026258,84.7398223 102.484031,82.95414 102.484647,81.067877 C102.484647,81.067877 102.484647,49.5737911 102.479407,33.821991 C102.47879,31.8936815 102.064482,30.1897224 101.226925,28.7276077 L101.226925,28.7276077 Z" id="Fill-7" fill="#1B598E" sketch:type="MSShapeGroup"></path>
                            <path d="M95.8381394,51.5865006 L91.9388916,51.5865006 L91.9388916,55.4676724 L88.040877,55.4676724 L88.040877,59.3488443 L91.9388916,59.3488443 L91.9388916,63.2306299 L95.8381394,63.2306299 L95.8381394,59.3488443 L99.7364623,59.3488443 L99.7364623,55.4676724 L95.8381394,55.4676724 L95.8381394,51.5865006" id="Fill-8" fill="#FFFFFF" sketch:type="MSShapeGroup"></path>
                            <path d="M81.6135455,51.5865006 L77.7149143,51.5865006 L77.7149143,55.4676724 L73.8165914,55.4676724 L73.8165914,59.3488443 L77.7149143,59.3488443 L77.7149143,63.2306299 L81.6135455,63.2306299 L81.6135455,59.3488443 L85.5115602,59.3488443 L85.5115602,55.4676724 L81.6135455,55.4676724 L81.6135455,51.5865006" id="Fill-9" fill="#FFFFFF" sketch:type="MSShapeGroup"></path>
                            <path d="M66.0097727,65.7184347 C63.1034475,70.849954 57.5808747,74.3177193 51.2423237,74.3177193 C44.9429224,74.3177193 39.4514844,70.8932282 36.5303624,65.8160318 C35.111109,63.3487899 34.2951308,60.4923874 34.2951308,57.4450875 C34.2951308,48.1270218 41.883081,40.5730694 51.2423237,40.5730694 C57.5013423,40.5730694 62.9638034,43.9545933 65.8994138,48.9799221 L80.7124861,40.4880556 C74.8249272,30.3692642 63.832495,23.5617146 51.2423237,23.5617146 C32.4458473,23.5617146 17.2086019,38.731922 17.2086019,57.4450875 C17.2086019,63.5844961 18.8491898,69.3418029 21.7160571,74.3075913 C27.5891275,84.4797849 38.6123862,91.3290741 51.2423237,91.3290741 C63.8953811,91.3290741 74.9362109,84.452163 80.8006499,74.2498924 L66.0097727,65.7184347" id="Fill-10" fill="#FFFFFF" sketch:type="MSShapeGroup"></path>
                        </g>
                    </g>
                    <g id="c-2" transform="translate(1047.889323, 5.000000)">
                        <g id="c">
                            <g id="Group-6">
                                <g id="mask-20" fill="#FFFFFF" sketch:type="MSShapeGroup">
                                    <path d="M0.0184959178,0.106804349 L102.484647,0.106804349 L102.484647,114.783984 L0.0184959178,114.783984" id="path-19"></path>
                                </g>
                                <g id="Clip-2"></g>
                                <g id="Fill-1-Clipped">
                                    <mask id="mask-26" sketch:name="path-19" fill="white">
                                        <use xlink:href="#path-25"></use>
                                    </mask>
                                    <g id="path-19"></g>
                                    <path d="M51.2423237,40.5730694 C41.883081,40.5730694 34.2951308,48.1270218 34.2951308,57.4450875 C34.2951308,60.4923874 35.111109,63.3487899 36.5303624,65.8160318 L65.8994138,48.9799221 C62.9638034,43.9545933 57.5013423,40.5730694 51.2423237,40.5730694" id="Fill-1" fill="#5C8DBC" sketch:type="MSShapeGroup" mask="url(#mask-26)"></path>
                                </g>
                                <g id="Fill-3-Clipped">
                                    <mask id="mask-28" sketch:name="path-19" fill="white">
                                        <use xlink:href="#path-27"></use>
                                    </mask>
                                    <g id="path-19"></g>
                                    <path d="M17.2086019,57.4450875 C17.2086019,38.731922 32.4458473,23.5617146 51.2423237,23.5617146 C63.832495,23.5617146 74.8249272,30.3692642 80.7124861,40.4880556 L101.226925,28.7276077 C100.404165,27.2894319 99.1717203,26.0842001 97.51911,25.1312475 C83.875288,17.2992355 70.2188271,9.49085544 56.5793208,1.65055687 C52.9023323,-0.463125755 49.3372442,-0.386091584 45.6873831,1.75766812 C40.2569816,4.94645314 13.0679825,20.4548743 4.96615393,25.1269508 C1.62949036,27.0500429 0.00585704063,29.9929937 0.00524051004,33.8183081 C0,49.5698013 0.00524051004,65.3206806 0,81.0721737 C0.000616530593,82.9584367 0.397353967,84.6289427 1.19822721,86.0695737 L21.7160571,74.3075913 C18.8491898,69.3418029 17.2086019,63.5844961 17.2086019,57.4450875" id="Fill-3" fill="#5C8DBC" sketch:type="MSShapeGroup" mask="url(#mask-28)"></path>
                                </g>
                                <g id="Fill-4-Clipped">
                                    <mask id="mask-30" sketch:name="path-19" fill="white">
                                        <use xlink:href="#path-29"></use>
                                    </mask>
                                    <g id="path-19"></g>
                                    <path d="M36.5303624,65.8160318 C39.4514844,70.8932282 44.9429224,74.3177193 51.2423237,74.3177193 C57.5808747,74.3177193 63.1034475,70.849954 66.0097727,65.7184347 L51.3992308,57.2919398 L36.5303624,65.8160318" id="Fill-4" fill="#1A4674" sketch:type="MSShapeGroup" mask="url(#mask-30)"></path>
                                </g>
                                <g id="Fill-5-Clipped">
                                    <mask id="mask-32" sketch:name="path-19" fill="white">
                                        <use xlink:href="#path-31"></use>
                                    </mask>
                                    <g id="path-19"></g>
                                    <path d="M51.2423237,91.3290741 C38.6123862,91.3290741 27.5891275,84.4797849 21.7160571,74.3075913 L1.19822721,86.0695737 C2.02129555,87.5507168 3.2706948,88.7890948 4.96183821,89.763838 C13.0642833,94.4359144 40.2563651,109.943108 45.6858417,113.132507 C49.3372442,115.277494 52.9023323,115.354221 56.5805539,113.239925 C70.2203684,105.399319 83.8777541,97.5912464 97.5234257,89.7589274 C99.2142609,88.7847981 100.463968,87.5458063 101.287037,86.065277 L80.8006499,74.2498924 C74.9362109,84.452163 63.8953811,91.3290741 51.2423237,91.3290741" id="Fill-5" fill="#1A4674" sketch:type="MSShapeGroup" mask="url(#mask-32)"></path>
                                </g>
                            </g>
                            <path d="M66.0097727,65.7184347 C63.1034475,70.849954 57.5808747,74.3177193 51.2423237,74.3177193 C44.9429224,74.3177193 39.4514844,70.8932282 36.5303624,65.8160318 C35.111109,63.3487899 34.2951308,60.4923874 34.2951308,57.4450875 C34.2951308,48.1270218 41.883081,40.5730694 51.2423237,40.5730694 C57.5013423,40.5730694 62.9638034,43.9545933 65.8994138,48.9799221 L80.7124861,40.4880556 C74.8249272,30.3692642 63.832495,23.5617146 51.2423237,23.5617146 C32.4458473,23.5617146 17.2086019,38.731922 17.2086019,57.4450875 C17.2086019,63.5844961 18.8491898,69.3418029 21.7160571,74.3075913 C27.5891275,84.4797849 38.6123862,91.3290741 51.2423237,91.3290741 C63.8953811,91.3290741 74.9362109,84.452163 80.8006499,74.2498924 L66.0097727,65.7184347" id="Fill-10" fill="#FFFFFF" sketch:type="MSShapeGroup"></path>
                        </g>
                    </g>
                </g>
            </g>
        </g>
    </g>
</svg>