<?xml version="1.0" encoding="UTF-8" standalone="no"?>
<svg width="83px" height="82px" viewBox="0 0 83 82" version="1.1" xmlns="http://www.w3.org/2000/svg" xmlns:xlink="http://www.w3.org/1999/xlink" xmlns:sketch="http://www.bohemiancoding.com/sketch/ns">
    <!-- Generator: Sketch 3.2.2 (9983) - http://www.bohemiancoding.com/sketch -->
    <title>twitter</title>
    <desc>Created with Sketch.</desc>
    <defs></defs>
    <g id="Page-1" stroke="none" stroke-width="1" fill="none" fill-rule="evenodd" sketch:type="MSPage">
        <g id="Twitter" sketch:type="MSLayerGroup" fill="#fff">
            <g id="twitter" sketch:type="MSShapeGroup">
                <path d="M41.06,1.999 C19.555,1.999 2.06,19.494 2.06,40.999 C2.06,62.503 19.555,79.998 41.06,79.998 C62.564,79.998 80.058,62.503 80.058,40.999 C80.058,19.494 62.564,1.999 41.06,1.999 L41.06,1.999 Z M41.06,81.998 C18.453,81.998 0.06,63.606 0.06,40.999 C0.06,18.391 18.453,-0.001 41.06,-0.001 C63.667,-0.001 82.058,18.391 82.058,40.999 C82.058,63.606 63.667,81.998 41.06,81.998 L41.06,81.998 Z" id="Fill-4"></path>
                <path d="M59.059,31.782 C57.734,32.369 56.31,32.766 54.817,32.944 C56.344,32.03 57.515,30.584 58.064,28.86 C56.636,29.706 55.058,30.32 53.372,30.649 C52.029,29.214 50.107,28.318 47.982,28.318 C43.905,28.318 40.598,31.625 40.598,35.703 C40.598,36.283 40.661,36.845 40.789,37.385 C34.652,37.076 29.21,34.139 25.564,29.668 C24.928,30.762 24.566,32.03 24.566,33.384 C24.566,35.944 25.87,38.205 27.85,39.531 C26.642,39.494 25.501,39.159 24.503,38.609 L24.503,38.699 C24.503,42.28 27.05,45.265 30.43,45.941 C29.811,46.114 29.16,46.201 28.484,46.201 C28.008,46.201 27.545,46.157 27.095,46.07 C28.035,49.004 30.76,51.14 33.994,51.197 C31.465,53.179 28.279,54.359 24.821,54.359 C24.225,54.359 23.636,54.326 23.059,54.257 C26.328,56.351 30.21,57.574 34.379,57.574 C47.968,57.574 55.394,46.322 55.394,36.561 C55.394,36.24 55.388,35.92 55.374,35.605 C56.818,34.563 58.073,33.262 59.059,31.782" id="Fill-5"></path>
            </g>
        </g>
    </g>
</svg>